  0
SECTION
  2
HEADER
  9
$ACADVER
  1
AC1014
  9
$HANDSEED
  5
FFFF
  9
$MEASUREMENT
 70
     1
  0
ENDSEC
  0
SECTION
  2
TABLES
  0
TABLE
  2
VPORT
  5
8
330
0
100
AcDbSymbolTable
 70
     4
  0
VPORT
  5
2E
330
8
100
AcDbSymbolTableRecord
100
AcDbViewportTableRecord
  2
*ACTIVE
 70
     0
 10
0.0
 20
0.0
 11
1.0
 21
1.0
 12
210.0
 22
148.5
 13
0.0
 23
0.0
 14
10.0
 24
10.0
 15
10.0
 25
10.0
 16
0.0
 26
0.0
 36
1.0
 17
0.0
 27
0.0
 37
0.0
 40
341.0
 41
1.24
 42
50.0
 43
0.0
 44
0.0
 50
0.0
 51
0.0
 71
     0
 72
   100
 73
     1
 74
     3
 75
     0
 76
     0
 77
     0
 78
     0
  0
ENDTAB
  0
TABLE
  2
LTYPE
  5
5
330
0
100
AcDbSymbolTable
 70
     1
  0
LTYPE
  5
14
330
5
100
AcDbSymbolTableRecord
100
AcDbLinetypeTableRecord
  2
BYBLOCK
 70
     0
  3

 72
    65
 73
     0
 40
0.0
  0
LTYPE
  5
15
330
5
100
AcDbSymbolTableRecord
100
AcDbLinetypeTableRecord
  2
BYLAYER
 70
     0
  3

 72
    65
 73
     0
 40
0.0
  0
LTYPE
  5
16
330
5
100
AcDbSymbolTableRecord
100
AcDbLinetypeTableRecord
  2
CONTINUOUS
 70
     0
  3
Solid line
 72
    65
 73
     0
 40
0.0
  0
ENDTAB
  0
TABLE
  2
LAYER
  5
2
100
AcDbSymbolTable
 70
2
  0
LAYER
  5
50
100
AcDbSymbolTableRecord
100
AcDbLayerTableRecord
  2
0
 70
0
  6
CONTINUOUS
  0
LAYER
  5
51
100
AcDbSymbolTableRecord
100
AcDbLayerTableRecord
  2
ink_ext_XXXXXX
 70
0
  6
CONTINUOUS
  0
ENDTAB
  0
TABLE
  2
STYLE
  5
3
330
0
100
AcDbSymbolTable
 70
     1
  0
STYLE
  5
11
330
3
100
AcDbSymbolTableRecord
100
AcDbTextStyleTableRecord
  2
STANDARD
 70
     0
 40
0.0
 41
1.0
 50
0.0
 71
     0
 42
2.5
  3
txt
  4

  0
ENDTAB
  0
TABLE
  2
VIEW
  5
6
330
0
100
AcDbSymbolTable
 70
     0
  0
ENDTAB
  0
TABLE
  2
UCS
  5
7
330
0
100
AcDbSymbolTable
 70
     0
  0
ENDTAB
  0
TABLE
  2
APPID
  5
9
330
0
100
AcDbSymbolTable
 70
     2
  0
APPID
  5
12
330
9
100
AcDbSymbolTableRecord
100
AcDbRegAppTableRecord
  2
ACAD
 70
     0
  0
ENDTAB
  0
TABLE
  2
DIMSTYLE
  5
A
330
0
100
AcDbSymbolTable
 70
     1
  0
DIMSTYLE
105
27
330
A
100
AcDbSymbolTableRecord
100
AcDbDimStyleTableRecord
  2
ISO-25
 70
     0
  3

  4

  5

  6

  7

 40
1.0
 41
2.5
 42
0.625
 43
3.75
 44
1.25
 45
0.0
 46
0.0
 47
0.0
 48
0.0
140
2.5
141
2.5
142
0.0
143
0.03937007874016
144
1.0
145
0.0
146
1.0
147
0.625
 71
     0
 72
     0
 73
     0
 74
     0
 75
     0
 76
     0
 77
     1
 78
     8
170
     0
171
     3
172
     1
173
     0
174
     0
175
     0
176
     0
177
     0
178
     0
270
     2
271
     2
272
     2
273
     2
274
     3
340
11
275
     0
280
     0
281
     0
282
     0
283
     0
284
     8
285
     0
286
     0
287
     3
288
     0
  0
ENDTAB
  0
TABLE
  2
BLOCK_RECORD
  5
1
330
0
100
AcDbSymbolTable
 70
     1
  0
BLOCK_RECORD
  5
1F
330
1
100
AcDbSymbolTableRecord
100
AcDbBlockTableRecord
  2
*MODEL_SPACE
  0
BLOCK_RECORD
  5
1B
330
1
100
AcDbSymbolTableRecord
100
AcDbBlockTableRecord
  2
*PAPER_SPACE
  0
ENDTAB
  0
ENDSEC
  0
SECTION
  2
BLOCKS
  0
BLOCK
  5
20
330
1F
100
AcDbEntity
  8
0
100
AcDbBlockBegin
  2
*MODEL_SPACE
 70
     0
 10
0.0
 20
0.0
 30
0.0
  3
*MODEL_SPACE
  1

  0
ENDBLK
  5
21
330
1F
100
AcDbEntity
  8
0
100
AcDbBlockEnd
  0
BLOCK
  5
1C
330
1B
100
AcDbEntity
 67
     1
  8
0
100
AcDbBlockBegin
  2
*PAPER_SPACE
  1

  0
ENDBLK
  5
1D
330
1B
100
AcDbEntity
 67
     1
  8
0
100
AcDbBlockEnd
  0
ENDSEC
  0
SECTION
  2
ENTITIES
  0
SPLINE
  5
100
100
AcDbEntity
  8
ink_ext_XXXXXX
 62
7
100
AcDbSpline
 70
8
 71
3
 72
8
 73
4
 74
0
 40
0
 40
0
 40
0
 40
0
 40
1
 40
1
 40
1
 40
1
 10
165.423035
 20
174.143615
 30
0.0
 10
165.340050
 20
178.693926
 30
0.0
 10
161.584217
 20
182.315442
 30
0.0
 10
157.033906
 20
182.232452
 30
0.0
  0
SPLINE
  5
101
100
AcDbEntity
  8
ink_ext_XXXXXX
 62
7
100
AcDbSpline
 70
8
 71
3
 72
8
 73
4
 74
0
 40
0
 40
0
 40
0
 40
0
 40
1
 40
1
 40
1
 40
1
 10
157.033906
 20
182.232452
 30
0.0
 10
152.483879
 20
182.149003
 30
0.0
 10
148.862363
 20
178.393170
 30
0.0
 10
148.945528
 20
173.843608
 30
0.0
  0
SPLINE
  5
102
100
AcDbEntity
  8
ink_ext_XXXXXX
 62
7
100
AcDbSpline
 70
8
 71
3
 72
8
 73
4
 74
0
 40
0
 40
0
 40
0
 40
0
 40
1
 40
1
 40
1
 40
1
 10
148.945528
 20
173.843608
 30
0.0
 10
149.028518
 20
169.293297
 30
0.0
 10
152.868385
 20
161.059233
 30
0.0
 10
157.418232
 20
161.141934
 30
0.0
  0
SPLINE
  5
103
100
AcDbEntity
  8
ink_ext_XXXXXX
 62
7
100
AcDbSpline
 70
8
 71
3
 72
8
 73
4
 74
0
 40
0
 40
0
 40
0
 40
0
 40
1
 40
1
 40
1
 40
1
 10
157.418232
 20
161.141934
 30
0.0
 10
161.968548
 20
161.224919
 30
0.0
 10
165.505735
 20
169.593768
 30
0.0
 10
165.423035
 20
174.143615
 30
0.0
  0
SPLINE
  5
104
100
AcDbEntity
  8
ink_ext_XXXXXX
 62
7
100
AcDbSpline
 70
8
 71
3
 72
8
 73
4
 74
0
 40
0
 40
0
 40
0
 40
0
 40
1
 40
1
 40
1
 40
1
 10
177.658628
 20
151.838950
 30
0.0
 10
181.360205
 20
154.486135
 30
0.0
 10
182.215088
 20
159.632923
 30
0.0
 10
179.567903
 20
163.335047
 30
0.0
  0
SPLINE
  5
105
100
AcDbEntity
  8
ink_ext_XXXXXX
 62
7
100
AcDbSpline
 70
8
 71
3
 72
8
 73
4
 74
0
 40
0
 40
0
 40
0
 40
0
 40
1
 40
1
 40
1
 40
1
 10
179.567903
 20
163.335047
 30
0.0
 10
176.920718
 20
167.036625
 30
0.0
 10
171.773929
 20
167.891507
 30
0.0
 10
168.072352
 20
165.244322
 30
0.0
  0
SPLINE
  5
106
100
AcDbEntity
  8
ink_ext_XXXXXX
 62
7
100
AcDbSpline
 70
8
 71
3
 72
8
 73
4
 74
0
 40
0
 40
0
 40
0
 40
0
 40
1
 40
1
 40
1
 40
1
 10
168.072352
 20
165.244322
 30
0.0
 10
164.370774
 20
162.597137
 30
0.0
 10
159.762934
 20
154.766541
 30
0.0
 10
162.410119
 20
151.064963
 30
0.0
  0
SPLINE
  5
107
100
AcDbEntity
  8
ink_ext_XXXXXX
 62
7
100
AcDbSpline
 70
8
 71
3
 72
8
 73
4
 74
0
 40
0
 40
0
 40
0
 40
0
 40
1
 40
1
 40
1
 40
1
 10
162.410119
 20
151.064963
 30
0.0
 10
165.057304
 20
147.363386
 30
0.0
 10
173.957051
 20
149.191764
 30
0.0
 10
177.658628
 20
151.838950
 30
0.0
  0
SPLINE
  5
108
100
AcDbEntity
  8
ink_ext_XXXXXX
 62
7
100
AcDbSpline
 70
8
 71
3
 72
8
 73
4
 74
0
 40
0
 40
0
 40
0
 40
0
 40
1
 40
1
 40
1
 40
1
 10
207.644153
 20
146.435275
 30
0.0
 10
210.271940
 20
150.151195
 30
0.0
 10
209.389661
 20
155.293354
 30
0.0
 10
205.673922
 20
157.920632
 30
0.0
  0
SPLINE
  5
109
100
AcDbEntity
  8
ink_ext_XXXXXX
 62
7
100
AcDbSpline
 70
8
 71
3
 72
8
 73
4
 74
0
 40
0
 40
0
 40
0
 40
0
 40
1
 40
1
 40
1
 40
1
 10
205.673922
 20
157.920632
 30
0.0
 10
201.958187
 20
160.547905
 30
0.0
 10
196.816029
 20
159.665626
 30
0.0
 10
194.188237
 20
155.949706
 30
0.0
  0
SPLINE
  5
10a
100
AcDbEntity
  8
ink_ext_XXXXXX
 62
7
100
AcDbSpline
 70
8
 71
3
 72
8
 73
4
 74
0
 40
0
 40
0
 40
0
 40
0
 40
1
 40
1
 40
1
 40
1
 10
194.188237
 20
155.949706
 30
0.0
 10
191.560964
 20
152.233967
 30
0.0
 10
189.779976
 20
143.324786
 30
0.0
 10
193.495202
 20
140.697333
 30
0.0
  0
SPLINE
  5
10b
100
AcDbEntity
  8
ink_ext_XXXXXX
 62
7
100
AcDbSpline
 70
8
 71
3
 72
8
 73
4
 74
0
 40
0
 40
0
 40
0
 40
0
 40
1
 40
1
 40
1
 40
1
 10
193.495202
 20
140.697333
 30
0.0
 10
197.210931
 20
138.070060
 30
0.0
 10
205.016886
 20
142.719541
 30
0.0
 10
207.644153
 20
146.435275
 30
0.0
  0
SPLINE
  5
10c
100
AcDbEntity
  8
ink_ext_XXXXXX
 62
7
100
AcDbSpline
 70
8
 71
3
 72
8
 73
4
 74
0
 40
0
 40
0
 40
0
 40
0
 40
1
 40
1
 40
1
 40
1
 10
208.110639
 20
143.120226
 30
0.0
 10
204.766603
 20
140.033033
 30
0.0
 10
204.558655
 20
134.819877
 30
0.0
 10
207.645788
 20
131.476383
 30
0.0
  0
SPLINE
  5
10d
100
AcDbEntity
  8
ink_ext_XXXXXX
 62
7
100
AcDbSpline
 70
8
 71
3
 72
8
 73
4
 74
0
 40
0
 40
0
 40
0
 40
0
 40
1
 40
1
 40
1
 40
1
 10
207.645788
 20
131.476383
 30
0.0
 10
210.732910
 20
128.132900
 30
0.0
 10
215.946067
 20
127.924945
 30
0.0
 10
219.290096
 20
131.012133
 30
0.0
  0
SPLINE
  5
10e
100
AcDbEntity
  8
ink_ext_XXXXXX
 62
7
100
AcDbSpline
 70
8
 71
3
 72
8
 73
4
 74
0
 40
0
 40
0
 40
0
 40
0
 40
1
 40
1
 40
1
 40
1
 10
219.290096
 20
131.012133
 30
0.0
 10
222.633590
 20
134.099266
 30
0.0
 10
226.230909
 20
142.442202
 30
0.0
 10
223.144328
 20
145.785767
 30
0.0
  0
SPLINE
  5
10f
100
AcDbEntity
  8
ink_ext_XXXXXX
 62
7
100
AcDbSpline
 70
8
 71
3
 72
8
 73
4
 74
0
 40
0
 40
0
 40
0
 40
0
 40
1
 40
1
 40
1
 40
1
 10
223.144328
 20
145.785767
 30
0.0
 10
220.057206
 20
149.129250
 30
0.0
 10
211.454133
 20
146.207348
 30
0.0
 10
208.110639
 20
143.120226
 30
0.0
  0
SPLINE
  5
110
100
AcDbEntity
  8
ink_ext_XXXXXX
 62
7
100
AcDbSpline
 70
8
 71
3
 72
8
 73
4
 74
0
 40
0
 40
0
 40
0
 40
0
 40
1
 40
1
 40
1
 40
1
 10
240.422653
 20
144.095979
 30
0.0
 10
237.608821
 20
147.672746
 30
0.0
 10
232.428460
 20
148.291175
 30
0.0
 10
228.851682
 20
145.477342
 30
0.0
  0
SPLINE
  5
111
100
AcDbEntity
  8
ink_ext_XXXXXX
 62
7
100
AcDbSpline
 70
8
 71
3
 72
8
 73
4
 74
0
 40
0
 40
0
 40
0
 40
0
 40
1
 40
1
 40
1
 40
1
 10
228.851682
 20
145.477342
 30
0.0
 10
225.274910
 20
142.663515
 30
0.0
 10
224.656492
 20
137.483143
 30
0.0
 10
227.470320
 20
133.906376
 30
0.0
  0
SPLINE
  5
112
100
AcDbEntity
  8
ink_ext_XXXXXX
 62
7
100
AcDbSpline
 70
8
 71
3
 72
8
 73
4
 74
0
 40
0
 40
0
 40
0
 40
0
 40
1
 40
1
 40
1
 40
1
 10
227.470320
 20
133.906376
 30
0.0
 10
230.284147
 20
130.329604
 30
0.0
 10
238.316903
 20
126.085094
 30
0.0
 10
241.893681
 20
128.898922
 30
0.0
  0
SPLINE
  5
113
100
AcDbEntity
  8
ink_ext_XXXXXX
 62
7
100
AcDbSpline
 70
8
 71
3
 72
8
 73
4
 74
0
 40
0
 40
0
 40
0
 40
0
 40
1
 40
1
 40
1
 40
1
 10
241.893681
 20
128.898922
 30
0.0
 10
245.470447
 20
131.712754
 30
0.0
 10
243.236481
 20
140.519207
 30
0.0
 10
240.422653
 20
144.095979
 30
0.0
  0
SPLINE
  5
114
100
AcDbEntity
  8
ink_ext_XXXXXX
 62
7
100
AcDbSpline
 70
8
 71
3
 72
8
 73
4
 74
0
 40
0
 40
0
 40
0
 40
0
 40
1
 40
1
 40
1
 40
1
 10
158.003389
 20
129.562658
 30
0.0
 10
162.480631
 20
130.376415
 30
0.0
 10
165.450578
 20
134.666063
 30
0.0
 10
164.636455
 20
139.143726
 30
0.0
  0
SPLINE
  5
115
100
AcDbEntity
  8
ink_ext_XXXXXX
 62
7
100
AcDbSpline
 70
8
 71
3
 72
8
 73
4
 74
0
 40
0
 40
0
 40
0
 40
0
 40
1
 40
1
 40
1
 40
1
 10
164.636455
 20
139.143726
 30
0.0
 10
163.822332
 20
143.621382
 30
0.0
 10
159.533050
 20
146.590920
 30
0.0
 10
155.055382
 20
145.776797
 30
0.0
  0
SPLINE
  5
116
100
AcDbEntity
  8
ink_ext_XXXXXX
 62
7
100
AcDbSpline
 70
8
 71
3
 72
8
 73
4
 74
0
 40
0
 40
0
 40
0
 40
0
 40
1
 40
1
 40
1
 40
1
 10
155.055382
 20
145.776797
 30
0.0
 10
150.577726
 20
144.962674
 30
0.0
 10
143.068858
 20
139.847856
 30
0.0
 10
143.882626
 20
135.370609
 30
0.0
  0
SPLINE
  5
117
100
AcDbEntity
  8
ink_ext_XXXXXX
 62
7
100
AcDbSpline
 70
8
 71
3
 72
8
 73
4
 74
0
 40
0
 40
0
 40
0
 40
0
 40
1
 40
1
 40
1
 40
1
 10
143.882626
 20
135.370609
 30
0.0
 10
144.696749
 20
130.892947
 30
0.0
 10
153.525727
 20
128.748536
 30
0.0
 10
158.003389
 20
129.562658
 30
0.0
  0
SPLINE
  5
118
100
AcDbEntity
  8
ink_ext_XXXXXX
 62
7
100
AcDbSpline
 70
8
 71
3
 72
8
 73
4
 74
0
 40
0
 40
0
 40
0
 40
0
 40
1
 40
1
 40
1
 40
1
 10
177.842745
 20
193.829091
 30
0.0
 10
174.606931
 20
197.028857
 30
0.0
 10
169.389276
 20
196.998728
 30
0.0
 10
166.190199
 20
193.762581
 30
0.0
  0
SPLINE
  5
119
100
AcDbEntity
  8
ink_ext_XXXXXX
 62
7
100
AcDbSpline
 70
8
 71
3
 72
8
 73
4
 74
0
 40
0
 40
0
 40
0
 40
0
 40
1
 40
1
 40
1
 40
1
 10
166.190199
 20
193.762581
 30
0.0
 10
162.990614
 20
190.526254
 30
0.0
 10
163.020049
 20
185.308932
 30
0.0
 10
166.256376
 20
182.109341
 30
0.0
  0
SPLINE
  5
11a
100
AcDbEntity
  8
ink_ext_XXXXXX
 62
7
100
AcDbSpline
 70
8
 71
3
 72
8
 73
4
 74
0
 40
0
 40
0
 40
0
 40
0
 40
1
 40
1
 40
1
 40
1
 10
166.256376
 20
182.109341
 30
0.0
 10
169.492698
 20
178.909756
 30
0.0
 10
177.990939
 20
175.696042
 30
0.0
 10
181.190524
 20
178.932369
 30
0.0
  0
SPLINE
  5
11b
100
AcDbEntity
  8
ink_ext_XXXXXX
 62
7
100
AcDbSpline
 70
8
 71
3
 72
8
 73
4
 74
0
 40
0
 40
0
 40
0
 40
0
 40
1
 40
1
 40
1
 40
1
 10
181.190524
 20
178.932369
 30
0.0
 10
184.389595
 20
182.168516
 30
0.0
 10
181.079067
 20
190.629501
 30
0.0
 10
177.842745
 20
193.829091
 30
0.0
  0
SPLINE
  5
11c
100
AcDbEntity
  8
ink_ext_XXXXXX
 62
7
100
AcDbSpline
 70
8
 71
3
 72
8
 73
4
 74
0
 40
0
 40
0
 40
0
 40
0
 40
1
 40
1
 40
1
 40
1
 10
194.896325
 20
181.352721
 30
0.0
 10
199.358770
 20
180.460122
 30
0.0
 10
203.699323
 20
183.354918
 30
0.0
 10
204.591921
 20
187.817363
 30
0.0
  0
SPLINE
  5
11d
100
AcDbEntity
  8
ink_ext_XXXXXX
 62
7
100
AcDbSpline
 70
8
 71
3
 72
8
 73
4
 74
0
 40
0
 40
0
 40
0
 40
0
 40
1
 40
1
 40
1
 40
1
 10
204.591921
 20
187.817363
 30
0.0
 10
205.483973
 20
192.279807
 30
0.0
 10
202.589724
 20
196.620907
 30
0.0
 10
198.127279
 20
197.512959
 30
0.0
  0
SPLINE
  5
11e
100
AcDbEntity
  8
ink_ext_XXXXXX
 62
7
100
AcDbSpline
 70
8
 71
3
 72
8
 73
4
 74
0
 40
0
 40
0
 40
0
 40
0
 40
1
 40
1
 40
1
 40
1
 10
198.127279
 20
197.512959
 30
0.0
 10
193.664834
 20
198.405011
 30
0.0
 10
184.799524
 20
196.415385
 30
0.0
 10
183.907472
 20
191.952941
 30
0.0
  0
SPLINE
  5
11f
100
AcDbEntity
  8
ink_ext_XXXXXX
 62
7
100
AcDbSpline
 70
8
 71
3
 72
8
 73
4
 74
0
 40
0
 40
0
 40
0
 40
0
 40
1
 40
1
 40
1
 40
1
 10
183.907472
 20
191.952941
 30
0.0
 10
183.015420
 20
187.490496
 30
0.0
 10
190.433333
 20
182.244772
 30
0.0
 10
194.896325
 20
181.352721
 30
0.0
  0
SPLINE
  5
120
100
AcDbEntity
  8
ink_ext_XXXXXX
 62
7
100
AcDbSpline
 70
8
 71
3
 72
8
 73
4
 74
0
 40
0
 40
0
 40
0
 40
0
 40
1
 40
1
 40
1
 40
1
 10
203.081249
 20
178.653177
 30
0.0
 10
200.438770
 20
174.948331
 30
0.0
 10
201.299288
 20
169.802635
 30
0.0
 10
205.004129
 20
167.159615
 30
0.0
  0
SPLINE
  5
121
100
AcDbEntity
  8
ink_ext_XXXXXX
 62
7
100
AcDbSpline
 70
8
 71
3
 72
8
 73
4
 74
0
 40
0
 40
0
 40
0
 40
0
 40
1
 40
1
 40
1
 40
1
 10
205.004129
 20
167.159615
 30
0.0
 10
208.708964
 20
164.516595
 30
0.0
 10
213.854664
 20
165.377108
 30
0.0
 10
216.497679
 20
169.081954
 30
0.0
  0
SPLINE
  5
122
100
AcDbEntity
  8
ink_ext_XXXXXX
 62
7
100
AcDbSpline
 70
8
 71
3
 72
8
 73
4
 74
0
 40
0
 40
0
 40
0
 40
0
 40
1
 40
1
 40
1
 40
1
 10
216.497679
 20
169.081954
 30
0.0
 10
219.140699
 20
172.786783
 30
0.0
 10
220.959053
 20
181.688481
 30
0.0
 10
217.254218
 20
184.331501
 30
0.0
  0
SPLINE
  5
123
100
AcDbEntity
  8
ink_ext_XXXXXX
 62
7
100
AcDbSpline
 70
8
 71
3
 72
8
 73
4
 74
0
 40
0
 40
0
 40
0
 40
0
 40
1
 40
1
 40
1
 40
1
 10
217.254218
 20
184.331501
 30
0.0
 10
213.549924
 20
186.974516
 30
0.0
 10
205.724258
 20
182.357470
 30
0.0
 10
203.081249
 20
178.653177
 30
0.0
  0
SPLINE
  5
124
100
AcDbEntity
  8
ink_ext_XXXXXX
 62
7
100
AcDbSpline
 70
8
 71
3
 72
8
 73
4
 74
0
 40
0
 40
0
 40
0
 40
0
 40
1
 40
1
 40
1
 40
1
 10
224.428626
 20
152.127604
 30
0.0
 10
228.971798
 20
152.395339
 30
0.0
 10
232.436921
 20
156.295568
 30
0.0
 10
232.168409
 20
160.838669
 30
0.0
  0
SPLINE
  5
125
100
AcDbEntity
  8
ink_ext_XXXXXX
 62
7
100
AcDbSpline
 70
8
 71
3
 72
8
 73
4
 74
0
 40
0
 40
0
 40
0
 40
0
 40
1
 40
1
 40
1
 40
1
 10
232.168409
 20
160.838669
 30
0.0
 10
231.900324
 20
165.381426
 30
0.0
 10
228.000451
 20
168.846965
 30
0.0
 10
223.456929
 20
168.578808
 30
0.0
  0
SPLINE
  5
126
100
AcDbEntity
  8
ink_ext_XXXXXX
 62
7
100
AcDbSpline
 70
8
 71
3
 72
8
 73
4
 74
0
 40
0
 40
0
 40
0
 40
0
 40
1
 40
1
 40
1
 40
1
 10
223.456929
 20
168.578808
 30
0.0
 10
218.914172
 20
168.310717
 30
0.0
 10
210.843378
 20
164.138632
 30
0.0
 10
211.111879
 20
159.595530
 30
0.0
  0
SPLINE
  5
127
100
AcDbEntity
  8
ink_ext_XXXXXX
 62
7
100
AcDbSpline
 70
8
 71
3
 72
8
 73
4
 74
0
 40
0
 40
0
 40
0
 40
0
 40
1
 40
1
 40
1
 40
1
 10
211.111879
 20
159.595530
 30
0.0
 10
211.379620
 20
155.052364
 30
0.0
 10
219.885519
 20
151.859097
 30
0.0
 10
224.428626
 20
152.127604
 30
0.0
  0
SPLINE
  5
128
100
AcDbEntity
  8
ink_ext_XXXXXX
 62
7
100
AcDbSpline
 70
8
 71
3
 72
8
 73
4
 74
0
 40
0
 40
0
 40
0
 40
0
 40
1
 40
1
 40
1
 40
1
 10
184.860344
 20
162.856925
 30
0.0
 10
187.743207
 20
159.335939
 30
0.0
 10
192.935013
 20
158.818456
 30
0.0
 10
196.456535
 20
161.701221
 30
0.0
  0
SPLINE
  5
129
100
AcDbEntity
  8
ink_ext_XXXXXX
 62
7
100
AcDbSpline
 70
8
 71
3
 72
8
 73
4
 74
0
 40
0
 40
0
 40
0
 40
0
 40
1
 40
1
 40
1
 40
1
 10
196.456535
 20
161.701221
 30
0.0
 10
199.977614
 20
164.584619
 30
0.0
 10
200.495004
 20
169.775896
 30
0.0
 10
197.612239
 20
173.297417
 30
0.0
  0
SPLINE
  5
12a
100
AcDbEntity
  8
ink_ext_XXXXXX
 62
7
100
AcDbSpline
 70
8
 71
3
 72
8
 73
4
 74
0
 40
0
 40
0
 40
0
 40
0
 40
1
 40
1
 40
1
 40
1
 10
197.612239
 20
173.297417
 30
0.0
 10
194.728841
 20
176.818496
 30
0.0
 10
186.614745
 20
180.905831
 30
0.0
 10
183.093666
 20
178.022427
 30
0.0
  0
SPLINE
  5
12b
100
AcDbEntity
  8
ink_ext_XXXXXX
 62
7
100
AcDbSpline
 70
8
 71
3
 72
8
 73
4
 74
0
 40
0
 40
0
 40
0
 40
0
 40
1
 40
1
 40
1
 40
1
 10
183.093666
 20
178.022427
 30
0.0
 10
179.572144
 20
175.139668
 30
0.0
 10
181.977579
 20
166.378447
 30
0.0
 10
184.860344
 20
162.856925
 30
0.0
  0
SPLINE
  5
12c
100
AcDbEntity
  8
ink_ext_XXXXXX
 62
7
100
AcDbSpline
 70
8
 71
3
 72
8
 73
4
 74
0
 40
0
 40
0
 40
0
 40
0
 40
1
 40
1
 40
1
 40
1
 10
112.238469
 20
25.309680
 30
0.0
 10
116.769698
 20
24.886496
 30
0.0
 10
120.786041
 20
28.216232
 30
0.0
 10
121.209634
 20
32.747095
 30
0.0
  0
SPLINE
  5
12d
100
AcDbEntity
  8
ink_ext_XXXXXX
 62
7
100
AcDbSpline
 70
8
 71
3
 72
8
 73
4
 74
0
 40
0
 40
0
 40
0
 40
0
 40
1
 40
1
 40
1
 40
1
 10
121.209634
 20
32.747095
 30
0.0
 10
121.633140
 20
37.278620
 30
0.0
 10
118.303486
 20
41.295033
 30
0.0
 10
113.772580
 20
41.718512
 30
0.0
  0
SPLINE
  5
12e
100
AcDbEntity
  8
ink_ext_XXXXXX
 62
7
100
AcDbSpline
 70
8
 71
3
 72
8
 73
4
 74
0
 40
0
 40
0
 40
0
 40
0
 40
1
 40
1
 40
1
 40
1
 10
113.772580
 20
41.718512
 30
0.0
 10
109.240941
 20
42.142061
 30
0.0
 10
100.631073
 20
39.241838
 30
0.0
 10
100.207119
 20
34.710648
 30
0.0
  0
SPLINE
  5
12f
100
AcDbEntity
  8
ink_ext_XXXXXX
 62
7
100
AcDbSpline
 70
8
 71
3
 72
8
 73
4
 74
0
 40
0
 40
0
 40
0
 40
0
 40
1
 40
1
 40
1
 40
1
 10
100.207119
 20
34.710648
 30
0.0
 10
99.783935
 20
30.179418
 30
0.0
 10
107.707278
 20
25.733634
 30
0.0
 10
112.238469
 20
25.309680
 30
0.0
  0
SPLINE
  5
130
100
AcDbEntity
  8
ink_ext_XXXXXX
 62
7
100
AcDbSpline
 70
8
 71
3
 72
8
 73
4
 74
0
 40
0
 40
0
 40
0
 40
0
 40
1
 40
1
 40
1
 40
1
 10
144.497229
 20
33.454669
 30
0.0
 10
142.500285
 20
29.365246
 30
0.0
 10
144.196473
 20
24.431397
 30
0.0
 10
148.285967
 20
22.434600
 30
0.0
  0
SPLINE
  5
131
100
AcDbEntity
  8
ink_ext_XXXXXX
 62
7
100
AcDbSpline
 70
8
 71
3
 72
8
 73
4
 74
0
 40
0
 40
0
 40
0
 40
0
 40
1
 40
1
 40
1
 40
1
 10
148.285967
 20
22.434600
 30
0.0
 10
152.375341
 20
20.437558
 30
0.0
 10
157.309387
 20
22.134260
 30
0.0
 10
159.306337
 20
26.223677
 30
0.0
  0
SPLINE
  5
132
100
AcDbEntity
  8
ink_ext_XXXXXX
 62
7
100
AcDbSpline
 70
8
 71
3
 72
8
 73
4
 74
0
 40
0
 40
0
 40
0
 40
0
 40
1
 40
1
 40
1
 40
1
 10
159.306337
 20
26.223677
 30
0.0
 10
161.302570
 20
30.312915
 30
0.0
 10
161.630744
 20
39.392700
 30
0.0
 10
157.541326
 20
41.389644
 30
0.0
  0
SPLINE
  5
133
100
AcDbEntity
  8
ink_ext_XXXXXX
 62
7
100
AcDbSpline
 70
8
 71
3
 72
8
 73
4
 74
0
 40
0
 40
0
 40
0
 40
0
 40
1
 40
1
 40
1
 40
1
 10
157.541326
 20
41.389644
 30
0.0
 10
153.452390
 20
43.386337
 30
0.0
 10
146.493708
 20
37.544388
 30
0.0
 10
144.497229
 20
33.454669
 30
0.0
  0
SPLINE
  5
134
100
AcDbEntity
  8
ink_ext_XXXXXX
 62
7
100
AcDbSpline
 70
8
 71
3
 72
8
 73
4
 74
0
 40
0
 40
0
 40
0
 40
0
 40
1
 40
1
 40
1
 40
1
 10
135.562079
 20
154.824338
 30
0.0
 10
135.629858
 20
150.274437
 30
0.0
 10
139.373523
 20
146.640638
 30
0.0
 10
143.923971
 20
146.708417
 30
0.0
  0
SPLINE
  5
135
100
AcDbEntity
  8
ink_ext_XXXXXX
 62
7
100
AcDbSpline
 70
8
 71
3
 72
8
 73
4
 74
0
 40
0
 40
0
 40
0
 40
0
 40
1
 40
1
 40
1
 40
1
 10
143.923971
 20
146.708417
 30
0.0
 10
148.474419
 20
146.776195
 30
0.0
 10
152.108217
 20
150.519861
 30
0.0
 10
152.040439
 20
155.070308
 30
0.0
  0
SPLINE
  5
136
100
AcDbEntity
  8
ink_ext_XXXXXX
 62
7
100
AcDbSpline
 70
8
 71
3
 72
8
 73
4
 74
0
 40
0
 40
0
 40
0
 40
0
 40
1
 40
1
 40
1
 40
1
 10
152.040439
 20
155.070308
 30
0.0
 10
151.972114
 20
159.620756
 30
0.0
 10
148.159577
 20
167.867315
 30
0.0
 10
143.609129
 20
167.799536
 30
0.0
  0
SPLINE
  5
137
100
AcDbEntity
  8
ink_ext_XXXXXX
 62
7
100
AcDbSpline
 70
8
 71
3
 72
8
 73
4
 74
0
 40
0
 40
0
 40
0
 40
0
 40
1
 40
1
 40
1
 40
1
 10
143.609129
 20
167.799536
 30
0.0
 10
139.059228
 20
167.731758
 30
0.0
 10
135.493754
 20
159.374786
 30
0.0
 10
135.562079
 20
154.824338
 30
0.0
  0
SPLINE
  5
138
100
AcDbEntity
  8
ink_ext_XXXXXX
 62
7
100
AcDbSpline
 70
8
 71
3
 72
8
 73
4
 74
0
 40
0
 40
0
 40
0
 40
0
 40
1
 40
1
 40
1
 40
1
 10
174.117926
 20
41.659894
 30
0.0
 10
178.464213
 20
43.010664
 30
0.0
 10
183.081881
 20
40.582644
 30
0.0
 10
184.432503
 20
36.237073
 30
0.0
  0
SPLINE
  5
139
100
AcDbEntity
  8
ink_ext_XXXXXX
 62
7
100
AcDbSpline
 70
8
 71
3
 72
8
 73
4
 74
0
 40
0
 40
0
 40
0
 40
0
 40
1
 40
1
 40
1
 40
1
 10
184.432503
 20
36.237073
 30
0.0
 10
185.783180
 20
31.890846
 30
0.0
 10
183.355253
 20
27.273117
 30
0.0
 10
179.009343
 20
25.922129
 30
0.0
  0
SPLINE
  5
13a
100
AcDbEntity
  8
ink_ext_XXXXXX
 62
7
100
AcDbSpline
 70
8
 71
3
 72
8
 73
4
 74
0
 40
0
 40
0
 40
0
 40
0
 40
1
 40
1
 40
1
 40
1
 10
179.009343
 20
25.922129
 30
0.0
 10
174.663286
 20
24.571857
 30
0.0
 10
165.639958
 20
25.630518
 30
0.0
 10
164.288916
 20
29.976329
 30
0.0
  0
SPLINE
  5
13b
100
AcDbEntity
  8
ink_ext_XXXXXX
 62
7
100
AcDbSpline
 70
8
 71
3
 72
8
 73
4
 74
0
 40
0
 40
0
 40
0
 40
0
 40
1
 40
1
 40
1
 40
1
 10
164.288916
 20
29.976329
 30
0.0
 10
162.938616
 20
34.322343
 30
0.0
 10
169.772388
 20
40.309321
 30
0.0
 10
174.117926
 20
41.659894
 30
0.0
  0
SPLINE
  5
13c
100
AcDbEntity
  8
ink_ext_XXXXXX
 62
7
100
AcDbSpline
 70
8
 71
3
 72
8
 73
4
 74
0
 40
0
 40
0
 40
0
 40
0
 40
1
 40
1
 40
1
 40
1
 10
172.843435
 20
60.122047
 30
0.0
 10
177.298167
 20
61.054039
 30
0.0
 10
181.664536
 20
58.198238
 30
0.0
 10
182.596533
 20
53.744287
 30
0.0
  0
SPLINE
  5
13d
100
AcDbEntity
  8
ink_ext_XXXXXX
 62
7
100
AcDbSpline
 70
8
 71
3
 72
8
 73
4
 74
0
 40
0
 40
0
 40
0
 40
0
 40
1
 40
1
 40
1
 40
1
 10
182.596533
 20
53.744287
 30
0.0
 10
183.528525
 20
49.289555
 30
0.0
 10
180.672724
 20
44.923186
 30
0.0
 10
176.218768
 20
43.991188
 30
0.0
  0
SPLINE
  5
13e
100
AcDbEntity
  8
ink_ext_XXXXXX
 62
7
100
AcDbSpline
 70
8
 71
3
 72
8
 73
4
 74
0
 40
0
 40
0
 40
0
 40
0
 40
1
 40
1
 40
1
 40
1
 10
176.218768
 20
43.991188
 30
0.0
 10
171.764041
 20
43.059197
 30
0.0
 10
162.881496
 20
44.970210
 30
0.0
 10
161.949887
 20
49.424554
 30
0.0
  0
SPLINE
  5
13f
100
AcDbEntity
  8
ink_ext_XXXXXX
 62
7
100
AcDbSpline
 70
8
 71
3
 72
8
 73
4
 74
0
 40
0
 40
0
 40
0
 40
0
 40
1
 40
1
 40
1
 40
1
 10
161.949887
 20
49.424554
 30
0.0
 10
161.017890
 20
53.879281
 30
0.0
 10
168.389096
 20
59.190438
 30
0.0
 10
172.843435
 20
60.122047
 30
0.0
  0
SPLINE
  5
140
100
AcDbEntity
  8
ink_ext_XXXXXX
 62
7
100
AcDbSpline
 70
8
 71
3
 72
8
 73
4
 74
0
 40
0
 40
0
 40
0
 40
0
 40
1
 40
1
 40
1
 40
1
 10
201.013143
 20
39.195995
 30
0.0
 10
197.462810
 20
36.349077
 30
0.0
 10
192.276628
 20
36.919962
 30
0.0
 10
189.430163
 20
40.470601
 30
0.0
  0
SPLINE
  5
141
100
AcDbEntity
  8
ink_ext_XXXXXX
 62
7
100
AcDbSpline
 70
8
 71
3
 72
8
 73
4
 74
0
 40
0
 40
0
 40
0
 40
0
 40
1
 40
1
 40
1
 40
1
 10
189.430163
 20
40.470601
 30
0.0
 10
186.583250
 20
44.020934
 30
0.0
 10
187.154136
 20
49.207116
 30
0.0
 10
190.704463
 20
52.054035
 30
0.0
  0
SPLINE
  5
142
100
AcDbEntity
  8
ink_ext_XXXXXX
 62
7
100
AcDbSpline
 70
8
 71
3
 72
8
 73
4
 74
0
 40
0
 40
0
 40
0
 40
0
 40
1
 40
1
 40
1
 40
1
 10
190.704463
 20
52.054035
 30
0.0
 10
194.255102
 20
54.900494
 30
0.0
 10
203.040702
 20
57.216106
 30
0.0
 10
205.887473
 20
53.665014
 30
0.0
  0
SPLINE
  5
143
100
AcDbEntity
  8
ink_ext_XXXXXX
 62
7
100
AcDbSpline
 70
8
 71
3
 72
8
 73
4
 74
0
 40
0
 40
0
 40
0
 40
0
 40
1
 40
1
 40
1
 40
1
 10
205.887473
 20
53.665014
 30
0.0
 10
208.734386
 20
50.114681
 30
0.0
 10
204.563782
 20
42.042454
 30
0.0
 10
201.013143
 20
39.195995
 30
0.0
  0
SPLINE
  5
144
100
AcDbEntity
  8
ink_ext_XXXXXX
 62
7
100
AcDbSpline
 70
8
 71
3
 72
8
 73
4
 74
0
 40
0
 40
0
 40
0
 40
0
 40
1
 40
1
 40
1
 40
1
 10
159.546223
 20
62.428962
 30
0.0
 10
155.082762
 20
63.316264
 30
0.0
 10
152.184091
 20
67.654483
 30
0.0
 10
153.071923
 20
72.117797
 30
0.0
  0
SPLINE
  5
145
100
AcDbEntity
  8
ink_ext_XXXXXX
 62
7
100
AcDbSpline
 70
8
 71
3
 72
8
 73
4
 74
0
 40
0
 40
0
 40
0
 40
0
 40
1
 40
1
 40
1
 40
1
 10
153.071923
 20
72.117797
 30
0.0
 10
153.959230
 20
76.581253
 30
0.0
 10
158.297444
 20
79.479924
 30
0.0
 10
162.760905
 20
78.592622
 30
0.0
  0
SPLINE
  5
146
100
AcDbEntity
  8
ink_ext_XXXXXX
 62
7
100
AcDbSpline
 70
8
 71
3
 72
8
 73
4
 74
0
 40
0
 40
0
 40
0
 40
0
 40
1
 40
1
 40
1
 40
1
 10
162.760905
 20
78.592622
 30
0.0
 10
167.224214
 20
77.704790
 30
0.0
 10
174.648221
 20
72.467146
 30
0.0
 10
173.760242
 20
68.003307
 30
0.0
  0
SPLINE
  5
147
100
AcDbEntity
  8
ink_ext_XXXXXX
 62
7
100
AcDbSpline
 70
8
 71
3
 72
8
 73
4
 74
0
 40
0
 40
0
 40
0
 40
0
 40
1
 40
1
 40
1
 40
1
 10
173.760242
 20
68.003307
 30
0.0
 10
172.872935
 20
63.539846
 30
0.0
 10
164.009532
 20
61.541130
 30
0.0
 10
159.546223
 20
62.428962
 30
0.0
  0
SPLINE
  5
148
100
AcDbEntity
  8
ink_ext_XXXXXX
 62
7
100
AcDbSpline
 70
8
 71
3
 72
8
 73
4
 74
0
 40
0
 40
0
 40
0
 40
0
 40
1
 40
1
 40
1
 40
1
 10
212.037306
 20
74.587092
 30
0.0
 10
216.049899
 20
76.734684
 30
0.0
 10
221.043639
 20
75.222788
 30
0.0
 10
223.190685
 20
71.210195
 30
0.0
  0
SPLINE
  5
149
100
AcDbEntity
  8
ink_ext_XXXXXX
 62
7
100
AcDbSpline
 70
8
 71
3
 72
8
 73
4
 74
0
 40
0
 40
0
 40
0
 40
0
 40
1
 40
1
 40
1
 40
1
 10
223.190685
 20
71.210195
 30
0.0
 10
225.338278
 20
67.197602
 30
0.0
 10
223.825835
 20
62.204408
 30
0.0
 10
219.813788
 20
60.056815
 30
0.0
  0
SPLINE
  5
14a
100
AcDbEntity
  8
ink_ext_XXXXXX
 62
7
100
AcDbSpline
 70
8
 71
3
 72
8
 73
4
 74
0
 40
0
 40
0
 40
0
 40
0
 40
1
 40
1
 40
1
 40
1
 10
219.813788
 20
60.056815
 30
0.0
 10
215.801196
 20
57.909769
 30
0.0
 10
206.740202
 20
57.244557
 30
0.0
 10
204.592610
 20
61.257150
 30
0.0
  0
SPLINE
  5
14b
100
AcDbEntity
  8
ink_ext_XXXXXX
 62
7
100
AcDbSpline
 70
8
 71
3
 72
8
 73
4
 74
0
 40
0
 40
0
 40
0
 40
0
 40
1
 40
1
 40
1
 40
1
 10
204.592610
 20
61.257150
 30
0.0
 10
202.445564
 20
65.269743
 30
0.0
 10
208.025260
 20
72.440045
 30
0.0
 10
212.037306
 20
74.587092
 30
0.0
  0
SPLINE
  5
14c
100
AcDbEntity
  8
ink_ext_XXXXXX
 62
7
100
AcDbSpline
 70
8
 71
3
 72
8
 73
4
 74
0
 40
0
 40
0
 40
0
 40
0
 40
1
 40
1
 40
1
 40
1
 10
146.387176
 20
61.056148
 30
0.0
 10
150.399769
 20
63.203741
 30
0.0
 10
155.393509
 20
61.691845
 30
0.0
 10
157.540555
 20
57.679252
 30
0.0
  0
SPLINE
  5
14d
100
AcDbEntity
  8
ink_ext_XXXXXX
 62
7
100
AcDbSpline
 70
8
 71
3
 72
8
 73
4
 74
0
 40
0
 40
0
 40
0
 40
0
 40
1
 40
1
 40
1
 40
1
 10
157.540555
 20
57.679252
 30
0.0
 10
159.688148
 20
53.666659
 30
0.0
 10
158.175705
 20
48.673465
 30
0.0
 10
154.163659
 20
46.525872
 30
0.0
  0
SPLINE
  5
14e
100
AcDbEntity
  8
ink_ext_XXXXXX
 62
7
100
AcDbSpline
 70
8
 71
3
 72
8
 73
4
 74
0
 40
0
 40
0
 40
0
 40
0
 40
1
 40
1
 40
1
 40
1
 10
154.163659
 20
46.525872
 30
0.0
 10
150.151066
 20
44.378826
 30
0.0
 10
141.090072
 20
43.713614
 30
0.0
 10
138.942480
 20
47.726207
 30
0.0
  0
SPLINE
  5
14f
100
AcDbEntity
  8
ink_ext_XXXXXX
 62
7
100
AcDbSpline
 70
8
 71
3
 72
8
 73
4
 74
0
 40
0
 40
0
 40
0
 40
0
 40
1
 40
1
 40
1
 40
1
 10
138.942480
 20
47.726207
 30
0.0
 10
136.795434
 20
51.738800
 30
0.0
 10
142.375130
 20
58.909102
 30
0.0
 10
146.387176
 20
61.056148
 30
0.0
  0
SPLINE
  5
150
100
AcDbEntity
  8
ink_ext_XXXXXX
 62
7
100
AcDbSpline
 70
8
 71
3
 72
8
 73
4
 74
0
 40
0
 40
0
 40
0
 40
0
 40
1
 40
1
 40
1
 40
1
 10
124.792490
 20
37.757813
 30
0.0
 10
125.778808
 20
42.200810
 30
0.0
 10
130.180105
 20
45.002929
 30
0.0
 10
134.622747
 20
44.016195
 30
0.0
  0
SPLINE
  5
151
100
AcDbEntity
  8
ink_ext_XXXXXX
 62
7
100
AcDbSpline
 70
8
 71
3
 72
8
 73
4
 74
0
 40
0
 40
0
 40
0
 40
0
 40
1
 40
1
 40
1
 40
1
 10
134.622747
 20
44.016195
 30
0.0
 10
139.065744
 20
43.029871
 30
0.0
 10
141.867092
 20
38.628520
 30
0.0
 10
140.881129
 20
34.185939
 30
0.0
  0
SPLINE
  5
152
100
AcDbEntity
  8
ink_ext_XXXXXX
 62
7
100
AcDbSpline
 70
8
 71
3
 72
8
 73
4
 74
0
 40
0
 40
0
 40
0
 40
0
 40
1
 40
1
 40
1
 40
1
 10
140.881129
 20
34.185939
 30
0.0
 10
139.894390
 20
29.743297
 30
0.0
 10
134.493541
 20
22.437481
 30
0.0
 10
130.050545
 20
23.423805
 30
0.0
  0
SPLINE
  5
153
100
AcDbEntity
  8
ink_ext_XXXXXX
 62
7
100
AcDbSpline
 70
8
 71
3
 72
8
 73
4
 74
0
 40
0
 40
0
 40
0
 40
0
 40
1
 40
1
 40
1
 40
1
 10
130.050545
 20
23.423805
 30
0.0
 10
125.607903
 20
24.410539
 30
0.0
 10
123.806106
 20
33.315587
 30
0.0
 10
124.792490
 20
37.757813
 30
0.0
  0
SPLINE
  5
154
100
AcDbEntity
  8
ink_ext_XXXXXX
 62
7
100
AcDbSpline
 70
8
 71
3
 72
8
 73
4
 74
0
 40
0
 40
0
 40
0
 40
0
 40
1
 40
1
 40
1
 40
1
 10
226.682395
 20
94.075306
 30
0.0
 10
231.173548
 20
93.338909
 30
0.0
 10
234.216996
 20
89.100527
 30
0.0
 10
233.480245
 20
84.609790
 30
0.0
  0
SPLINE
  5
155
100
AcDbEntity
  8
ink_ext_XXXXXX
 62
7
100
AcDbSpline
 70
8
 71
3
 72
8
 73
4
 74
0
 40
0
 40
0
 40
0
 40
0
 40
1
 40
1
 40
1
 40
1
 10
233.480245
 20
84.609790
 30
0.0
 10
232.743493
 20
80.119047
 30
0.0
 10
228.505881
 20
77.075544
 30
0.0
 10
224.015144
 20
77.812301
 30
0.0
  0
SPLINE
  5
156
100
AcDbEntity
  8
ink_ext_XXXXXX
 62
7
100
AcDbSpline
 70
8
 71
3
 72
8
 73
4
 74
0
 40
0
 40
0
 40
0
 40
0
 40
1
 40
1
 40
1
 40
1
 10
224.015144
 20
77.812301
 30
0.0
 10
219.524402
 20
78.549053
 30
0.0
 10
211.928101
 20
83.533321
 30
0.0
 10
212.664497
 20
88.024473
 30
0.0
  0
SPLINE
  5
157
100
AcDbEntity
  8
ink_ext_XXXXXX
 62
7
100
AcDbSpline
 70
8
 71
3
 72
8
 73
4
 74
0
 40
0
 40
0
 40
0
 40
0
 40
1
 40
1
 40
1
 40
1
 10
212.664497
 20
88.024473
 30
0.0
 10
213.401249
 20
92.515215
 30
0.0
 10
222.191658
 20
94.812057
 30
0.0
 10
226.682395
 20
94.075306
 30
0.0
  0
SPLINE
  5
158
100
AcDbEntity
  8
ink_ext_XXXXXX
 62
7
100
AcDbSpline
 70
8
 71
3
 72
8
 73
4
 74
0
 40
0
 40
0
 40
0
 40
0
 40
1
 40
1
 40
1
 40
1
 10
192.535328
 20
74.717128
 30
0.0
 10
197.085229
 20
74.799664
 30
0.0
 10
200.840920
 20
71.177891
 30
0.0
 10
200.923457
 20
66.627990
 30
0.0
  0
SPLINE
  5
159
100
AcDbEntity
  8
ink_ext_XXXXXX
 62
7
100
AcDbSpline
 70
8
 71
3
 72
8
 73
4
 74
0
 40
0
 40
0
 40
0
 40
0
 40
1
 40
1
 40
1
 40
1
 10
200.923457
 20
66.627990
 30
0.0
 10
201.005993
 20
62.077542
 30
0.0
 10
197.384220
 20
58.322398
 30
0.0
 10
192.833772
 20
58.239861
 30
0.0
  0
SPLINE
  5
15a
100
AcDbEntity
  8
ink_ext_XXXXXX
 62
7
100
AcDbSpline
 70
8
 71
3
 72
8
 73
4
 74
0
 40
0
 40
0
 40
0
 40
0
 40
1
 40
1
 40
1
 40
1
 10
192.833772
 20
58.239861
 30
0.0
 10
188.283871
 20
58.157325
 30
0.0
 10
179.915420
 20
61.695469
 30
0.0
 10
179.832884
 20
66.245370
 30
0.0
  0
SPLINE
  5
15b
100
AcDbEntity
  8
ink_ext_XXXXXX
 62
7
100
AcDbSpline
 70
8
 71
3
 72
8
 73
4
 74
0
 40
0
 40
0
 40
0
 40
0
 40
1
 40
1
 40
1
 40
1
 10
179.832884
 20
66.245370
 30
0.0
 10
179.750347
 20
70.795817
 30
0.0
 10
187.984881
 20
74.634591
 30
0.0
 10
192.535328
 20
74.717128
 30
0.0
  0
SPLINE
  5
15c
100
AcDbEntity
  8
ink_ext_XXXXXX
 62
7
100
AcDbSpline
 70
8
 71
3
 72
8
 73
4
 74
0
 40
0
 40
0
 40
0
 40
0
 40
1
 40
1
 40
1
 40
1
 10
150.877973
 20
278.720852
 30
0.0
 10
150.677300
 20
278.714813
 30
0.0
 10
150.552440
 20
278.678764
 30
0.0
 10
150.549160
 20
278.603846
 30
0.0
  0
SPLINE
  5
15d
100
AcDbEntity
  8
ink_ext_XXXXXX
 62
7
100
AcDbSpline
 70
8
 71
3
 72
8
 73
4
 74
0
 40
0
 40
0
 40
0
 40
0
 40
1
 40
1
 40
1
 40
1
 10
150.549160
 20
278.603846
 30
0.0
 10
150.190825
 20
270.740891
 30
0.0
 10
146.636863
 20
263.183357
 30
0.0
 10
142.713131
 20
262.156301
 30
0.0
  0
SPLINE
  5
15e
100
AcDbEntity
  8
ink_ext_XXXXXX
 62
7
100
AcDbSpline
 70
8
 71
3
 72
8
 73
4
 74
0
 40
0
 40
0
 40
0
 40
0
 40
1
 40
1
 40
1
 40
1
 10
142.713131
 20
262.156301
 30
0.0
 10
138.789519
 20
263.183521
 30
0.0
 10
135.236792
 20
270.740994
 30
0.0
 10
134.877960
 20
278.603846
 30
0.0
  0
SPLINE
  5
15f
100
AcDbEntity
  8
ink_ext_XXXXXX
 62
7
100
AcDbSpline
 70
8
 71
3
 72
8
 73
4
 74
0
 40
0
 40
0
 40
0
 40
0
 40
1
 40
1
 40
1
 40
1
 10
134.877960
 20
278.603846
 30
0.0
 10
134.874899
 20
278.678768
 30
0.0
 10
134.749809
 20
278.713975
 30
0.0
 10
134.549142
 20
278.719998
 30
0.0
  0
SPLINE
  5
160
100
AcDbEntity
  8
ink_ext_XXXXXX
 62
7
100
AcDbSpline
 70
8
 71
3
 72
8
 73
4
 74
0
 40
0
 40
0
 40
0
 40
0
 40
1
 40
1
 40
1
 40
1
 10
134.549142
 20
278.719998
 30
0.0
 10
133.679561
 20
278.746060
 30
0.0
 10
131.385698
 20
278.222864
 30
0.0
 10
131.385698
 20
277.991482
 30
0.0
  0
SPLINE
  5
161
100
AcDbEntity
  8
ink_ext_XXXXXX
 62
7
100
AcDbSpline
 70
8
 71
3
 72
8
 73
4
 74
0
 40
0
 40
0
 40
0
 40
0
 40
1
 40
1
 40
1
 40
1
 10
131.385698
 20
277.991482
 30
0.0
 10
131.385698
 20
268.804224
 30
0.0
 10
128.226725
 20
260.269675
 30
0.0
 10
124.706073
 20
260.269675
 30
0.0
  0
SPLINE
  5
162
100
AcDbEntity
  8
ink_ext_XXXXXX
 62
7
100
AcDbSpline
 70
8
 71
3
 72
8
 73
4
 74
0
 40
0
 40
0
 40
0
 40
0
 40
1
 40
1
 40
1
 40
1
 10
124.706073
 20
260.269675
 30
0.0
 10
121.633632
 20
260.269675
 30
0.0
 10
119.095488
 20
265.962961
 30
0.0
 10
118.495321
 20
273.515338
 30
0.0
  0
SPLINE
  5
163
100
AcDbEntity
  8
ink_ext_XXXXXX
 62
7
100
AcDbSpline
 70
8
 71
3
 72
8
 73
4
 74
0
 40
0
 40
0
 40
0
 40
0
 40
1
 40
1
 40
1
 40
1
 10
118.495321
 20
273.515338
 30
0.0
 10
118.467991
 20
273.860789
 30
0.0
 10
115.964327
 20
273.204118
 30
0.0
 10
115.066262
 20
272.758639
 30
0.0
  0
SPLINE
  5
164
100
AcDbEntity
  8
ink_ext_XXXXXX
 62
7
100
AcDbSpline
 70
8
 71
3
 72
8
 73
4
 74
0
 40
0
 40
0
 40
0
 40
0
 40
1
 40
1
 40
1
 40
1
 10
115.066262
 20
272.758639
 30
0.0
 10
114.449151
 20
269.969883
 30
0.0
 10
112.785671
 20
257.559221
 30
0.0
 10
121.805669
 20
247.578300
 30
0.0
  0
SPLINE
  5
165
100
AcDbEntity
  8
ink_ext_XXXXXX
 62
7
100
AcDbSpline
 70
8
 71
3
 72
8
 73
4
 74
0
 40
0
 40
0
 40
0
 40
0
 40
1
 40
1
 40
1
 40
1
 10
121.805669
 20
247.578300
 30
0.0
 10
123.559163
 20
246.180643
 30
0.0
 10
124.615539
 20
244.481329
 30
0.0
 10
124.615539
 20
242.633273
 30
0.0
  0
SPLINE
  5
166
100
AcDbEntity
  8
ink_ext_XXXXXX
 62
7
100
AcDbSpline
 70
8
 71
3
 72
8
 73
4
 74
0
 40
0
 40
0
 40
0
 40
0
 40
1
 40
1
 40
1
 40
1
 10
124.615539
 20
242.633273
 30
0.0
 10
124.615539
 20
238.975424
 30
0.0
 10
120.550440
 20
235.878354
 30
0.0
 10
114.864703
 20
234.658888
 30
0.0
  0
SPLINE
  5
167
100
AcDbEntity
  8
ink_ext_XXXXXX
 62
7
100
AcDbSpline
 70
8
 71
3
 72
8
 73
4
 74
0
 40
0
 40
0
 40
0
 40
0
 40
1
 40
1
 40
1
 40
1
 10
114.848475
 20
234.634975
 30
0.0
 10
63.987190
 20
222.145485
 30
0.0
 10
26.253955
 20
176.252743
 30
0.0
 10
26.253955
 20
121.539102
 30
0.0
  0
SPLINE
  5
168
100
AcDbEntity
  8
ink_ext_XXXXXX
 62
7
100
AcDbSpline
 70
8
 71
3
 72
8
 73
4
 74
0
 40
0
 40
0
 40
0
 40
0
 40
1
 40
1
 40
1
 40
1
 10
26.253955
 20
121.539102
 30
0.0
 10
26.253955
 20
57.220118
 30
0.0
 10
78.394126
 20
5.079926
 30
0.0
 10
142.713131
 20
5.079926
 30
0.0
  0
SPLINE
  5
169
100
AcDbEntity
  8
ink_ext_XXXXXX
 62
7
100
AcDbSpline
 70
8
 71
3
 72
8
 73
4
 74
0
 40
0
 40
0
 40
0
 40
0
 40
1
 40
1
 40
1
 40
1
 10
142.713131
 20
5.079926
 30
0.0
 10
207.032136
 20
5.079926
 30
0.0
 10
259.173159
 20
57.220118
 30
0.0
 10
259.173159
 20
121.539102
 30
0.0
  0
SPLINE
  5
16a
100
AcDbEntity
  8
ink_ext_XXXXXX
 62
7
100
AcDbSpline
 70
8
 71
3
 72
8
 73
4
 74
0
 40
0
 40
0
 40
0
 40
0
 40
1
 40
1
 40
1
 40
1
 10
259.173159
 20
121.539102
 30
0.0
 10
259.173159
 20
176.253268
 30
0.0
 10
221.438913
 20
222.146857
 30
0.0
 10
170.576940
 20
234.635827
 30
0.0
  0
LWPOLYLINE
  5
16b
100
AcDbEntity
  8
ink_ext_XXXXXX
 62
7
100
AcDbPolyline
 90
2
 70
1
 10
114.864703
 20
234.658888
 30
0.0
 10
114.848475
 20
234.634975
 30
0.0
  0
SPLINE
  5
16c
100
AcDbEntity
  8
ink_ext_XXXXXX
 62
7
100
AcDbSpline
 70
8
 71
3
 72
8
 73
4
 74
0
 40
0
 40
0
 40
0
 40
0
 40
1
 40
1
 40
1
 40
1
 10
170.561564
 20
234.658888
 30
0.0
 10
164.875828
 20
235.878354
 30
0.0
 10
160.811581
 20
238.975424
 30
0.0
 10
160.811581
 20
242.633273
 30
0.0
  0
SPLINE
  5
16d
100
AcDbEntity
  8
ink_ext_XXXXXX
 62
7
100
AcDbSpline
 70
8
 71
3
 72
8
 73
4
 74
0
 40
0
 40
0
 40
0
 40
0
 40
1
 40
1
 40
1
 40
1
 10
160.811581
 20
242.633273
 30
0.0
 10
160.811581
 20
244.481329
 30
0.0
 10
161.867411
 20
246.180643
 30
0.0
 10
163.621451
 20
247.578300
 30
0.0
  0
SPLINE
  5
16e
100
AcDbEntity
  8
ink_ext_XXXXXX
 62
7
100
AcDbSpline
 70
8
 71
3
 72
8
 73
4
 74
0
 40
0
 40
0
 40
0
 40
0
 40
1
 40
1
 40
1
 40
1
 10
163.621451
 20
247.578300
 30
0.0
 10
172.640903
 20
257.559221
 30
0.0
 10
170.977429
 20
269.969883
 30
0.0
 10
170.360863
 20
272.758639
 30
0.0
  0
SPLINE
  5
16f
100
AcDbEntity
  8
ink_ext_XXXXXX
 62
7
100
AcDbSpline
 70
8
 71
3
 72
8
 73
4
 74
0
 40
0
 40
0
 40
0
 40
0
 40
1
 40
1
 40
1
 40
1
 10
170.360863
 20
272.758639
 30
0.0
 10
169.462252
 20
273.204118
 30
0.0
 10
166.958276
 20
273.860790
 30
0.0
 10
166.930946
 20
273.515338
 30
0.0
  0
SPLINE
  5
170
100
AcDbEntity
  8
ink_ext_XXXXXX
 62
7
100
AcDbSpline
 70
8
 71
3
 72
8
 73
4
 74
0
 40
0
 40
0
 40
0
 40
0
 40
1
 40
1
 40
1
 40
1
 10
166.930946
 20
273.515338
 30
0.0
 10
166.330779
 20
265.962961
 30
0.0
 10
163.792635
 20
260.269675
 30
0.0
 10
160.720195
 20
260.269675
 30
0.0
  0
SPLINE
  5
171
100
AcDbEntity
  8
ink_ext_XXXXXX
 62
7
100
AcDbSpline
 70
8
 71
3
 72
8
 73
4
 74
0
 40
0
 40
0
 40
0
 40
0
 40
1
 40
1
 40
1
 40
1
 10
160.720195
 20
260.269675
 30
0.0
 10
157.199559
 20
260.269675
 30
0.0
 10
154.041422
 20
268.804224
 30
0.0
 10
154.041422
 20
277.991482
 30
0.0
  0
SPLINE
  5
172
100
AcDbEntity
  8
ink_ext_XXXXXX
 62
7
100
AcDbSpline
 70
8
 71
3
 72
8
 73
4
 74
0
 40
0
 40
0
 40
0
 40
0
 40
1
 40
1
 40
1
 40
1
 10
154.041422
 20
277.991482
 30
0.0
 10
154.041422
 20
278.222865
 30
0.0
 10
151.747570
 20
278.747023
 30
0.0
 10
150.877973
 20
278.720852
 30
0.0
  0
LWPOLYLINE
  5
173
100
AcDbEntity
  8
ink_ext_XXXXXX
 62
7
100
AcDbPolyline
 90
2
 70
1
 10
170.576940
 20
234.635827
 30
0.0
 10
170.561564
 20
234.658888
 30
0.0
  0
SPLINE
  5
174
100
AcDbEntity
  8
ink_ext_XXXXXX
 62
7
100
AcDbSpline
 70
8
 71
3
 72
8
 73
4
 74
0
 40
0
 40
0
 40
0
 40
0
 40
1
 40
1
 40
1
 40
1
 10
184.311125
 20
202.312962
 30
0.0
 10
184.727444
 20
202.310120
 30
0.0
 10
185.144368
 20
202.301363
 30
0.0
 10
185.562326
 20
202.286485
 30
0.0
  0
SPLINE
  5
175
100
AcDbEntity
  8
ink_ext_XXXXXX
 62
7
100
AcDbSpline
 70
8
 71
3
 72
8
 73
4
 74
0
 40
0
 40
0
 40
0
 40
0
 40
1
 40
1
 40
1
 40
1
 10
185.562326
 20
202.286485
 30
0.0
 10
203.460371
 20
202.171836
 30
0.0
 10
219.359706
 20
191.057341
 30
0.0
 10
228.947015
 20
176.483534
 30
0.0
  0
SPLINE
  5
176
100
AcDbEntity
  8
ink_ext_XXXXXX
 62
7
100
AcDbSpline
 70
8
 71
3
 72
8
 73
4
 74
0
 40
0
 40
0
 40
0
 40
0
 40
1
 40
1
 40
1
 40
1
 10
228.947015
 20
176.483534
 30
0.0
 10
247.700822
 20
150.362850
 30
0.0
 10
253.046388
 20
114.748210
 30
0.0
 10
240.781770
 20
84.755464
 30
0.0
  0
SPLINE
  5
177
100
AcDbEntity
  8
ink_ext_XXXXXX
 62
7
100
AcDbSpline
 70
8
 71
3
 72
8
 73
4
 74
0
 40
0
 40
0
 40
0
 40
0
 40
1
 40
1
 40
1
 40
1
 10
240.781770
 20
84.755464
 30
0.0
 10
226.663630
 20
47.582691
 30
0.0
 10
190.264368
 20
18.473377
 30
0.0
 10
149.814666
 20
17.743119
 30
0.0
  0
SPLINE
  5
178
100
AcDbEntity
  8
ink_ext_XXXXXX
 62
7
100
AcDbSpline
 70
8
 71
3
 72
8
 73
4
 74
0
 40
0
 40
0
 40
0
 40
0
 40
1
 40
1
 40
1
 40
1
 10
149.814666
 20
17.743119
 30
0.0
 10
144.575130
 20
17.600456
 30
0.0
 10
139.335917
 20
17.854456
 30
0.0
 10
134.104176
 20
18.114638
 30
0.0
  0
SPLINE
  5
179
100
AcDbEntity
  8
ink_ext_XXXXXX
 62
7
100
AcDbSpline
 70
8
 71
3
 72
8
 73
4
 74
0
 40
0
 40
0
 40
0
 40
0
 40
1
 40
1
 40
1
 40
1
 10
134.104176
 20
18.114638
 30
0.0
 10
105.195174
 20
21.092844
 30
0.0
 10
76.841901
 20
36.013147
 30
0.0
 10
60.686364
 20
60.602558
 30
0.0
  0
SPLINE
  5
17a
100
AcDbEntity
  8
ink_ext_XXXXXX
 62
7
100
AcDbSpline
 70
8
 71
3
 72
8
 73
4
 74
0
 40
0
 40
0
 40
0
 40
0
 40
1
 40
1
 40
1
 40
1
 10
60.686364
 20
60.602558
 30
0.0
 10
74.464786
 20
45.646808
 30
0.0
 10
96.596736
 20
36.819306
 30
0.0
 10
116.466073
 20
44.000431
 30
0.0
  0
SPLINE
  5
17b
100
AcDbEntity
  8
ink_ext_XXXXXX
 62
7
100
AcDbSpline
 70
8
 71
3
 72
8
 73
4
 74
0
 40
0
 40
0
 40
0
 40
0
 40
1
 40
1
 40
1
 40
1
 10
116.466073
 20
44.000431
 30
0.0
 10
141.302279
 20
51.953575
 30
0.0
 10
158.921432
 20
80.708889
 30
0.0
 10
150.231449
 20
106.216353
 30
0.0
  0
SPLINE
  5
17c
100
AcDbEntity
  8
ink_ext_XXXXXX
 62
7
100
AcDbSpline
 70
8
 71
3
 72
8
 73
4
 74
0
 40
0
 40
0
 40
0
 40
0
 40
1
 40
1
 40
1
 40
1
 10
150.231449
 20
106.216353
 30
0.0
 10
144.893000
 20
121.786919
 30
0.0
 10
132.407327
 20
135.630326
 30
0.0
 10
134.334776
 20
153.079645
 30
0.0
  0
SPLINE
  5
17d
100
AcDbEntity
  8
ink_ext_XXXXXX
 62
7
100
AcDbSpline
 70
8
 71
3
 72
8
 73
4
 74
0
 40
0
 40
0
 40
0
 40
0
 40
1
 40
1
 40
1
 40
1
 10
134.334776
 20
153.079645
 30
0.0
 10
135.253332
 20
178.970035
 30
0.0
 10
158.083089
 20
202.492652
 30
0.0
 10
184.311125
 20
202.312962
 30
0.0
  0
LWPOLYLINE
  5
17e
100
AcDbEntity
  8
ink_ext_XXXXXX
 62
7
100
AcDbPolyline
 90
2
 70
1
 10
150.877973
 20
278.720852
 30
0.0
 10
150.877973
 20
278.720852
 30
0.0
  0
SPLINE
  5
17f
100
AcDbEntity
  8
ink_ext_XXXXXX
 62
7
100
AcDbSpline
 70
8
 71
3
 72
8
 73
4
 74
0
 40
0
 40
0
 40
0
 40
0
 40
1
 40
1
 40
1
 40
1
 10
78.853197
 20
163.934768
 30
0.0
 10
78.568681
 20
163.934485
 30
0.0
 10
78.284307
 20
163.927359
 30
0.0
 10
77.999933
 20
163.914306
 30
0.0
  0
SPLINE
  5
180
100
AcDbEntity
  8
ink_ext_XXXXXX
 62
7
100
AcDbSpline
 70
8
 71
3
 72
8
 73
4
 74
0
 40
0
 40
0
 40
0
 40
0
 40
1
 40
1
 40
1
 40
1
 10
77.999933
 20
163.914306
 30
0.0
 10
61.942194
 20
163.556943
 30
0.0
 10
48.228452
 20
151.692603
 30
0.0
 10
41.395358
 20
137.801060
 30
0.0
  0
SPLINE
  5
181
100
AcDbEntity
  8
ink_ext_XXXXXX
 62
7
100
AcDbSpline
 70
8
 71
3
 72
8
 73
4
 74
0
 40
0
 40
0
 40
0
 40
0
 40
1
 40
1
 40
1
 40
1
 10
41.395358
 20
137.801060
 30
0.0
 10
36.418651
 20
127.555476
 30
0.0
 10
35.009092
 20
114.030541
 30
0.0
 10
42.384229
 20
104.546251
 30
0.0
  0
SPLINE
  5
182
100
AcDbEntity
  8
ink_ext_XXXXXX
 62
7
100
AcDbSpline
 70
8
 71
3
 72
8
 73
4
 74
0
 40
0
 40
0
 40
0
 40
0
 40
1
 40
1
 40
1
 40
1
 10
42.384229
 20
104.546251
 30
0.0
 10
48.374255
 20
97.141587
 30
0.0
 10
60.190088
 20
95.317832
 30
0.0
 10
68.404377
 20
98.613517
 30
0.0
  0
SPLINE
  5
183
100
AcDbEntity
  8
ink_ext_XXXXXX
 62
7
100
AcDbSpline
 70
8
 71
3
 72
8
 73
4
 74
0
 40
0
 40
0
 40
0
 40
0
 40
1
 40
1
 40
1
 40
1
 10
68.404377
 20
98.613517
 30
0.0
 10
74.031253
 20
100.871154
 30
0.0
 10
80.045092
 20
105.097678
 30
0.0
 10
83.249160
 20
108.282909
 30
0.0
  0
SPLINE
  5
184
100
AcDbEntity
  8
ink_ext_XXXXXX
 62
7
100
AcDbSpline
 70
8
 71
3
 72
8
 73
4
 74
0
 40
0
 40
0
 40
0
 40
0
 40
1
 40
1
 40
1
 40
1
 10
83.249160
 20
108.282909
 30
0.0
 10
83.638380
 20
106.083198
 30
0.0
 10
84.529320
 20
103.987734
 30
0.0
 10
86.038821
 20
102.236121
 30
0.0
  0
SPLINE
  5
185
100
AcDbEntity
  8
ink_ext_XXXXXX
 62
7
100
AcDbSpline
 70
8
 71
3
 72
8
 73
4
 74
0
 40
0
 40
0
 40
0
 40
0
 40
1
 40
1
 40
1
 40
1
 10
86.038821
 20
102.236121
 30
0.0
 10
88.130123
 20
100.165563
 30
0.0
 10
90.708188
 20
99.131113
 30
0.0
 10
93.775697
 20
99.131113
 30
0.0
  0
SPLINE
  5
186
100
AcDbEntity
  8
ink_ext_XXXXXX
 62
7
100
AcDbSpline
 70
8
 71
3
 72
8
 73
4
 74
0
 40
0
 40
0
 40
0
 40
0
 40
1
 40
1
 40
1
 40
1
 10
93.775697
 20
99.131113
 30
0.0
 10
96.843770
 20
99.131113
 30
0.0
 10
99.357840
 20
100.353981
 30
0.0
 10
101.315757
 20
102.801095
 30
0.0
  0
SPLINE
  5
187
100
AcDbEntity
  8
ink_ext_XXXXXX
 62
7
100
AcDbSpline
 70
8
 71
3
 72
8
 73
4
 74
0
 40
0
 40
0
 40
0
 40
0
 40
1
 40
1
 40
1
 40
1
 10
101.315757
 20
102.801095
 30
0.0
 10
102.446657
 20
100.390529
 30
0.0
 10
104.742147
 20
99.186216
 30
0.0
 10
108.204872
 20
99.186216
 30
0.0
  0
SPLINE
  5
188
100
AcDbEntity
  8
ink_ext_XXXXXX
 62
7
100
AcDbSpline
 70
8
 71
3
 72
8
 73
4
 74
0
 40
0
 40
0
 40
0
 40
0
 40
1
 40
1
 40
1
 40
1
 10
108.204872
 20
99.186216
 30
0.0
 10
108.204872
 20
99.186216
 30
0.0
 10
111.812060
 20
99.300869
 30
0.0
 10
114.680002
 20
101.988048
 30
0.0
  0
SPLINE
  5
189
100
AcDbEntity
  8
ink_ext_XXXXXX
 62
7
100
AcDbSpline
 70
8
 71
3
 72
8
 73
4
 74
0
 40
0
 40
0
 40
0
 40
0
 40
1
 40
1
 40
1
 40
1
 10
114.680002
 20
101.988048
 30
0.0
 10
114.930475
 20
101.775746
 30
0.0
 10
115.199503
 20
101.560058
 30
0.0
 10
115.506278
 20
101.338161
 30
0.0
  0
SPLINE
  5
18a
100
AcDbEntity
  8
ink_ext_XXXXXX
 62
7
100
AcDbSpline
 70
8
 71
3
 72
8
 73
4
 74
0
 40
0
 40
0
 40
0
 40
0
 40
1
 40
1
 40
1
 40
1
 10
115.506278
 20
101.338161
 30
0.0
 10
117.176152
 20
100.130179
 30
0.0
 10
119.444019
 20
99.525236
 30
0.0
 10
122.304941
 20
99.525236
 30
0.0
  0
SPLINE
  5
18b
100
AcDbEntity
  8
ink_ext_XXXXXX
 62
7
100
AcDbSpline
 70
8
 71
3
 72
8
 73
4
 74
0
 40
0
 40
0
 40
0
 40
0
 40
1
 40
1
 40
1
 40
1
 10
122.304941
 20
99.525236
 30
0.0
 10
125.168050
 20
99.525236
 30
0.0
 10
127.716376
 20
100.332003
 30
0.0
 10
129.951964
 20
101.943386
 30
0.0
  0
SPLINE
  5
18c
100
AcDbEntity
  8
ink_ext_XXXXXX
 62
7
100
AcDbSpline
 70
8
 71
3
 72
8
 73
4
 74
0
 40
0
 40
0
 40
0
 40
0
 40
1
 40
1
 40
1
 40
1
 10
129.951964
 20
101.943386
 30
0.0
 10
132.190304
 20
103.554240
 30
0.0
 10
133.307198
 20
105.630408
 30
0.0
 10
133.307198
 20
108.168821
 30
0.0
  0
SPLINE
  5
18d
100
AcDbEntity
  8
ink_ext_XXXXXX
 62
7
100
AcDbSpline
 70
8
 71
3
 72
8
 73
4
 74
0
 40
0
 40
0
 40
0
 40
0
 40
1
 40
1
 40
1
 40
1
 10
133.307198
 20
108.168821
 30
0.0
 10
133.217698
 20
110.766535
 30
0.0
 10
131.015765
 20
113.726976
 30
0.0
 10
129.007190
 20
116.109072
 30
0.0
  0
SPLINE
  5
18e
100
AcDbEntity
  8
ink_ext_XXXXXX
 62
7
100
AcDbSpline
 70
8
 71
3
 72
8
 73
4
 74
0
 40
0
 40
0
 40
0
 40
0
 40
1
 40
1
 40
1
 40
1
 10
129.007190
 20
116.109072
 30
0.0
 10
128.864138
 20
116.278688
 30
0.0
 10
128.721863
 20
116.445093
 30
0.0
 10
128.581634
 20
116.608465
 30
0.0
  0
LWPOLYLINE
  5
18f
100
AcDbEntity
  8
ink_ext_XXXXXX
 62
7
100
AcDbPolyline
 90
2
 70
1
 10
184.311125
 20
202.312962
 30
0.0
 10
184.311125
 20
202.312962
 30
0.0
  0
SPLINE
  5
190
100
AcDbEntity
  8
ink_ext_XXXXXX
 62
7
100
AcDbSpline
 70
8
 71
3
 72
8
 73
4
 74
0
 40
0
 40
0
 40
0
 40
0
 40
1
 40
1
 40
1
 40
1
 10
126.596730
 20
118.445696
 30
0.0
 10
124.823528
 20
120.056515
 30
0.0
 10
123.938197
 20
121.308981
 30
0.0
 10
123.938197
 20
122.194489
 30
0.0
  0
SPLINE
  5
191
100
AcDbEntity
  8
ink_ext_XXXXXX
 62
7
100
AcDbSpline
 70
8
 71
3
 72
8
 73
4
 74
0
 40
0
 40
0
 40
0
 40
0
 40
1
 40
1
 40
1
 40
1
 10
123.938197
 20
122.194489
 30
0.0
 10
123.967124
 20
123.402753
 30
0.0
 10
125.783118
 20
124.370881
 30
0.0
 10
127.142971
 20
124.068621
 30
0.0
  0
SPLINE
  5
192
100
AcDbEntity
  8
ink_ext_XXXXXX
 62
7
100
AcDbSpline
 70
8
 71
3
 72
8
 73
4
 74
0
 40
0
 40
0
 40
0
 40
0
 40
1
 40
1
 40
1
 40
1
 10
127.142971
 20
124.068621
 30
0.0
 10
128.476718
 20
123.772146
 30
0.0
 10
131.957647
 20
121.261603
 30
0.0
 10
132.092337
 20
121.164272
 30
0.0
  0
LWPOLYLINE
  5
193
100
AcDbEntity
  8
ink_ext_XXXXXX
 62
7
100
AcDbPolyline
 90
2
 70
1
 10
128.581634
 20
116.608465
 30
0.0
 10
126.596730
 20
118.445696
 30
0.0
  0
SPLINE
  5
194
100
AcDbEntity
  8
ink_ext_XXXXXX
 62
7
100
AcDbSpline
 70
8
 71
3
 72
8
 73
4
 74
0
 40
0
 40
0
 40
0
 40
0
 40
1
 40
1
 40
1
 40
1
 10
132.113857
 20
121.110791
 30
0.0
 10
134.751488
 20
119.827068
 30
0.0
 10
136.847609
 20
119.970543
 30
0.0
 10
138.383371
 20
120.551321
 30
0.0
  0
SPLINE
  5
195
100
AcDbEntity
  8
ink_ext_XXXXXX
 62
7
100
AcDbSpline
 70
8
 71
3
 72
8
 73
4
 74
0
 40
0
 40
0
 40
0
 40
0
 40
1
 40
1
 40
1
 40
1
 10
138.383371
 20
120.551321
 30
0.0
 10
137.611341
 20
112.557341
 30
0.0
 10
136.550457
 20
100.608193
 30
0.0
 10
134.656055
 20
84.289081
 30
0.0
  0
SPLINE
  5
196
100
AcDbEntity
  8
ink_ext_XXXXXX
 62
7
100
AcDbSpline
 70
8
 71
3
 72
8
 73
4
 74
0
 40
0
 40
0
 40
0
 40
0
 40
1
 40
1
 40
1
 40
1
 10
134.656055
 20
84.289081
 30
0.0
 10
134.656055
 20
84.289081
 30
0.0
 10
139.657092
 20
83.074926
 30
0.0
 10
142.053367
 20
87.536295
 30
0.0
  0
LWPOLYLINE
  5
197
100
AcDbEntity
  8
ink_ext_XXXXXX
 62
7
100
AcDbPolyline
 90
2
 70
1
 10
132.092337
 20
121.164272
 30
0.0
 10
132.113857
 20
121.110791
 30
0.0
  0
SPLINE
  5
198
100
AcDbEntity
  8
ink_ext_XXXXXX
 62
7
100
AcDbSpline
 70
8
 71
3
 72
8
 73
4
 74
0
 40
0
 40
0
 40
0
 40
0
 40
1
 40
1
 40
1
 40
1
 10
143.310131
 20
99.526330
 30
0.0
 10
144.553115
 20
99.262275
 30
0.0
 10
145.700271
 20
99.131113
 30
0.0
 10
146.755232
 20
99.131113
 30
0.0
  0
SPLINE
  5
199
100
AcDbEntity
  8
ink_ext_XXXXXX
 62
7
100
AcDbSpline
 70
8
 71
3
 72
8
 73
4
 74
0
 40
0
 40
0
 40
0
 40
0
 40
1
 40
1
 40
1
 40
1
 10
146.755232
 20
99.131113
 30
0.0
 10
151.422080
 20
99.131113
 30
0.0
 10
155.207237
 20
100.420656
 30
0.0
 10
158.106957
 20
102.998968
 30
0.0
  0
SPLINE
  5
19a
100
AcDbEntity
  8
ink_ext_XXXXXX
 62
7
100
AcDbSpline
 70
8
 71
3
 72
8
 73
4
 74
0
 40
0
 40
0
 40
0
 40
0
 40
1
 40
1
 40
1
 40
1
 10
158.106957
 20
102.998968
 30
0.0
 10
161.005013
 20
105.577245
 30
0.0
 10
162.661812
 20
109.332176
 30
0.0
 10
163.075614
 20
114.265808
 30
0.0
  0
SPLINE
  5
19b
100
AcDbEntity
  8
ink_ext_XXXXXX
 62
7
100
AcDbSpline
 70
8
 71
3
 72
8
 73
4
 74
0
 40
0
 40
0
 40
0
 40
0
 40
1
 40
1
 40
1
 40
1
 10
163.075614
 20
114.265808
 30
0.0
 10
163.114412
 20
114.718422
 30
0.0
 10
163.132940
 20
115.150681
 30
0.0
 10
163.132940
 20
115.564489
 30
0.0
  0
SPLINE
  5
19c
100
AcDbEntity
  8
ink_ext_XXXXXX
 62
7
100
AcDbSpline
 70
8
 71
3
 72
8
 73
4
 74
0
 40
0
 40
0
 40
0
 40
0
 40
1
 40
1
 40
1
 40
1
 10
163.132940
 20
115.564489
 30
0.0
 10
163.132940
 20
116.673693
 30
0.0
 10
162.995851
 20
117.730157
 30
0.0
 10
162.723383
 20
118.735080
 30
0.0
  0
SPLINE
  5
19d
100
AcDbEntity
  8
ink_ext_XXXXXX
 62
7
100
AcDbSpline
 70
8
 71
3
 72
8
 73
4
 74
0
 40
0
 40
0
 40
0
 40
0
 40
1
 40
1
 40
1
 40
1
 10
162.723383
 20
118.735080
 30
0.0
 10
164.890920
 20
117.965071
 30
0.0
 10
166.370188
 20
118.748838
 30
0.0
 10
167.248312
 20
119.576208
 30
0.0
  0
LWPOLYLINE
  5
19e
100
AcDbEntity
  8
ink_ext_XXXXXX
 62
7
100
AcDbPolyline
 90
2
 70
1
 10
142.053367
 20
87.536295
 30
0.0
 10
143.310131
 20
99.526330
 30
0.0
  0
SPLINE
  5
19f
100
AcDbEntity
  8
ink_ext_XXXXXX
 62
7
100
AcDbSpline
 70
8
 71
3
 72
8
 73
4
 74
0
 40
0
 40
0
 40
0
 40
0
 40
1
 40
1
 40
1
 40
1
 10
165.787042
 20
107.036616
 30
0.0
 10
165.750064
 20
106.586189
 30
0.0
 10
165.731921
 20
106.151743
 30
0.0
 10
165.731921
 20
105.737970
 30
0.0
  0
SPLINE
  5
1a0
100
AcDbEntity
  8
ink_ext_XXXXXX
 62
7
100
AcDbSpline
 70
8
 71
3
 72
8
 73
4
 74
0
 40
0
 40
0
 40
0
 40
0
 40
1
 40
1
 40
1
 40
1
 10
165.731921
 20
105.737970
 30
0.0
 10
165.731921
 20
103.780053
 30
0.0
 10
166.343059
 20
102.180947
 30
0.0
 10
167.568016
 20
100.937970
 30
0.0
  0
SPLINE
  5
1a1
100
AcDbEntity
  8
ink_ext_XXXXXX
 62
7
100
AcDbSpline
 70
8
 71
3
 72
8
 73
4
 74
0
 40
0
 40
0
 40
0
 40
0
 40
1
 40
1
 40
1
 40
1
 10
167.568016
 20
100.937970
 30
0.0
 10
168.790222
 20
99.694463
 30
0.0
 10
170.663423
 20
99.073786
 30
0.0
 10
173.186553
 20
99.073786
 30
0.0
  0
SPLINE
  5
1a2
100
AcDbEntity
  8
ink_ext_XXXXXX
 62
7
100
AcDbSpline
 70
8
 71
3
 72
8
 73
4
 74
0
 40
0
 40
0
 40
0
 40
0
 40
1
 40
1
 40
1
 40
1
 10
173.186553
 20
99.073786
 30
0.0
 10
175.707436
 20
99.073786
 30
0.0
 10
177.874454
 20
99.995524
 30
0.0
 10
179.680423
 20
101.840869
 30
0.0
  0
SPLINE
  5
1a3
100
AcDbEntity
  8
ink_ext_XXXXXX
 62
7
100
AcDbSpline
 70
8
 71
3
 72
8
 73
4
 74
0
 40
0
 40
0
 40
0
 40
0
 40
1
 40
1
 40
1
 40
1
 10
179.680423
 20
101.840869
 30
0.0
 10
180.124559
 20
102.293977
 30
0.0
 10
180.536621
 20
102.782504
 30
0.0
 10
180.916799
 20
103.306026
 30
0.0
  0
SPLINE
  5
1a4
100
AcDbEntity
  8
ink_ext_XXXXXX
 62
7
100
AcDbSpline
 70
8
 71
3
 72
8
 73
4
 74
0
 40
0
 40
0
 40
0
 40
0
 40
1
 40
1
 40
1
 40
1
 10
180.916799
 20
103.306026
 30
0.0
 10
181.202444
 20
102.932328
 30
0.0
 10
181.513026
 20
102.574506
 30
0.0
 10
181.854412
 20
102.236121
 30
0.0
  0
SPLINE
  5
1a5
100
AcDbEntity
  8
ink_ext_XXXXXX
 62
7
100
AcDbSpline
 70
8
 71
3
 72
8
 73
4
 74
0
 40
0
 40
0
 40
0
 40
0
 40
1
 40
1
 40
1
 40
1
 10
181.854412
 20
102.236121
 30
0.0
 10
183.945728
 20
100.165563
 30
0.0
 10
186.523729
 20
99.131113
 30
0.0
 10
189.591828
 20
99.131113
 30
0.0
  0
SPLINE
  5
1a6
100
AcDbEntity
  8
ink_ext_XXXXXX
 62
7
100
AcDbSpline
 70
8
 71
3
 72
8
 73
4
 74
0
 40
0
 40
0
 40
0
 40
0
 40
1
 40
1
 40
1
 40
1
 10
189.591828
 20
99.131113
 30
0.0
 10
192.659337
 20
99.131113
 30
0.0
 10
195.174000
 20
100.353981
 30
0.0
 10
197.131903
 20
102.801095
 30
0.0
  0
SPLINE
  5
1a7
100
AcDbEntity
  8
ink_ext_XXXXXX
 62
7
100
AcDbSpline
 70
8
 71
3
 72
8
 73
4
 74
0
 40
0
 40
0
 40
0
 40
0
 40
1
 40
1
 40
1
 40
1
 10
197.131903
 20
102.801095
 30
0.0
 10
198.262287
 20
100.390529
 30
0.0
 10
200.557731
 20
99.186216
 30
0.0
 10
204.020989
 20
99.186216
 30
0.0
  0
SPLINE
  5
1a8
100
AcDbEntity
  8
ink_ext_XXXXXX
 62
7
100
AcDbSpline
 70
8
 71
3
 72
8
 73
4
 74
0
 40
0
 40
0
 40
0
 40
0
 40
1
 40
1
 40
1
 40
1
 10
204.020989
 20
99.186216
 30
0.0
 10
205.829145
 20
99.186216
 30
0.0
 10
207.653644
 20
99.910046
 30
0.0
 10
209.498969
 20
101.360210
 30
0.0
  0
SPLINE
  5
1a9
100
AcDbEntity
  8
ink_ext_XXXXXX
 62
7
100
AcDbSpline
 70
8
 71
3
 72
8
 73
4
 74
0
 40
0
 40
0
 40
0
 40
0
 40
1
 40
1
 40
1
 40
1
 10
209.498969
 20
101.360210
 30
0.0
 10
209.538765
 20
101.391607
 30
0.0
 10
209.577479
 20
101.426073
 30
0.0
 10
209.616923
 20
101.458317
 30
0.0
  0
LWPOLYLINE
  5
1aa
100
AcDbEntity
  8
ink_ext_XXXXXX
 62
7
100
AcDbPolyline
 90
2
 70
1
 10
167.248312
 20
119.576208
 30
0.0
 10
165.787042
 20
107.036616
 30
0.0
  0
SPLINE
  5
1ab
100
AcDbEntity
  8
ink_ext_XXXXXX
 62
7
100
AcDbSpline
 70
8
 71
3
 72
8
 73
4
 74
0
 40
0
 40
0
 40
0
 40
0
 40
1
 40
1
 40
1
 40
1
 10
217.009276
 20
99.469003
 30
0.0
 10
217.084707
 20
100.371973
 30
0.0
 10
217.800140
 20
105.981598
 30
0.0
 10
219.155710
 20
116.299784
 30
0.0
  0
SPLINE
  5
1ac
100
AcDbEntity
  8
ink_ext_XXXXXX
 62
7
100
AcDbSpline
 70
8
 71
3
 72
8
 73
4
 74
0
 40
0
 40
0
 40
0
 40
0
 40
1
 40
1
 40
1
 40
1
 10
219.155710
 20
116.299784
 30
0.0
 10
219.380906
 20
117.917164
 30
0.0
 10
219.918564
 20
119.263929
 30
0.0
 10
220.764151
 20
120.336902
 30
0.0
  0
SPLINE
  5
1ad
100
AcDbEntity
  8
ink_ext_XXXXXX
 62
7
100
AcDbSpline
 70
8
 71
3
 72
8
 73
4
 74
0
 40
0
 40
0
 40
0
 40
0
 40
1
 40
1
 40
1
 40
1
 10
220.764151
 20
120.336902
 30
0.0
 10
221.612472
 20
121.410440
 30
0.0
 10
222.648605
 20
121.945886
 30
0.0
 10
223.870800
 20
121.945886
 30
0.0
  0
SPLINE
  5
1ae
100
AcDbEntity
  8
ink_ext_XXXXXX
 62
7
100
AcDbSpline
 70
8
 71
3
 72
8
 73
4
 74
0
 40
0
 40
0
 40
0
 40
0
 40
1
 40
1
 40
1
 40
1
 10
223.870800
 20
121.945886
 30
0.0
 10
225.093546
 20
121.945886
 30
0.0
 10
225.969334
 20
121.607784
 30
0.0
 10
226.497890
 20
120.929992
 30
0.0
  0
SPLINE
  5
1af
100
AcDbEntity
  8
ink_ext_XXXXXX
 62
7
100
AcDbSpline
 70
8
 71
3
 72
8
 73
4
 74
0
 40
0
 40
0
 40
0
 40
0
 40
1
 40
1
 40
1
 40
1
 10
226.497890
 20
120.929992
 30
0.0
 10
227.023723
 20
120.252200
 30
0.0
 10
227.288335
 20
119.403946
 30
0.0
 10
227.288335
 20
118.388370
 30
0.0
  0
LWPOLYLINE
  5
1b0
100
AcDbEntity
  8
ink_ext_XXXXXX
 62
7
100
AcDbPolyline
 90
3
 70
1
 10
209.616923
 20
101.458317
 30
0.0
 10
209.384316
 20
99.469003
 30
0.0
 10
217.009276
 20
99.469003
 30
0.0
  0
SPLINE
  5
1b1
100
AcDbEntity
  8
ink_ext_XXXXXX
 62
7
100
AcDbSpline
 70
8
 71
3
 72
8
 73
4
 74
0
 40
0
 40
0
 40
0
 40
0
 40
1
 40
1
 40
1
 40
1
 10
225.932331
 20
105.795296
 30
0.0
 10
225.932331
 20
104.212347
 30
0.0
 10
226.498035
 20
102.706903
 30
0.0
 10
227.626218
 20
101.275366
 30
0.0
  0
SPLINE
  5
1b2
100
AcDbEntity
  8
ink_ext_XXXXXX
 62
7
100
AcDbSpline
 70
8
 71
3
 72
8
 73
4
 74
0
 40
0
 40
0
 40
0
 40
0
 40
1
 40
1
 40
1
 40
1
 10
227.626218
 20
101.275366
 30
0.0
 10
228.756585
 20
99.845946
 30
0.0
 10
230.486890
 20
99.131113
 30
0.0
 10
232.821418
 20
99.131113
 30
0.0
  0
SPLINE
  5
1b3
100
AcDbEntity
  8
ink_ext_XXXXXX
 62
7
100
AcDbSpline
 70
8
 71
3
 72
8
 73
4
 74
0
 40
0
 40
0
 40
0
 40
0
 40
1
 40
1
 40
1
 40
1
 10
232.821418
 20
99.131113
 30
0.0
 10
237.755580
 20
99.131113
 30
0.0
 10
241.218397
 20
102.442532
 30
0.0
 10
243.213486
 20
109.070062
 30
0.0
  0
SPLINE
  5
1b4
100
AcDbEntity
  8
ink_ext_XXXXXX
 62
7
100
AcDbSpline
 70
8
 71
3
 72
8
 73
4
 74
0
 40
0
 40
0
 40
0
 40
0
 40
1
 40
1
 40
1
 40
1
 10
243.213486
 20
109.070062
 30
0.0
 10
242.951118
 20
109.860990
 30
0.0
 10
242.179614
 20
110.934140
 30
0.0
 10
240.899482
 20
112.289724
 30
0.0
  0
SPLINE
  5
1b5
100
AcDbEntity
  8
ink_ext_XXXXXX
 62
7
100
AcDbSpline
 70
8
 71
3
 72
8
 73
4
 74
0
 40
0
 40
0
 40
0
 40
0
 40
1
 40
1
 40
1
 40
1
 10
240.899482
 20
112.289724
 30
0.0
 10
239.580531
 20
106.942318
 30
0.0
 10
237.641128
 20
104.270097
 30
0.0
 10
235.080854
 20
104.270097
 30
0.0
  0
SPLINE
  5
1b6
100
AcDbEntity
  8
ink_ext_XXXXXX
 62
7
100
AcDbSpline
 70
8
 71
3
 72
8
 73
4
 74
0
 40
0
 40
0
 40
0
 40
0
 40
1
 40
1
 40
1
 40
1
 10
235.080854
 20
104.270097
 30
0.0
 10
233.913311
 20
104.270097
 30
0.0
 10
233.331845
 20
105.136308
 30
0.0
 10
233.331845
 20
106.866330
 30
0.0
  0
SPLINE
  5
1b7
100
AcDbEntity
  8
ink_ext_XXXXXX
 62
7
100
AcDbSpline
 70
8
 71
3
 72
8
 73
4
 74
0
 40
0
 40
0
 40
0
 40
0
 40
1
 40
1
 40
1
 40
1
 10
233.331845
 20
106.866330
 30
0.0
 10
233.331845
 20
107.808635
 30
0.0
 10
233.764146
 20
111.140797
 30
0.0
 10
234.630508
 20
116.863170
 30
0.0
  0
SPLINE
  5
1b8
100
AcDbEntity
  8
ink_ext_XXXXXX
 62
7
100
AcDbSpline
 70
8
 71
3
 72
8
 73
4
 74
0
 40
0
 40
0
 40
0
 40
0
 40
1
 40
1
 40
1
 40
1
 10
234.630508
 20
116.863170
 30
0.0
 10
234.855704
 20
118.331325
 30
0.0
 10
234.967852
 20
119.328840
 30
0.0
 10
234.967852
 20
119.857371
 30
0.0
  0
SPLINE
  5
1b9
100
AcDbEntity
  8
ink_ext_XXXXXX
 62
7
100
AcDbSpline
 70
8
 71
3
 72
8
 73
4
 74
0
 40
0
 40
0
 40
0
 40
0
 40
1
 40
1
 40
1
 40
1
 10
234.967852
 20
119.857371
 30
0.0
 10
234.967852
 20
121.815288
 30
0.0
 10
234.235023
 20
123.432351
 30
0.0
 10
232.766850
 20
124.712476
 30
0.0
  0
SPLINE
  5
1ba
100
AcDbEntity
  8
ink_ext_XXXXXX
 62
7
100
AcDbSpline
 70
8
 71
3
 72
8
 73
4
 74
0
 40
0
 40
0
 40
0
 40
0
 40
1
 40
1
 40
1
 40
1
 10
232.766850
 20
124.712476
 30
0.0
 10
231.298138
 20
125.992600
 30
0.0
 10
229.273525
 20
126.633986
 30
0.0
 10
226.695213
 20
126.633986
 30
0.0
  0
SPLINE
  5
1bb
100
AcDbEntity
  8
ink_ext_XXXXXX
 62
7
100
AcDbSpline
 70
8
 71
3
 72
8
 73
4
 74
0
 40
0
 40
0
 40
0
 40
0
 40
1
 40
1
 40
1
 40
1
 10
226.695213
 20
126.633986
 30
0.0
 10
224.116898
 20
126.633986
 30
0.0
 10
221.903905
 20
125.730204
 30
0.0
 10
220.058581
 20
123.922006
 30
0.0
  0
SPLINE
  5
1bc
100
AcDbEntity
  8
ink_ext_XXXXXX
 62
7
100
AcDbSpline
 70
8
 71
3
 72
8
 73
4
 74
0
 40
0
 40
0
 40
0
 40
0
 40
1
 40
1
 40
1
 40
1
 10
220.058581
 20
123.922006
 30
0.0
 10
219.945982
 20
125.767352
 30
0.0
 10
218.626737
 20
126.691312
 30
0.0
 10
216.105819
 20
126.691312
 30
0.0
  0
SPLINE
  5
1bd
100
AcDbEntity
  8
ink_ext_XXXXXX
 62
7
100
AcDbSpline
 70
8
 71
3
 72
8
 73
4
 74
0
 40
0
 40
0
 40
0
 40
0
 40
1
 40
1
 40
1
 40
1
 10
216.105819
 20
126.691312
 30
0.0
 10
215.276622
 20
126.691312
 30
0.0
 10
214.072810
 20
126.482256
 30
0.0
 10
212.491498
 20
126.068448
 30
0.0
  0
LWPOLYLINE
  5
1be
100
AcDbEntity
  8
ink_ext_XXXXXX
 62
7
100
AcDbPolyline
 90
2
 70
1
 10
227.288335
 20
118.388370
 30
0.0
 10
225.932331
 20
105.795296
 30
0.0
  0
SPLINE
  5
1bf
100
AcDbEntity
  8
ink_ext_XXXXXX
 62
7
100
AcDbSpline
 70
8
 71
3
 72
8
 73
4
 74
0
 40
0
 40
0
 40
0
 40
0
 40
1
 40
1
 40
1
 40
1
 10
210.492793
 20
108.956538
 30
0.0
 10
209.993637
 20
107.828425
 30
0.0
 10
209.456349
 20
106.910674
 30
0.0
 10
208.878835
 20
106.218630
 30
0.0
  0
SPLINE
  5
1c0
100
AcDbEntity
  8
ink_ext_XXXXXX
 62
7
100
AcDbSpline
 70
8
 71
3
 72
8
 73
4
 74
0
 40
0
 40
0
 40
0
 40
0
 40
1
 40
1
 40
1
 40
1
 10
208.878835
 20
106.218630
 30
0.0
 10
207.824442
 20
104.957096
 30
0.0
 10
206.826973
 20
104.327423
 30
0.0
 10
205.884633
 20
104.327423
 30
0.0
  0
SPLINE
  5
1c1
100
AcDbEntity
  8
ink_ext_XXXXXX
 62
7
100
AcDbSpline
 70
8
 71
3
 72
8
 73
4
 74
0
 40
0
 40
0
 40
0
 40
0
 40
1
 40
1
 40
1
 40
1
 10
205.884633
 20
104.327423
 30
0.0
 10
204.680469
 20
104.327423
 30
0.0
 10
204.078298
 20
105.078770
 30
0.0
 10
204.078298
 20
106.586295
 30
0.0
  0
SPLINE
  5
1c2
100
AcDbEntity
  8
ink_ext_XXXXXX
 62
7
100
AcDbSpline
 70
8
 71
3
 72
8
 73
4
 74
0
 40
0
 40
0
 40
0
 40
0
 40
1
 40
1
 40
1
 40
1
 10
204.078298
 20
106.586295
 30
0.0
 10
204.078298
 20
107.714478
 30
0.0
 10
204.248722
 20
109.559682
 30
0.0
 10
204.586520
 20
112.119403
 30
0.0
  0
SPLINE
  5
1c3
100
AcDbEntity
  8
ink_ext_XXXXXX
 62
7
100
AcDbSpline
 70
8
 71
3
 72
8
 73
4
 74
0
 40
0
 40
0
 40
0
 40
0
 40
1
 40
1
 40
1
 40
1
 10
204.586520
 20
112.119403
 30
0.0
 10
204.735749
 20
113.250338
 30
0.0
 10
205.000357
 20
115.159465
 30
0.0
 10
205.376965
 20
117.850383
 30
0.0
  0
SPLINE
  5
1c4
100
AcDbEntity
  8
ink_ext_XXXXXX
 62
7
100
AcDbSpline
 70
8
 71
3
 72
8
 73
4
 74
0
 40
0
 40
0
 40
0
 40
0
 40
1
 40
1
 40
1
 40
1
 10
205.376965
 20
117.850383
 30
0.0
 10
205.754120
 20
120.544018
 30
0.0
 10
206.111826
 20
123.283549
 30
0.0
 10
206.449628
 20
126.068448
 30
0.0
  0
SPLINE
  5
1c5
100
AcDbEntity
  8
ink_ext_XXXXXX
 62
7
100
AcDbSpline
 70
8
 71
3
 72
8
 73
4
 74
0
 40
0
 40
0
 40
0
 40
0
 40
1
 40
1
 40
1
 40
1
 10
206.449628
 20
126.068448
 30
0.0
 10
205.808465
 20
126.445602
 30
0.0
 10
204.765552
 20
126.633986
 30
0.0
 10
203.315420
 20
126.633986
 30
0.0
  0
SPLINE
  5
1c6
100
AcDbEntity
  8
ink_ext_XXXXXX
 62
7
100
AcDbSpline
 70
8
 71
3
 72
8
 73
4
 74
0
 40
0
 40
0
 40
0
 40
0
 40
1
 40
1
 40
1
 40
1
 10
203.315420
 20
126.633986
 30
0.0
 10
201.865291
 20
126.633986
 30
0.0
 10
200.633973
 20
126.314404
 30
0.0
 10
199.615663
 20
125.673231
 30
0.0
  0
SPLINE
  5
1c7
100
AcDbEntity
  8
ink_ext_XXXXXX
 62
7
100
AcDbSpline
 70
8
 71
3
 72
8
 73
4
 74
0
 40
0
 40
0
 40
0
 40
0
 40
1
 40
1
 40
1
 40
1
 10
199.615663
 20
125.673231
 30
0.0
 10
198.034890
 20
126.314404
 30
0.0
 10
196.301880
 20
126.633986
 30
0.0
 10
194.419906
 20
126.633986
 30
0.0
  0
LWPOLYLINE
  5
1c8
100
AcDbEntity
  8
ink_ext_XXXXXX
 62
7
100
AcDbPolyline
 90
2
 70
1
 10
212.491498
 20
126.068448
 30
0.0
 10
210.492793
 20
108.956538
 30
0.0
  0
SPLINE
  5
1c9
100
AcDbEntity
  8
ink_ext_XXXXXX
 62
7
100
AcDbSpline
 70
8
 71
3
 72
8
 73
4
 74
0
 40
0
 40
0
 40
0
 40
0
 40
1
 40
1
 40
1
 40
1
 10
194.082566
 20
126.633986
 30
0.0
 10
189.640363
 20
126.633986
 30
0.0
 10
185.967886
 20
125.165019
 30
0.0
 10
183.069830
 20
122.228144
 30
0.0
  0
SPLINE
  5
1ca
100
AcDbEntity
  8
ink_ext_XXXXXX
 62
7
100
AcDbSpline
 70
8
 71
3
 72
8
 73
4
 74
0
 40
0
 40
0
 40
0
 40
0
 40
1
 40
1
 40
1
 40
1
 10
183.069830
 20
122.228144
 30
0.0
 10
180.170106
 20
119.291269
 30
0.0
 10
178.720190
 20
115.357479
 30
0.0
 10
178.720190
 20
110.426069
 30
0.0
  0
SPLINE
  5
1cb
100
AcDbEntity
  8
ink_ext_XXXXXX
 62
7
100
AcDbSpline
 70
8
 71
3
 72
8
 73
4
 74
0
 40
0
 40
0
 40
0
 40
0
 40
1
 40
1
 40
1
 40
1
 10
178.720190
 20
110.426069
 30
0.0
 10
178.720190
 20
109.218405
 30
0.0
 10
178.855561
 20
108.096219
 30
0.0
 10
179.120924
 20
107.055948
 30
0.0
  0
SPLINE
  5
1cc
100
AcDbEntity
  8
ink_ext_XXXXXX
 62
7
100
AcDbSpline
 70
8
 71
3
 72
8
 73
4
 74
0
 40
0
 40
0
 40
0
 40
0
 40
1
 40
1
 40
1
 40
1
 10
179.120924
 20
107.055948
 30
0.0
 10
179.053265
 20
106.945952
 30
0.0
 10
178.987507
 20
106.834298
 30
0.0
 10
178.917527
 20
106.726312
 30
0.0
  0
SPLINE
  5
1cd
100
AcDbEntity
  8
ink_ext_XXXXXX
 62
7
100
AcDbSpline
 70
8
 71
3
 72
8
 73
4
 74
0
 40
0
 40
0
 40
0
 40
0
 40
1
 40
1
 40
1
 40
1
 10
178.917527
 20
106.726312
 30
0.0
 10
177.883380
 20
105.124807
 30
0.0
 10
176.753055
 20
104.327423
 30
0.0
 10
175.530310
 20
104.327423
 30
0.0
  0
SPLINE
  5
1ce
100
AcDbEntity
  8
ink_ext_XXXXXX
 62
7
100
AcDbSpline
 70
8
 71
3
 72
8
 73
4
 74
0
 40
0
 40
0
 40
0
 40
0
 40
1
 40
1
 40
1
 40
1
 10
175.530310
 20
104.327423
 30
0.0
 10
174.305931
 20
104.327423
 30
0.0
 10
173.617989
 20
104.814151
 30
0.0
 10
173.468764
 20
105.795296
 30
0.0
  0
SPLINE
  5
1cf
100
AcDbEntity
  8
ink_ext_XXXXXX
 62
7
100
AcDbSpline
 70
8
 71
3
 72
8
 73
4
 74
0
 40
0
 40
0
 40
0
 40
0
 40
1
 40
1
 40
1
 40
1
 10
173.468764
 20
105.795296
 30
0.0
 10
173.392988
 20
106.170264
 30
0.0
 10
173.356313
 20
106.613741
 30
0.0
 10
173.356313
 20
107.121529
 30
0.0
  0
SPLINE
  5
1d0
100
AcDbEntity
  8
ink_ext_XXXXXX
 62
7
100
AcDbSpline
 70
8
 71
3
 72
8
 73
4
 74
0
 40
0
 40
0
 40
0
 40
0
 40
1
 40
1
 40
1
 40
1
 10
173.356313
 20
107.121529
 30
0.0
 10
173.356313
 20
107.629318
 30
0.0
 10
173.448317
 20
108.258991
 30
0.0
 10
173.636884
 20
109.012736
 30
0.0
  0
SPLINE
  5
1d1
100
AcDbEntity
  8
ink_ext_XXXXXX
 62
7
100
AcDbSpline
 70
8
 71
3
 72
8
 73
4
 74
0
 40
0
 40
0
 40
0
 40
0
 40
1
 40
1
 40
1
 40
1
 10
173.636884
 20
109.012736
 30
0.0
 10
173.636884
 20
109.125342
 30
0.0
 10
174.371921
 20
114.849903
 30
0.0
 10
175.840641
 20
126.181442
 30
0.0
  0
SPLINE
  5
1d2
100
AcDbEntity
  8
ink_ext_XXXXXX
 62
7
100
AcDbSpline
 70
8
 71
3
 72
8
 73
4
 74
0
 40
0
 40
0
 40
0
 40
0
 40
1
 40
1
 40
1
 40
1
 10
175.840641
 20
126.181442
 30
0.0
 10
175.050253
 20
126.445496
 30
0.0
 10
174.135253
 20
126.576659
 30
0.0
 10
173.101650
 20
126.576659
 30
0.0
  0
SPLINE
  5
1d3
100
AcDbEntity
  8
ink_ext_XXXXXX
 62
7
100
AcDbSpline
 70
8
 71
3
 72
8
 73
4
 74
0
 40
0
 40
0
 40
0
 40
0
 40
1
 40
1
 40
1
 40
1
 10
173.101650
 20
126.576659
 30
0.0
 10
172.064755
 20
126.576659
 30
0.0
 10
171.021813
 20
126.399459
 30
0.0
 10
169.966891
 20
126.040896
 30
0.0
  0
SPLINE
  5
1d4
100
AcDbEntity
  8
ink_ext_XXXXXX
 62
7
100
AcDbSpline
 70
8
 71
3
 72
8
 73
4
 74
0
 40
0
 40
0
 40
0
 40
0
 40
1
 40
1
 40
1
 40
1
 10
169.966891
 20
126.040896
 30
0.0
 10
168.911934
 20
125.682332
 30
0.0
 10
168.197629
 20
125.165336
 30
0.0
 10
167.820457
 20
124.487580
 30
0.0
  0
SPLINE
  5
1d5
100
AcDbEntity
  8
ink_ext_XXXXXX
 62
7
100
AcDbSpline
 70
8
 71
3
 72
8
 73
4
 74
0
 40
0
 40
0
 40
0
 40
0
 40
1
 40
1
 40
1
 40
1
 10
167.820457
 20
124.487580
 30
0.0
 10
163.635158
 20
121.165330
 30
0.0
 10
158.323570
 20
125.063031
 30
0.0
 10
158.323570
 20
125.063031
 30
0.0
  0
LWPOLYLINE
  5
1d6
100
AcDbEntity
  8
ink_ext_XXXXXX
 62
7
100
AcDbPolyline
 90
2
 70
1
 10
194.419906
 20
126.633986
 30
0.0
 10
194.082566
 20
126.633986
 30
0.0
  0
SPLINE
  5
1d7
100
AcDbEntity
  8
ink_ext_XXXXXX
 62
7
100
AcDbSpline
 70
8
 71
3
 72
8
 73
4
 74
0
 40
0
 40
0
 40
0
 40
0
 40
1
 40
1
 40
1
 40
1
 10
158.323852
 20
125.063031
 30
0.0
 10
156.797111
 20
126.147928
 30
0.0
 10
155.087257
 20
126.692970
 30
0.0
 10
153.193694
 20
126.692970
 30
0.0
  0
SPLINE
  5
1d8
100
AcDbEntity
  8
ink_ext_XXXXXX
 62
7
100
AcDbSpline
 70
8
 71
3
 72
8
 73
4
 74
0
 40
0
 40
0
 40
0
 40
0
 40
1
 40
1
 40
1
 40
1
 10
153.193694
 20
126.692970
 30
0.0
 10
150.481994
 20
126.692970
 30
0.0
 10
148.241513
 20
126.070106
 30
0.0
 10
146.472170
 20
124.829316
 30
0.0
  0
SPLINE
  5
1d9
100
AcDbEntity
  8
ink_ext_XXXXXX
 62
7
100
AcDbSpline
 70
8
 71
3
 72
8
 73
4
 74
0
 40
0
 40
0
 40
0
 40
0
 40
1
 40
1
 40
1
 40
1
 10
146.472170
 20
124.829316
 30
0.0
 10
146.058372
 20
126.070106
 30
0.0
 10
144.626980
 20
126.692970
 30
0.0
 10
142.179309
 20
126.692970
 30
0.0
  0
SPLINE
  5
1da
100
AcDbEntity
  8
ink_ext_XXXXXX
 62
7
100
AcDbSpline
 70
8
 71
3
 72
8
 73
4
 74
0
 40
0
 40
0
 40
0
 40
0
 40
1
 40
1
 40
1
 40
1
 10
142.179309
 20
126.692970
 30
0.0
 10
140.825937
 20
126.692970
 30
0.0
 10
139.752790
 20
126.541064
 30
0.0
 10
138.961863
 20
126.240427
 30
0.0
  0
SPLINE
  5
1db
100
AcDbEntity
  8
ink_ext_XXXXXX
 62
7
100
AcDbSpline
 70
8
 71
3
 72
8
 73
4
 74
0
 40
0
 40
0
 40
0
 40
0
 40
1
 40
1
 40
1
 40
1
 10
138.961863
 20
126.240427
 30
0.0
 10
138.909651
 20
125.773314
 30
0.0
 10
138.853094
 20
125.205941
 30
0.0
 10
138.798706
 20
124.688205
 30
0.0
  0
SPLINE
  5
1dc
100
AcDbEntity
  8
ink_ext_XXXXXX
 62
7
100
AcDbSpline
 70
8
 71
3
 72
8
 73
4
 74
0
 40
0
 40
0
 40
0
 40
0
 40
1
 40
1
 40
1
 40
1
 10
138.798706
 20
124.688205
 30
0.0
 10
135.852518
 20
123.663456
 30
0.0
 10
132.739649
 20
124.844097
 30
0.0
 10
131.137897
 20
125.646208
 30
0.0
  0
LWPOLYLINE
  5
1dd
100
AcDbEntity
  8
ink_ext_XXXXXX
 62
7
100
AcDbPolyline
 90
2
 70
1
 10
158.323570
 20
125.063031
 30
0.0
 10
158.323852
 20
125.063031
 30
0.0
  0
SPLINE
  5
1de
100
AcDbEntity
  8
ink_ext_XXXXXX
 62
7
100
AcDbSpline
 70
8
 71
3
 72
8
 73
4
 74
0
 40
0
 40
0
 40
0
 40
0
 40
1
 40
1
 40
1
 40
1
 10
131.132253
 20
125.671608
 30
0.0
 10
129.841227
 20
126.579517
 30
0.0
 10
127.917459
 20
127.032025
 30
0.0
 10
125.359397
 20
127.032025
 30
0.0
  0
SPLINE
  5
1df
100
AcDbEntity
  8
ink_ext_XXXXXX
 62
7
100
AcDbSpline
 70
8
 71
3
 72
8
 73
4
 74
0
 40
0
 40
0
 40
0
 40
0
 40
1
 40
1
 40
1
 40
1
 10
125.359397
 20
127.032025
 30
0.0
 10
122.798548
 20
127.032025
 30
0.0
 10
120.612419
 20
126.478058
 30
0.0
 10
118.799388
 20
125.368995
 30
0.0
  0
SPLINE
  5
1e0
100
AcDbEntity
  8
ink_ext_XXXXXX
 62
7
100
AcDbSpline
 70
8
 71
3
 72
8
 73
4
 74
0
 40
0
 40
0
 40
0
 40
0
 40
1
 40
1
 40
1
 40
1
 10
118.799388
 20
125.368995
 30
0.0
 10
116.986816
 20
124.262155
 30
0.0
 10
116.078590
 20
122.700090
 30
0.0
 10
116.078590
 20
120.685870
 30
0.0
  0
SPLINE
  5
1e1
100
AcDbEntity
  8
ink_ext_XXXXXX
 62
7
100
AcDbSpline
 70
8
 71
3
 72
8
 73
4
 74
0
 40
0
 40
0
 40
0
 40
0
 40
1
 40
1
 40
1
 40
1
 10
116.078590
 20
120.685870
 30
0.0
 10
116.078590
 20
118.668934
 30
0.0
 10
117.711845
 20
115.960765
 30
0.0
 10
120.976133
 20
112.554342
 30
0.0
  0
SPLINE
  5
1e2
100
AcDbEntity
  8
ink_ext_XXXXXX
 62
7
100
AcDbSpline
 70
8
 71
3
 72
8
 73
4
 74
0
 40
0
 40
0
 40
0
 40
0
 40
1
 40
1
 40
1
 40
1
 10
120.976133
 20
112.554342
 30
0.0
 10
124.239892
 20
109.149613
 30
0.0
 10
125.870925
 20
106.517256
 30
0.0
 10
125.870925
 20
104.665349
 30
0.0
  0
SPLINE
  5
1e3
100
AcDbEntity
  8
ink_ext_XXXXXX
 62
7
100
AcDbSpline
 70
8
 71
3
 72
8
 73
4
 74
0
 40
0
 40
0
 40
0
 40
0
 40
1
 40
1
 40
1
 40
1
 10
125.870925
 20
104.665349
 30
0.0
 10
125.870925
 20
103.376476
 30
0.0
 10
125.063134
 20
102.420025
 30
0.0
 10
123.635196
 20
102.550376
 30
0.0
  0
SPLINE
  5
1e4
100
AcDbEntity
  8
ink_ext_XXXXXX
 62
7
100
AcDbSpline
 70
8
 71
3
 72
8
 73
4
 74
0
 40
0
 40
0
 40
0
 40
0
 40
1
 40
1
 40
1
 40
1
 10
123.635196
 20
102.550376
 30
0.0
 10
116.745904
 20
103.169183
 30
0.0
 10
118.375914
 20
108.779691
 30
0.0
 10
115.237991
 20
107.200940
 30
0.0
  0
SPLINE
  5
1e5
100
AcDbEntity
  8
ink_ext_XXXXXX
 62
7
100
AcDbSpline
 70
8
 71
3
 72
8
 73
4
 74
0
 40
0
 40
0
 40
0
 40
0
 40
1
 40
1
 40
1
 40
1
 10
115.237991
 20
107.200940
 30
0.0
 10
115.230935
 20
107.194590
 30
0.0
 10
115.225997
 20
107.190003
 30
0.0
 10
115.219294
 20
107.183653
 30
0.0
  0
SPLINE
  5
1e6
100
AcDbEntity
  8
ink_ext_XXXXXX
 62
7
100
AcDbSpline
 70
8
 71
3
 72
8
 73
4
 74
0
 40
0
 40
0
 40
0
 40
0
 40
1
 40
1
 40
1
 40
1
 10
115.219294
 20
107.183653
 30
0.0
 10
115.168529
 20
107.153667
 30
0.0
 10
115.123762
 20
107.120048
 30
0.0
 10
115.087531
 20
107.083359
 30
0.0
  0
SPLINE
  5
1e7
100
AcDbEntity
  8
ink_ext_XXXXXX
 62
7
100
AcDbSpline
 70
8
 71
3
 72
8
 73
4
 74
0
 40
0
 40
0
 40
0
 40
0
 40
1
 40
1
 40
1
 40
1
 10
115.087531
 20
107.083359
 30
0.0
 10
114.921443
 20
106.915013
 30
0.0
 10
114.759201
 20
106.760567
 30
0.0
 10
114.599181
 20
106.612048
 30
0.0
  0
SPLINE
  5
1e8
100
AcDbEntity
  8
ink_ext_XXXXXX
 62
7
100
AcDbSpline
 70
8
 71
3
 72
8
 73
4
 74
0
 40
0
 40
0
 40
0
 40
0
 40
1
 40
1
 40
1
 40
1
 10
114.599181
 20
106.612048
 30
0.0
 10
114.563268
 20
106.578534
 30
0.0
 10
114.521499
 20
106.541104
 30
0.0
 10
114.486715
 20
106.508437
 30
0.0
  0
SPLINE
  5
1e9
100
AcDbEntity
  8
ink_ext_XXXXXX
 62
7
100
AcDbSpline
 70
8
 71
3
 72
8
 73
4
 74
0
 40
0
 40
0
 40
0
 40
0
 40
1
 40
1
 40
1
 40
1
 10
114.486715
 20
106.508437
 30
0.0
 10
111.836472
 20
104.100940
 30
0.0
 10
110.068174
 20
104.328905
 30
0.0
 10
110.068174
 20
104.328905
 30
0.0
  0
SPLINE
  5
1ea
100
AcDbEntity
  8
ink_ext_XXXXXX
 62
7
100
AcDbSpline
 70
8
 71
3
 72
8
 73
4
 74
0
 40
0
 40
0
 40
0
 40
0
 40
1
 40
1
 40
1
 40
1
 10
110.068174
 20
104.328905
 30
0.0
 10
108.864037
 20
104.328905
 30
0.0
 10
108.261846
 20
105.080286
 30
0.0
 10
108.261846
 20
106.587812
 30
0.0
  0
SPLINE
  5
1eb
100
AcDbEntity
  8
ink_ext_XXXXXX
 62
7
100
AcDbSpline
 70
8
 71
3
 72
8
 73
4
 74
0
 40
0
 40
0
 40
0
 40
0
 40
1
 40
1
 40
1
 40
1
 10
108.261846
 20
106.587812
 30
0.0
 10
108.261846
 20
107.715960
 30
0.0
 10
108.431743
 20
109.561164
 30
0.0
 10
108.770057
 20
112.120884
 30
0.0
  0
SPLINE
  5
1ec
100
AcDbEntity
  8
ink_ext_XXXXXX
 62
7
100
AcDbSpline
 70
8
 71
3
 72
8
 73
4
 74
0
 40
0
 40
0
 40
0
 40
0
 40
1
 40
1
 40
1
 40
1
 10
108.770057
 20
112.120884
 30
0.0
 10
108.919282
 20
113.251819
 30
0.0
 10
109.183337
 20
115.160947
 30
0.0
 10
109.560527
 20
117.851900
 30
0.0
  0
SPLINE
  5
1ed
100
AcDbEntity
  8
ink_ext_XXXXXX
 62
7
100
AcDbSpline
 70
8
 71
3
 72
8
 73
4
 74
0
 40
0
 40
0
 40
0
 40
0
 40
1
 40
1
 40
1
 40
1
 10
109.560527
 20
117.851900
 30
0.0
 10
109.937152
 20
120.545535
 30
0.0
 10
110.295927
 20
123.285031
 30
0.0
 10
110.633712
 20
126.069965
 30
0.0
  0
SPLINE
  5
1ee
100
AcDbEntity
  8
ink_ext_XXXXXX
 62
7
100
AcDbSpline
 70
8
 71
3
 72
8
 73
4
 74
0
 40
0
 40
0
 40
0
 40
0
 40
1
 40
1
 40
1
 40
1
 10
110.633712
 20
126.069965
 30
0.0
 10
109.992573
 20
126.447119
 30
0.0
 10
108.949127
 20
126.635503
 30
0.0
 10
107.499493
 20
126.635503
 30
0.0
  0
SPLINE
  5
1ef
100
AcDbEntity
  8
ink_ext_XXXXXX
 62
7
100
AcDbSpline
 70
8
 71
3
 72
8
 73
4
 74
0
 40
0
 40
0
 40
0
 40
0
 40
1
 40
1
 40
1
 40
1
 10
107.499493
 20
126.635503
 30
0.0
 10
106.049400
 20
126.635503
 30
0.0
 10
104.817500
 20
126.315886
 30
0.0
 10
103.799736
 20
125.674748
 30
0.0
  0
SPLINE
  5
1f0
100
AcDbEntity
  8
ink_ext_XXXXXX
 62
7
100
AcDbSpline
 70
8
 71
3
 72
8
 73
4
 74
0
 40
0
 40
0
 40
0
 40
0
 40
1
 40
1
 40
1
 40
1
 10
103.799736
 20
125.674748
 30
0.0
 10
102.218445
 20
126.315886
 30
0.0
 10
100.485918
 20
126.635503
 30
0.0
 10
98.603425
 20
126.635503
 30
0.0
  0
LWPOLYLINE
  5
1f1
100
AcDbEntity
  8
ink_ext_XXXXXX
 62
7
100
AcDbPolyline
 90
2
 70
1
 10
131.137897
 20
125.646208
 30
0.0
 10
131.132253
 20
125.671608
 30
0.0
  0
SPLINE
  5
1f2
100
AcDbEntity
  8
ink_ext_XXXXXX
 62
7
100
AcDbSpline
 70
8
 71
3
 72
8
 73
4
 74
0
 40
0
 40
0
 40
0
 40
0
 40
1
 40
1
 40
1
 40
1
 10
98.265570
 20
126.635503
 30
0.0
 10
93.823851
 20
126.635503
 30
0.0
 10
90.151469
 20
125.166536
 30
0.0
 10
87.253929
 20
122.229626
 30
0.0
  0
SPLINE
  5
1f3
100
AcDbEntity
  8
ink_ext_XXXXXX
 62
7
100
AcDbSpline
 70
8
 71
3
 72
8
 73
4
 74
0
 40
0
 40
0
 40
0
 40
0
 40
1
 40
1
 40
1
 40
1
 10
87.253929
 20
122.229626
 30
0.0
 10
84.958863
 20
119.829678
 30
0.0
 10
83.391471
 20
116.160543
 30
0.0
 10
83.075135
 20
112.375025
 30
0.0
  0
SPLINE
  5
1f4
100
AcDbEntity
  8
ink_ext_XXXXXX
 62
7
100
AcDbSpline
 70
8
 71
3
 72
8
 73
4
 74
0
 40
0
 40
0
 40
0
 40
0
 40
1
 40
1
 40
1
 40
1
 10
83.075135
 20
112.375025
 30
0.0
 10
82.670111
 20
112.117533
 30
0.0
 10
82.224870
 20
111.826879
 30
0.0
 10
81.680569
 20
111.469903
 30
0.0
  0
SPLINE
  5
1f5
100
AcDbEntity
  8
ink_ext_XXXXXX
 62
7
100
AcDbSpline
 70
8
 71
3
 72
8
 73
4
 74
0
 40
0
 40
0
 40
0
 40
0
 40
1
 40
1
 40
1
 40
1
 10
81.680569
 20
111.469903
 30
0.0
 10
78.504158
 20
109.386539
 30
0.0
 10
72.634783
 20
104.378400
 30
0.0
 10
65.373981
 20
103.674608
 30
0.0
  0
SPLINE
  5
1f6
100
AcDbEntity
  8
ink_ext_XXXXXX
 62
7
100
AcDbSpline
 70
8
 71
3
 72
8
 73
4
 74
0
 40
0
 40
0
 40
0
 40
0
 40
1
 40
1
 40
1
 40
1
 10
65.373981
 20
103.674608
 30
0.0
 10
58.113179
 20
102.970852
 30
0.0
 10
49.204270
 20
108.734253
 30
0.0
 10
48.356898
 20
116.871813
 30
0.0
  0
SPLINE
  5
1f7
100
AcDbEntity
  8
ink_ext_XXXXXX
 62
7
100
AcDbSpline
 70
8
 71
3
 72
8
 73
4
 74
0
 40
0
 40
0
 40
0
 40
0
 40
1
 40
1
 40
1
 40
1
 10
48.356898
 20
116.871813
 30
0.0
 10
46.609766
 20
129.712501
 30
0.0
 10
53.465403
 20
142.786833
 30
0.0
 10
63.264476
 20
150.895572
 30
0.0
  0
SPLINE
  5
1f8
100
AcDbEntity
  8
ink_ext_XXXXXX
 62
7
100
AcDbSpline
 70
8
 71
3
 72
8
 73
4
 74
0
 40
0
 40
0
 40
0
 40
0
 40
1
 40
1
 40
1
 40
1
 10
63.264476
 20
150.895572
 30
0.0
 10
69.394872
 20
155.888330
 30
0.0
 10
78.611367
 20
160.086315
 30
0.0
 10
86.123382
 20
155.580355
 30
0.0
  0
SPLINE
  5
1f9
100
AcDbEntity
  8
ink_ext_XXXXXX
 62
7
100
AcDbSpline
 70
8
 71
3
 72
8
 73
4
 74
0
 40
0
 40
0
 40
0
 40
0
 40
1
 40
1
 40
1
 40
1
 10
86.123382
 20
155.580355
 30
0.0
 10
92.459871
 20
151.237202
 30
0.0
 10
90.585950
 20
142.455011
 30
0.0
 10
87.382375
 20
136.750312
 30
0.0
  0
SPLINE
  5
1fa
100
AcDbEntity
  8
ink_ext_XXXXXX
 62
7
100
AcDbSpline
 70
8
 71
3
 72
8
 73
4
 74
0
 40
0
 40
0
 40
0
 40
0
 40
1
 40
1
 40
1
 40
1
 10
87.382375
 20
136.750312
 30
0.0
 10
84.014653
 20
130.993790
 30
0.0
 10
78.731523
 20
124.393000
 30
0.0
 10
71.369545
 20
124.734348
 30
0.0
  0
SPLINE
  5
1fb
100
AcDbEntity
  8
ink_ext_XXXXXX
 62
7
100
AcDbSpline
 70
8
 71
3
 72
8
 73
4
 74
0
 40
0
 40
0
 40
0
 40
0
 40
1
 40
1
 40
1
 40
1
 10
71.369545
 20
124.734348
 30
0.0
 10
67.029779
 20
124.588016
 30
0.0
 10
66.179690
 20
129.782704
 30
0.0
 10
67.799857
 20
132.878011
 30
0.0
  0
SPLINE
  5
1fc
100
AcDbEntity
  8
ink_ext_XXXXXX
 62
7
100
AcDbSpline
 70
8
 71
3
 72
8
 73
4
 74
0
 40
0
 40
0
 40
0
 40
0
 40
1
 40
1
 40
1
 40
1
 10
67.799857
 20
132.878011
 30
0.0
 10
70.386248
 20
139.717526
 30
0.0
 10
76.481472
 20
144.362127
 30
0.0
 10
82.979815
 20
147.173766
 30
0.0
  0
SPLINE
  5
1fd
100
AcDbEntity
  8
ink_ext_XXXXXX
 62
7
100
AcDbSpline
 70
8
 71
3
 72
8
 73
4
 74
0
 40
0
 40
0
 40
0
 40
0
 40
1
 40
1
 40
1
 40
1
 10
82.979815
 20
147.173766
 30
0.0
 10
86.617835
 20
148.991983
 30
0.0
 10
87.467712
 20
152.260046
 30
0.0
 10
80.254042
 20
149.952456
 30
0.0
  0
SPLINE
  5
1fe
100
AcDbEntity
  8
ink_ext_XXXXXX
 62
7
100
AcDbSpline
 70
8
 71
3
 72
8
 73
4
 74
0
 40
0
 40
0
 40
0
 40
0
 40
1
 40
1
 40
1
 40
1
 10
80.254042
 20
149.952456
 30
0.0
 10
73.040371
 20
147.644901
 30
0.0
 10
61.972357
 20
140.638840
 30
0.0
 10
60.709024
 20
130.432273
 30
0.0
  0
SPLINE
  5
1ff
100
AcDbEntity
  8
ink_ext_XXXXXX
 62
7
100
AcDbSpline
 70
8
 71
3
 72
8
 73
4
 74
0
 40
0
 40
0
 40
0
 40
0
 40
1
 40
1
 40
1
 40
1
 10
60.709024
 20
130.432273
 30
0.0
 10
59.529723
 20
124.004768
 30
0.0
 10
65.198051
 20
117.412092
 30
0.0
 10
71.834224
 20
118.223411
 30
0.0
  0
SPLINE
  5
200
100
AcDbEntity
  8
ink_ext_XXXXXX
 62
7
100
AcDbSpline
 70
8
 71
3
 72
8
 73
4
 74
0
 40
0
 40
0
 40
0
 40
0
 40
1
 40
1
 40
1
 40
1
 10
71.834224
 20
118.223411
 30
0.0
 10
82.015638
 20
118.995500
 30
0.0
 10
89.862050
 20
127.504465
 30
0.0
 10
93.734563
 20
136.403037
 30
0.0
  0
SPLINE
  5
201
100
AcDbEntity
  8
ink_ext_XXXXXX
 62
7
100
AcDbSpline
 70
8
 71
3
 72
8
 73
4
 74
0
 40
0
 40
0
 40
0
 40
0
 40
1
 40
1
 40
1
 40
1
 10
93.734563
 20
136.403037
 30
0.0
 10
97.254756
 20
143.797542
 30
0.0
 10
97.509814
 20
154.156226
 30
0.0
 10
90.632870
 20
159.735971
 30
0.0
  0
SPLINE
  5
202
100
AcDbEntity
  8
ink_ext_XXXXXX
 62
7
100
AcDbSpline
 70
8
 71
3
 72
8
 73
4
 74
0
 40
0
 40
0
 40
0
 40
0
 40
1
 40
1
 40
1
 40
1
 10
90.632870
 20
159.735971
 30
0.0
 10
87.370557
 20
162.526655
 30
0.0
 10
83.120502
 20
163.942952
 30
0.0
 10
78.852844
 20
163.936249
 30
0.0
  0
LWPOLYLINE
  5
203
100
AcDbEntity
  8
ink_ext_XXXXXX
 62
7
100
AcDbPolyline
 90
2
 70
1
 10
98.603425
 20
126.635503
 30
0.0
 10
98.265570
 20
126.635503
 30
0.0
  0
SPLINE
  5
204
100
AcDbEntity
  8
ink_ext_XXXXXX
 62
7
100
AcDbSpline
 70
8
 71
3
 72
8
 73
4
 74
0
 40
0
 40
0
 40
0
 40
0
 40
1
 40
1
 40
1
 40
1
 10
181.949204
 20
148.269811
 30
0.0
 10
180.232816
 20
148.306430
 30
0.0
 10
178.490048
 20
147.808978
 30
0.0
 10
176.986058
 20
146.733570
 30
0.0
  0
SPLINE
  5
205
100
AcDbEntity
  8
ink_ext_XXXXXX
 62
7
100
AcDbSpline
 70
8
 71
3
 72
8
 73
4
 74
0
 40
0
 40
0
 40
0
 40
0
 40
1
 40
1
 40
1
 40
1
 10
176.986058
 20
146.733570
 30
0.0
 10
173.284480
 20
144.086361
 30
0.0
 10
168.676772
 20
136.255682
 30
0.0
 10
171.323974
 20
132.554091
 30
0.0
  0
SPLINE
  5
206
100
AcDbEntity
  8
ink_ext_XXXXXX
 62
7
100
AcDbSpline
 70
8
 71
3
 72
8
 73
4
 74
0
 40
0
 40
0
 40
0
 40
0
 40
1
 40
1
 40
1
 40
1
 10
171.323974
 20
132.554091
 30
0.0
 10
173.971141
 20
128.851970
 30
0.0
 10
182.871220
 20
130.680841
 30
0.0
 10
186.572794
 20
133.328015
 30
0.0
  0
SPLINE
  5
207
100
AcDbEntity
  8
ink_ext_XXXXXX
 62
7
100
AcDbSpline
 70
8
 71
3
 72
8
 73
4
 74
0
 40
0
 40
0
 40
0
 40
0
 40
1
 40
1
 40
1
 40
1
 10
186.572794
 20
133.328015
 30
0.0
 10
190.274922
 20
135.975224
 30
0.0
 10
191.129371
 20
141.122040
 30
0.0
 10
188.482211
 20
144.823596
 30
0.0
  0
SPLINE
  5
208
100
AcDbEntity
  8
ink_ext_XXXXXX
 62
7
100
AcDbSpline
 70
8
 71
3
 72
8
 73
4
 74
0
 40
0
 40
0
 40
0
 40
0
 40
1
 40
1
 40
1
 40
1
 10
188.482211
 20
144.823596
 30
0.0
 10
186.910431
 20
147.021754
 30
0.0
 10
184.457764
 20
148.216260
 30
0.0
 10
181.949204
 20
148.269811
 30
0.0
  0
LWPOLYLINE
  5
209
100
AcDbEntity
  8
ink_ext_XXXXXX
 62
7
100
AcDbPolyline
 90
2
 70
1
 10
78.852844
 20
163.936249
 30
0.0
 10
78.853197
 20
163.934768
 30
0.0
  0
SPLINE
  5
20a
100
AcDbEntity
  8
ink_ext_XXXXXX
 62
7
100
AcDbSpline
 70
8
 71
3
 72
8
 73
4
 74
0
 40
0
 40
0
 40
0
 40
0
 40
1
 40
1
 40
1
 40
1
 10
99.114212
 20
122.228179
 30
0.0
 10
100.129859
 20
122.228179
 30
0.0
 10
101.182266
 20
122.003319
 30
0.0
 10
102.276547
 20
121.550740
 30
0.0
  0
LWPOLYLINE
  5
20b
100
AcDbEntity
  8
ink_ext_XXXXXX
 62
7
100
AcDbPolyline
 90
2
 70
1
 10
181.949204
 20
148.269811
 30
0.0
 10
181.949204
 20
148.269811
 30
0.0
  0
SPLINE
  5
20c
100
AcDbEntity
  8
ink_ext_XXXXXX
 62
7
100
AcDbSpline
 70
8
 71
3
 72
8
 73
4
 74
0
 40
0
 40
0
 40
0
 40
0
 40
1
 40
1
 40
1
 40
1
 10
100.920540
 20
109.352884
 30
0.0
 10
99.714181
 20
106.000049
 30
0.0
 10
97.926162
 20
104.327459
 30
0.0
 10
95.554473
 20
104.327459
 30
0.0
  0
SPLINE
  5
20d
100
AcDbEntity
  8
ink_ext_XXXXXX
 62
7
100
AcDbSpline
 70
8
 71
3
 72
8
 73
4
 74
0
 40
0
 40
0
 40
0
 40
0
 40
1
 40
1
 40
1
 40
1
 10
95.554473
 20
104.327459
 30
0.0
 10
94.162270
 20
104.327459
 30
0.0
 10
93.021916
 20
104.871901
 30
0.0
 10
92.137467
 20
105.963466
 30
0.0
  0
SPLINE
  5
20e
100
AcDbEntity
  8
ink_ext_XXXXXX
 62
7
100
AcDbSpline
 70
8
 71
3
 72
8
 73
4
 74
0
 40
0
 40
0
 40
0
 40
0
 40
1
 40
1
 40
1
 40
1
 10
92.137467
 20
105.963466
 30
0.0
 10
91.252595
 20
107.055031
 30
0.0
 10
90.811270
 20
108.523468
 30
0.0
 10
90.811270
 20
110.368778
 30
0.0
  0
SPLINE
  5
20f
100
AcDbEntity
  8
ink_ext_XXXXXX
 62
7
100
AcDbSpline
 70
8
 71
3
 72
8
 73
4
 74
0
 40
0
 40
0
 40
0
 40
0
 40
1
 40
1
 40
1
 40
1
 10
90.811270
 20
110.368778
 30
0.0
 10
90.811270
 20
110.669451
 30
0.0
 10
90.830672
 20
110.991219
 30
0.0
 10
90.866938
 20
111.329004
 30
0.0
  0
SPLINE
  5
210
100
AcDbEntity
  8
ink_ext_XXXXXX
 62
7
100
AcDbSpline
 70
8
 71
3
 72
8
 73
4
 74
0
 40
0
 40
0
 40
0
 40
0
 40
1
 40
1
 40
1
 40
1
 10
90.866938
 20
111.329004
 30
0.0
 10
91.130922
 20
114.943671
 30
0.0
 10
91.969686
 20
117.662459
 30
0.0
 10
93.380480
 20
119.489213
 30
0.0
  0
SPLINE
  5
211
100
AcDbEntity
  8
ink_ext_XXXXXX
 62
7
100
AcDbSpline
 70
8
 71
3
 72
8
 73
4
 74
0
 40
0
 40
0
 40
0
 40
0
 40
1
 40
1
 40
1
 40
1
 10
93.380480
 20
119.489213
 30
0.0
 10
94.794025
 20
121.315931
 30
0.0
 10
96.703188
 20
122.228179
 30
0.0
 10
99.114212
 20
122.228179
 30
0.0
  0
LWPOLYLINE
  5
212
100
AcDbEntity
  8
ink_ext_XXXXXX
 62
7
100
AcDbPolyline
 90
2
 70
1
 10
102.276547
 20
121.550740
 30
0.0
 10
100.920540
 20
109.352884
 30
0.0
  0
SPLINE
  5
213
100
AcDbEntity
  8
ink_ext_XXXXXX
 62
7
100
AcDbSpline
 70
8
 71
3
 72
8
 73
4
 74
0
 40
0
 40
0
 40
0
 40
0
 40
1
 40
1
 40
1
 40
1
 10
194.930322
 20
122.228179
 30
0.0
 10
195.945903
 20
122.228179
 30
0.0
 10
196.998337
 20
122.003319
 30
0.0
 10
198.092097
 20
121.550740
 30
0.0
  0
LWPOLYLINE
  5
214
100
AcDbEntity
  8
ink_ext_XXXXXX
 62
7
100
AcDbPolyline
 90
2
 70
1
 10
99.114212
 20
122.228179
 30
0.0
 10
99.114212
 20
122.228179
 30
0.0
  0
SPLINE
  5
215
100
AcDbEntity
  8
ink_ext_XXXXXX
 62
7
100
AcDbSpline
 70
8
 71
3
 72
8
 73
4
 74
0
 40
0
 40
0
 40
0
 40
0
 40
1
 40
1
 40
1
 40
1
 10
196.736104
 20
109.352884
 30
0.0
 10
195.529752
 20
106.000049
 30
0.0
 10
193.741694
 20
104.327459
 30
0.0
 10
191.370576
 20
104.327459
 30
0.0
  0
SPLINE
  5
216
100
AcDbEntity
  8
ink_ext_XXXXXX
 62
7
100
AcDbSpline
 70
8
 71
3
 72
8
 73
4
 74
0
 40
0
 40
0
 40
0
 40
0
 40
1
 40
1
 40
1
 40
1
 10
191.370576
 20
104.327459
 30
0.0
 10
189.977827
 20
104.327459
 30
0.0
 10
188.838002
 20
104.871901
 30
0.0
 10
187.953041
 20
105.963466
 30
0.0
  0
SPLINE
  5
217
100
AcDbEntity
  8
ink_ext_XXXXXX
 62
7
100
AcDbSpline
 70
8
 71
3
 72
8
 73
4
 74
0
 40
0
 40
0
 40
0
 40
0
 40
1
 40
1
 40
1
 40
1
 10
187.953041
 20
105.963466
 30
0.0
 10
187.068624
 20
107.055031
 30
0.0
 10
186.627365
 20
108.523468
 30
0.0
 10
186.627365
 20
110.368778
 30
0.0
  0
SPLINE
  5
218
100
AcDbEntity
  8
ink_ext_XXXXXX
 62
7
100
AcDbSpline
 70
8
 71
3
 72
8
 73
4
 74
0
 40
0
 40
0
 40
0
 40
0
 40
1
 40
1
 40
1
 40
1
 10
186.627365
 20
110.368778
 30
0.0
 10
186.627365
 20
110.669451
 30
0.0
 10
186.645639
 20
110.991219
 30
0.0
 10
186.682490
 20
111.329004
 30
0.0
  0
SPLINE
  5
219
100
AcDbEntity
  8
ink_ext_XXXXXX
 62
7
100
AcDbSpline
 70
8
 71
3
 72
8
 73
4
 74
0
 40
0
 40
0
 40
0
 40
0
 40
1
 40
1
 40
1
 40
1
 10
186.682490
 20
111.329004
 30
0.0
 10
186.947064
 20
114.943671
 30
0.0
 10
187.785232
 20
117.662459
 30
0.0
 10
189.196586
 20
119.489213
 30
0.0
  0
SPLINE
  5
21a
100
AcDbEntity
  8
ink_ext_XXXXXX
 62
7
100
AcDbSpline
 70
8
 71
3
 72
8
 73
4
 74
0
 40
0
 40
0
 40
0
 40
0
 40
1
 40
1
 40
1
 40
1
 10
189.196586
 20
119.489213
 30
0.0
 10
190.609525
 20
121.315931
 30
0.0
 10
192.519827
 20
122.228179
 30
0.0
 10
194.930322
 20
122.228179
 30
0.0
  0
LWPOLYLINE
  5
21b
100
AcDbEntity
  8
ink_ext_XXXXXX
 62
7
100
AcDbPolyline
 90
2
 70
1
 10
198.092097
 20
121.550740
 30
0.0
 10
196.736104
 20
109.352884
 30
0.0
  0
SPLINE
  5
21c
100
AcDbEntity
  8
ink_ext_XXXXXX
 62
7
100
AcDbSpline
 70
8
 71
3
 72
8
 73
4
 74
0
 40
0
 40
0
 40
0
 40
0
 40
1
 40
1
 40
1
 40
1
 10
150.539856
 20
121.495636
 30
0.0
 10
152.120625
 20
121.495636
 30
0.0
 10
153.285762
 20
120.854216
 30
0.0
 10
154.039514
 20
119.574620
 30
0.0
  0
SPLINE
  5
21d
100
AcDbEntity
  8
ink_ext_XXXXXX
 62
7
100
AcDbSpline
 70
8
 71
3
 72
8
 73
4
 74
0
 40
0
 40
0
 40
0
 40
0
 40
1
 40
1
 40
1
 40
1
 10
154.039514
 20
119.574620
 30
0.0
 10
154.793277
 20
118.294495
 30
0.0
 10
155.170061
 20
116.826058
 30
0.0
 10
155.170061
 20
115.169308
 30
0.0
  0
SPLINE
  5
21e
100
AcDbEntity
  8
ink_ext_XXXXXX
 62
7
100
AcDbSpline
 70
8
 71
3
 72
8
 73
4
 74
0
 40
0
 40
0
 40
0
 40
0
 40
1
 40
1
 40
1
 40
1
 10
155.170061
 20
115.169308
 30
0.0
 10
155.170061
 20
111.743200
 30
0.0
 10
154.415985
 20
108.957773
 30
0.0
 10
152.911183
 20
106.811790
 30
0.0
  0
SPLINE
  5
21f
100
AcDbEntity
  8
ink_ext_XXXXXX
 62
7
100
AcDbSpline
 70
8
 71
3
 72
8
 73
4
 74
0
 40
0
 40
0
 40
0
 40
0
 40
1
 40
1
 40
1
 40
1
 10
152.911183
 20
106.811790
 30
0.0
 10
151.667659
 20
105.079087
 30
0.0
 10
150.087045
 20
104.212277
 30
0.0
 10
148.165764
 20
104.212277
 30
0.0
  0
SPLINE
  5
220
100
AcDbEntity
  8
ink_ext_XXXXXX
 62
7
100
AcDbSpline
 70
8
 71
3
 72
8
 73
4
 74
0
 40
0
 40
0
 40
0
 40
0
 40
1
 40
1
 40
1
 40
1
 10
148.165764
 20
104.212277
 30
0.0
 10
147.074185
 20
104.212277
 30
0.0
 10
146.152426
 20
104.494852
 30
0.0
 10
145.398664
 20
105.060037
 30
0.0
  0
SPLINE
  5
221
100
AcDbEntity
  8
ink_ext_XXXXXX
 62
7
100
AcDbSpline
 70
8
 71
3
 72
8
 73
4
 74
0
 40
0
 40
0
 40
0
 40
0
 40
1
 40
1
 40
1
 40
1
 10
145.398664
 20
105.060037
 30
0.0
 10
144.644912
 20
105.625187
 30
0.0
 10
144.289569
 20
106.470795
 30
0.0
 10
144.326004
 20
107.601695
 30
0.0
  0
SPLINE
  5
222
100
AcDbEntity
  8
ink_ext_XXXXXX
 62
7
100
AcDbSpline
 70
8
 71
3
 72
8
 73
4
 74
0
 40
0
 40
0
 40
0
 40
0
 40
1
 40
1
 40
1
 40
1
 10
144.326004
 20
107.601695
 30
0.0
 10
144.438600
 20
108.504665
 30
0.0
 10
144.872570
 20
111.743130
 30
0.0
 10
145.626868
 20
117.315749
 30
0.0
  0
SPLINE
  5
223
100
AcDbEntity
  8
ink_ext_XXXXXX
 62
7
100
AcDbSpline
 70
8
 71
3
 72
8
 73
4
 74
0
 40
0
 40
0
 40
0
 40
0
 40
1
 40
1
 40
1
 40
1
 10
145.626868
 20
117.315749
 30
0.0
 10
146.755084
 20
120.100682
 30
0.0
 10
148.393348
 20
121.495636
 30
0.0
 10
150.539856
 20
121.495636
 30
0.0
  0
LWPOLYLINE
  5
224
100
AcDbEntity
  8
ink_ext_XXXXXX
 62
7
100
AcDbPolyline
 90
2
 70
1
 10
194.930322
 20
122.228179
 30
0.0
 10
194.930322
 20
122.228179
 30
0.0
  0
SPLINE
  5
225
100
AcDbEntity
  8
ink_ext_XXXXXX
 62
7
100
AcDbSpline
 70
8
 71
3
 72
8
 73
4
 74
0
 40
0
 40
0
 40
0
 40
0
 40
1
 40
1
 40
1
 40
1
 10
158.843910
 20
92.777867
 30
0.0
 10
154.608301
 20
92.777867
 30
0.0
 10
154.232445
 20
90.255294
 30
0.0
 10
154.232445
 20
87.883605
 30
0.0
  0
LWPOLYLINE
  5
226
100
AcDbEntity
  8
ink_ext_XXXXXX
 62
7
100
AcDbPolyline
 90
2
 70
1
 10
150.539856
 20
121.495636
 30
0.0
 10
150.539856
 20
121.495636
 30
0.0
  0
SPLINE
  5
227
100
AcDbEntity
  8
ink_ext_XXXXXX
 62
7
100
AcDbSpline
 70
8
 71
3
 72
8
 73
4
 74
0
 40
0
 40
0
 40
0
 40
0
 40
1
 40
1
 40
1
 40
1
 10
154.232445
 20
79.902007
 30
0.0
 10
154.232445
 20
79.487680
 30
0.0
 10
154.438862
 20
79.262114
 30
0.0
 10
154.796889
 20
79.262114
 30
0.0
  0
LWPOLYLINE
  5
228
100
AcDbEntity
  8
ink_ext_XXXXXX
 62
7
100
AcDbPolyline
 90
2
 70
1
 10
154.232445
 20
87.883605
 30
0.0
 10
154.232445
 20
79.902007
 30
0.0
  0
SPLINE
  5
229
100
AcDbEntity
  8
ink_ext_XXXXXX
 62
7
100
AcDbSpline
 70
8
 71
3
 72
8
 73
4
 74
0
 40
0
 40
0
 40
0
 40
0
 40
1
 40
1
 40
1
 40
1
 10
156.905287
 20
79.262114
 30
0.0
 10
157.281877
 20
79.262114
 30
0.0
 10
157.469731
 20
79.450427
 30
0.0
 10
157.469731
 20
79.827042
 30
0.0
  0
LWPOLYLINE
  5
22a
100
AcDbEntity
  8
ink_ext_XXXXXX
 62
7
100
AcDbPolyline
 90
2
 70
1
 10
154.796889
 20
79.262114
 30
0.0
 10
156.905287
 20
79.262114
 30
0.0
  0
SPLINE
  5
22b
100
AcDbEntity
  8
ink_ext_XXXXXX
 62
7
100
AcDbSpline
 70
8
 71
3
 72
8
 73
4
 74
0
 40
0
 40
0
 40
0
 40
0
 40
1
 40
1
 40
1
 40
1
 10
157.469731
 20
81.464707
 30
0.0
 10
157.469731
 20
81.840803
 30
0.0
 10
157.677256
 20
82.029151
 30
0.0
 10
158.035276
 20
82.029151
 30
0.0
  0
LWPOLYLINE
  5
22c
100
AcDbEntity
  8
ink_ext_XXXXXX
 62
7
100
AcDbPolyline
 90
2
 70
1
 10
157.469731
 20
79.827042
 30
0.0
 10
157.469731
 20
81.464707
 30
0.0
  0
SPLINE
  5
22d
100
AcDbEntity
  8
ink_ext_XXXXXX
 62
7
100
AcDbSpline
 70
8
 71
3
 72
8
 73
4
 74
0
 40
0
 40
0
 40
0
 40
0
 40
1
 40
1
 40
1
 40
1
 10
159.653648
 20
82.029151
 30
0.0
 10
160.030274
 20
82.029151
 30
0.0
 10
160.218092
 20
81.840803
 30
0.0
 10
160.218092
 20
81.464707
 30
0.0
  0
LWPOLYLINE
  5
22e
100
AcDbEntity
  8
ink_ext_XXXXXX
 62
7
100
AcDbPolyline
 90
2
 70
1
 10
158.035276
 20
82.029151
 30
0.0
 10
159.653648
 20
82.029151
 30
0.0
  0
SPLINE
  5
22f
100
AcDbEntity
  8
ink_ext_XXXXXX
 62
7
100
AcDbSpline
 70
8
 71
3
 72
8
 73
4
 74
0
 40
0
 40
0
 40
0
 40
0
 40
1
 40
1
 40
1
 40
1
 10
160.218092
 20
79.827042
 30
0.0
 10
160.218092
 20
79.450427
 30
0.0
 10
160.425607
 20
79.262114
 30
0.0
 10
160.783087
 20
79.262114
 30
0.0
  0
LWPOLYLINE
  5
230
100
AcDbEntity
  8
ink_ext_XXXXXX
 62
7
100
AcDbPolyline
 90
2
 70
1
 10
160.218092
 20
81.464707
 30
0.0
 10
160.218092
 20
79.827042
 30
0.0
  0
SPLINE
  5
231
100
AcDbEntity
  8
ink_ext_XXXXXX
 62
7
100
AcDbSpline
 70
8
 71
3
 72
8
 73
4
 74
0
 40
0
 40
0
 40
0
 40
0
 40
1
 40
1
 40
1
 40
1
 10
162.890934
 20
79.262114
 30
0.0
 10
163.267560
 20
79.262114
 30
0.0
 10
163.456480
 20
79.487680
 30
0.0
 10
163.456480
 20
79.902007
 30
0.0
  0
LWPOLYLINE
  5
232
100
AcDbEntity
  8
ink_ext_XXXXXX
 62
7
100
AcDbPolyline
 90
2
 70
1
 10
160.783087
 20
79.262114
 30
0.0
 10
162.890934
 20
79.262114
 30
0.0
  0
SPLINE
  5
233
100
AcDbEntity
  8
ink_ext_XXXXXX
 62
7
100
AcDbSpline
 70
8
 71
3
 72
8
 73
4
 74
0
 40
0
 40
0
 40
0
 40
0
 40
1
 40
1
 40
1
 40
1
 10
163.456480
 20
87.883605
 30
0.0
 10
163.456480
 20
90.255294
 30
0.0
 10
163.079522
 20
92.777867
 30
0.0
 10
158.843910
 20
92.777867
 30
0.0
  0
LWPOLYLINE
  5
234
100
AcDbEntity
  8
ink_ext_XXXXXX
 62
7
100
AcDbPolyline
 90
2
 70
1
 10
163.456480
 20
79.902007
 30
0.0
 10
163.456480
 20
87.883605
 30
0.0
  0
SPLINE
  5
235
100
AcDbEntity
  8
ink_ext_XXXXXX
 62
7
100
AcDbSpline
 70
8
 71
3
 72
8
 73
4
 74
0
 40
0
 40
0
 40
0
 40
0
 40
1
 40
1
 40
1
 40
1
 10
169.781125
 20
92.777867
 30
0.0
 10
165.319781
 20
92.777867
 30
0.0
 10
165.056105
 20
89.446304
 30
0.0
 10
165.056105
 20
88.203856
 30
0.0
  0
LWPOLYLINE
  5
236
100
AcDbEntity
  8
ink_ext_XXXXXX
 62
7
100
AcDbPolyline
 90
2
 70
1
 10
158.843910
 20
92.777867
 30
0.0
 10
158.843910
 20
92.777867
 30
0.0
  0
SPLINE
  5
237
100
AcDbEntity
  8
ink_ext_XXXXXX
 62
7
100
AcDbSpline
 70
8
 71
3
 72
8
 73
4
 74
0
 40
0
 40
0
 40
0
 40
0
 40
1
 40
1
 40
1
 40
1
 10
165.056105
 20
83.497589
 30
0.0
 10
165.056105
 20
82.255141
 30
0.0
 10
165.319781
 20
78.923060
 30
0.0
 10
169.781125
 20
78.923060
 30
0.0
  0
SPLINE
  5
238
100
AcDbEntity
  8
ink_ext_XXXXXX
 62
7
100
AcDbSpline
 70
8
 71
3
 72
8
 73
4
 74
0
 40
0
 40
0
 40
0
 40
0
 40
1
 40
1
 40
1
 40
1
 10
169.781125
 20
78.923060
 30
0.0
 10
173.790999
 20
78.923060
 30
0.0
 10
174.411976
 20
81.615167
 30
0.0
 10
174.487403
 20
83.045610
 30
0.0
  0
SPLINE
  5
239
100
AcDbEntity
  8
ink_ext_XXXXXX
 62
7
100
AcDbSpline
 70
8
 71
3
 72
8
 73
4
 74
0
 40
0
 40
0
 40
0
 40
0
 40
1
 40
1
 40
1
 40
1
 10
174.487403
 20
83.045610
 30
0.0
 10
174.505995
 20
83.328185
 30
0.0
 10
174.336880
 20
83.534983
 30
0.0
 10
174.072886
 20
83.591287
 30
0.0
  0
LWPOLYLINE
  5
23a
100
AcDbEntity
  8
ink_ext_XXXXXX
 62
7
100
AcDbPolyline
 90
2
 70
1
 10
165.056105
 20
88.203856
 30
0.0
 10
165.056105
 20
83.497589
 30
0.0
  0
SPLINE
  5
23b
100
AcDbEntity
  8
ink_ext_XXXXXX
 62
7
100
AcDbSpline
 70
8
 71
3
 72
8
 73
4
 74
0
 40
0
 40
0
 40
0
 40
0
 40
1
 40
1
 40
1
 40
1
 10
171.946299
 20
84.062598
 30
0.0
 10
171.569709
 20
84.156013
 30
0.0
 10
171.268348
 20
83.911538
 30
0.0
 10
171.211530
 20
83.516357
 30
0.0
  0
SPLINE
  5
23c
100
AcDbEntity
  8
ink_ext_XXXXXX
 62
7
100
AcDbSpline
 70
8
 71
3
 72
8
 73
4
 74
0
 40
0
 40
0
 40
0
 40
0
 40
1
 40
1
 40
1
 40
1
 10
171.211530
 20
83.516357
 30
0.0
 10
171.098930
 20
82.650534
 30
0.0
 10
170.816394
 20
82.160879
 30
0.0
 10
169.781125
 20
82.160879
 30
0.0
  0
SPLINE
  5
23d
100
AcDbEntity
  8
ink_ext_XXXXXX
 62
7
100
AcDbSpline
 70
8
 71
3
 72
8
 73
4
 74
0
 40
0
 40
0
 40
0
 40
0
 40
1
 40
1
 40
1
 40
1
 10
169.781125
 20
82.160879
 30
0.0
 10
168.388376
 20
82.160879
 30
0.0
 10
168.293941
 20
83.045151
 30
0.0
 10
168.293941
 20
84.495280
 30
0.0
  0
LWPOLYLINE
  5
23e
100
AcDbEntity
  8
ink_ext_XXXXXX
 62
7
100
AcDbPolyline
 90
2
 70
1
 10
174.072886
 20
83.591287
 30
0.0
 10
171.946299
 20
84.062598
 30
0.0
  0
SPLINE
  5
23f
100
AcDbEntity
  8
ink_ext_XXXXXX
 62
7
100
AcDbSpline
 70
8
 71
3
 72
8
 73
4
 74
0
 40
0
 40
0
 40
0
 40
0
 40
1
 40
1
 40
1
 40
1
 10
168.293941
 20
87.206165
 30
0.0
 10
168.293941
 20
88.655765
 30
0.0
 10
168.388376
 20
89.540002
 30
0.0
 10
169.781125
 20
89.540002
 30
0.0
  0
SPLINE
  5
240
100
AcDbEntity
  8
ink_ext_XXXXXX
 62
7
100
AcDbSpline
 70
8
 71
3
 72
8
 73
4
 74
0
 40
0
 40
0
 40
0
 40
0
 40
1
 40
1
 40
1
 40
1
 10
169.781125
 20
89.540002
 30
0.0
 10
170.797789
 20
89.540002
 30
0.0
 10
171.136282
 20
89.050735
 30
0.0
 10
171.230823
 20
88.222060
 30
0.0
  0
SPLINE
  5
241
100
AcDbEntity
  8
ink_ext_XXXXXX
 62
7
100
AcDbSpline
 70
8
 71
3
 72
8
 73
4
 74
0
 40
0
 40
0
 40
0
 40
0
 40
1
 40
1
 40
1
 40
1
 10
171.230823
 20
88.222060
 30
0.0
 10
171.287681
 20
87.826878
 30
0.0
 10
171.588036
 20
87.563423
 30
0.0
 10
171.983228
 20
87.638883
 30
0.0
  0
LWPOLYLINE
  5
242
100
AcDbEntity
  8
ink_ext_XXXXXX
 62
7
100
AcDbPolyline
 90
2
 70
1
 10
168.293941
 20
84.495280
 30
0.0
 10
168.293941
 20
87.206165
 30
0.0
  0
SPLINE
  5
243
100
AcDbEntity
  8
ink_ext_XXXXXX
 62
7
100
AcDbSpline
 70
8
 71
3
 72
8
 73
4
 74
0
 40
0
 40
0
 40
0
 40
0
 40
1
 40
1
 40
1
 40
1
 10
174.072886
 20
88.109629
 30
0.0
 10
174.336880
 20
88.165933
 30
0.0
 10
174.506005
 20
88.373119
 30
0.0
 10
174.487403
 20
88.636573
 30
0.0
  0
SPLINE
  5
244
100
AcDbEntity
  8
ink_ext_XXXXXX
 62
7
100
AcDbSpline
 70
8
 71
3
 72
8
 73
4
 74
0
 40
0
 40
0
 40
0
 40
0
 40
1
 40
1
 40
1
 40
1
 10
174.487403
 20
88.636573
 30
0.0
 10
174.411976
 20
90.086137
 30
0.0
 10
173.790999
 20
92.777867
 30
0.0
 10
169.781125
 20
92.777867
 30
0.0
  0
LWPOLYLINE
  5
245
100
AcDbEntity
  8
ink_ext_XXXXXX
 62
7
100
AcDbPolyline
 90
2
 70
1
 10
171.983228
 20
87.638883
 30
0.0
 10
174.072886
 20
88.109629
 30
0.0
  0
SPLINE
  5
246
100
AcDbEntity
  8
ink_ext_XXXXXX
 62
7
100
AcDbSpline
 70
8
 71
3
 72
8
 73
4
 74
0
 40
0
 40
0
 40
0
 40
0
 40
1
 40
1
 40
1
 40
1
 10
201.369621
 20
92.740367
 30
0.0
 10
197.153143
 20
92.740367
 30
0.0
 10
196.813969
 20
89.408486
 30
0.0
 10
196.832571
 20
88.843830
 30
0.0
  0
SPLINE
  5
247
100
AcDbEntity
  8
ink_ext_XXXXXX
 62
7
100
AcDbSpline
 70
8
 71
3
 72
8
 73
4
 74
0
 40
0
 40
0
 40
0
 40
0
 40
1
 40
1
 40
1
 40
1
 10
196.832571
 20
88.843830
 30
0.0
 10
196.832571
 20
84.514189
 30
0.0
 10
202.498778
 20
84.871447
 30
0.0
 10
202.856798
 20
83.271600
 30
0.0
  0
SPLINE
  5
248
100
AcDbEntity
  8
ink_ext_XXXXXX
 62
7
100
AcDbSpline
 70
8
 71
3
 72
8
 73
4
 74
0
 40
0
 40
0
 40
0
 40
0
 40
1
 40
1
 40
1
 40
1
 10
202.856798
 20
83.271600
 30
0.0
 10
202.969948
 20
82.763247
 30
0.0
 10
202.291736
 20
82.217641
 30
0.0
 10
201.369621
 20
82.217641
 30
0.0
  0
SPLINE
  5
249
100
AcDbEntity
  8
ink_ext_XXXXXX
 62
7
100
AcDbSpline
 70
8
 71
3
 72
8
 73
4
 74
0
 40
0
 40
0
 40
0
 40
0
 40
1
 40
1
 40
1
 40
1
 10
201.369621
 20
82.217641
 30
0.0
 10
200.485221
 20
82.217641
 30
0.0
 10
199.788108
 20
82.744020
 30
0.0
 10
199.713220
 20
83.648084
 30
0.0
  0
SPLINE
  5
24a
100
AcDbEntity
  8
ink_ext_XXXXXX
 62
7
100
AcDbSpline
 70
8
 71
3
 72
8
 73
4
 74
0
 40
0
 40
0
 40
0
 40
0
 40
1
 40
1
 40
1
 40
1
 10
199.713220
 20
83.648084
 30
0.0
 10
199.674965
 20
84.042701
 30
0.0
 10
199.468061
 20
84.212987
 30
0.0
 10
199.091999
 20
84.137528
 30
0.0
  0
LWPOLYLINE
  5
24b
100
AcDbEntity
  8
ink_ext_XXXXXX
 62
7
100
AcDbPolyline
 90
2
 70
1
 10
169.781125
 20
92.777867
 30
0.0
 10
169.781125
 20
92.777867
 30
0.0
  0
SPLINE
  5
24c
100
AcDbEntity
  8
ink_ext_XXXXXX
 62
7
100
AcDbSpline
 70
8
 71
3
 72
8
 73
4
 74
0
 40
0
 40
0
 40
0
 40
0
 40
1
 40
1
 40
1
 40
1
 10
196.964308
 20
83.666816
 30
0.0
 10
196.625398
 20
83.591393
 30
0.0
 10
196.456774
 20
83.384524
 30
0.0
 10
196.475383
 20
83.045610
 30
0.0
  0
SPLINE
  5
24d
100
AcDbEntity
  8
ink_ext_XXXXXX
 62
7
100
AcDbSpline
 70
8
 71
3
 72
8
 73
4
 74
0
 40
0
 40
0
 40
0
 40
0
 40
1
 40
1
 40
1
 40
1
 10
196.475383
 20
83.045610
 30
0.0
 10
196.569413
 20
81.578019
 30
0.0
 10
197.416047
 20
78.979857
 30
0.0
 10
201.369621
 20
78.979857
 30
0.0
  0
SPLINE
  5
24e
100
AcDbEntity
  8
ink_ext_XXXXXX
 62
7
100
AcDbSpline
 70
8
 71
3
 72
8
 73
4
 74
0
 40
0
 40
0
 40
0
 40
0
 40
1
 40
1
 40
1
 40
1
 10
201.369621
 20
78.979857
 30
0.0
 10
205.830969
 20
78.979857
 30
0.0
 10
206.471119
 20
82.311197
 30
0.0
 10
206.471119
 20
82.876383
 30
0.0
  0
SPLINE
  5
24f
100
AcDbEntity
  8
ink_ext_XXXXXX
 62
7
100
AcDbSpline
 70
8
 71
3
 72
8
 73
4
 74
0
 40
0
 40
0
 40
0
 40
0
 40
1
 40
1
 40
1
 40
1
 10
206.471119
 20
82.876383
 30
0.0
 10
206.471119
 20
87.205989
 30
0.0
 10
200.522383
 20
87.168418
 30
0.0
 10
200.258925
 20
88.636573
 30
0.0
  0
SPLINE
  5
250
100
AcDbEntity
  8
ink_ext_XXXXXX
 62
7
100
AcDbSpline
 70
8
 71
3
 72
8
 73
4
 74
0
 40
0
 40
0
 40
0
 40
0
 40
1
 40
1
 40
1
 40
1
 10
200.258925
 20
88.636573
 30
0.0
 10
200.183490
 20
89.069502
 30
0.0
 10
200.635540
 20
89.502537
 30
0.0
 10
201.369621
 20
89.502537
 30
0.0
  0
SPLINE
  5
251
100
AcDbEntity
  8
ink_ext_XXXXXX
 62
7
100
AcDbSpline
 70
8
 71
3
 72
8
 73
4
 74
0
 40
0
 40
0
 40
0
 40
0
 40
1
 40
1
 40
1
 40
1
 10
201.369621
 20
89.502537
 30
0.0
 10
202.254564
 20
89.502537
 30
0.0
 10
202.875552
 20
89.013199
 30
0.0
 10
203.007279
 20
88.241356
 30
0.0
  0
SPLINE
  5
252
100
AcDbEntity
  8
ink_ext_XXXXXX
 62
7
100
AcDbSpline
 70
8
 71
3
 72
8
 73
4
 74
0
 40
0
 40
0
 40
0
 40
0
 40
1
 40
1
 40
1
 40
1
 10
203.007279
 20
88.241356
 30
0.0
 10
203.063582
 20
87.864766
 30
0.0
 10
203.251895
 20
87.695186
 30
0.0
 10
203.628506
 20
87.770610
 30
0.0
  0
LWPOLYLINE
  5
253
100
AcDbEntity
  8
ink_ext_XXXXXX
 62
7
100
AcDbPolyline
 90
2
 70
1
 10
199.091999
 20
84.137528
 30
0.0
 10
196.964308
 20
83.666816
 30
0.0
  0
SPLINE
  5
254
100
AcDbEntity
  8
ink_ext_XXXXXX
 62
7
100
AcDbSpline
 70
8
 71
3
 72
8
 73
4
 74
0
 40
0
 40
0
 40
0
 40
0
 40
1
 40
1
 40
1
 40
1
 10
205.774383
 20
88.241356
 30
0.0
 10
206.113819
 20
88.316780
 30
0.0
 10
206.282425
 20
88.523685
 30
0.0
 10
206.263862
 20
88.862034
 30
0.0
  0
SPLINE
  5
255
100
AcDbEntity
  8
ink_ext_XXXXXX
 62
7
100
AcDbSpline
 70
8
 71
3
 72
8
 73
4
 74
0
 40
0
 40
0
 40
0
 40
0
 40
1
 40
1
 40
1
 40
1
 10
206.263862
 20
88.862034
 30
0.0
 10
206.151263
 20
90.217582
 30
0.0
 10
205.247746
 20
92.740367
 30
0.0
 10
201.369621
 20
92.740367
 30
0.0
  0
LWPOLYLINE
  5
256
100
AcDbEntity
  8
ink_ext_XXXXXX
 62
7
100
AcDbPolyline
 90
2
 70
1
 10
203.628506
 20
87.770610
 30
0.0
 10
205.774383
 20
88.241356
 30
0.0
  0
SPLINE
  5
257
100
AcDbEntity
  8
ink_ext_XXXXXX
 62
7
100
AcDbSpline
 70
8
 71
3
 72
8
 73
4
 74
0
 40
0
 40
0
 40
0
 40
0
 40
1
 40
1
 40
1
 40
1
 10
176.370348
 20
92.439412
 30
0.0
 10
176.031441
 20
92.439412
 30
0.0
 10
175.786613
 20
92.194549
 30
0.0
 10
175.786613
 20
91.855671
 30
0.0
  0
LWPOLYLINE
  5
258
100
AcDbEntity
  8
ink_ext_XXXXXX
 62
7
100
AcDbPolyline
 90
2
 70
1
 10
201.369621
 20
92.740367
 30
0.0
 10
201.369621
 20
92.740367
 30
0.0
  0
SPLINE
  5
259
100
AcDbEntity
  8
ink_ext_XXXXXX
 62
7
100
AcDbSpline
 70
8
 71
3
 72
8
 73
4
 74
0
 40
0
 40
0
 40
0
 40
0
 40
1
 40
1
 40
1
 40
1
 10
175.786613
 20
79.845810
 30
0.0
 10
175.786613
 20
79.506942
 30
0.0
 10
176.031441
 20
79.262114
 30
0.0
 10
176.370348
 20
79.262114
 30
0.0
  0
LWPOLYLINE
  5
25a
100
AcDbEntity
  8
ink_ext_XXXXXX
 62
7
100
AcDbPolyline
 90
2
 70
1
 10
175.786613
 20
91.855671
 30
0.0
 10
175.786613
 20
79.845810
 30
0.0
  0
SPLINE
  5
25b
100
AcDbEntity
  8
ink_ext_XXXXXX
 62
7
100
AcDbSpline
 70
8
 71
3
 72
8
 73
4
 74
0
 40
0
 40
0
 40
0
 40
0
 40
1
 40
1
 40
1
 40
1
 10
178.478752
 20
79.262114
 30
0.0
 10
178.817666
 20
79.262114
 30
0.0
 10
179.062494
 20
79.506942
 30
0.0
 10
179.062494
 20
79.845810
 30
0.0
  0
LWPOLYLINE
  5
25c
100
AcDbEntity
  8
ink_ext_XXXXXX
 62
7
100
AcDbPolyline
 90
2
 70
1
 10
176.370348
 20
79.262114
 30
0.0
 10
178.478752
 20
79.262114
 30
0.0
  0
SPLINE
  5
25d
100
AcDbEntity
  8
ink_ext_XXXXXX
 62
7
100
AcDbSpline
 70
8
 71
3
 72
8
 73
4
 74
0
 40
0
 40
0
 40
0
 40
0
 40
1
 40
1
 40
1
 40
1
 10
179.062494
 20
82.819585
 30
0.0
 10
179.062494
 20
83.158499
 30
0.0
 10
179.307311
 20
83.403327
 30
0.0
 10
179.646224
 20
83.403327
 30
0.0
  0
LWPOLYLINE
  5
25e
100
AcDbEntity
  8
ink_ext_XXXXXX
 62
7
100
AcDbPolyline
 90
2
 70
1
 10
179.062494
 20
79.845810
 30
0.0
 10
179.062494
 20
82.819585
 30
0.0
  0
SPLINE
  5
25f
100
AcDbEntity
  8
ink_ext_XXXXXX
 62
7
100
AcDbSpline
 70
8
 71
3
 72
8
 73
4
 74
0
 40
0
 40
0
 40
0
 40
0
 40
1
 40
1
 40
1
 40
1
 10
180.398636
 20
83.403327
 30
0.0
 10
180.454911
 20
83.403327
 30
0.0
 10
180.511906
 20
83.365932
 30
0.0
 10
180.549113
 20
83.309629
 30
0.0
  0
LWPOLYLINE
  5
260
100
AcDbEntity
  8
ink_ext_XXXXXX
 62
7
100
AcDbPolyline
 90
2
 70
1
 10
179.646224
 20
83.403327
 30
0.0
 10
180.398636
 20
83.403327
 30
0.0
  0
SPLINE
  5
261
100
AcDbEntity
  8
ink_ext_XXXXXX
 62
7
100
AcDbSpline
 70
8
 71
3
 72
8
 73
4
 74
0
 40
0
 40
0
 40
0
 40
0
 40
1
 40
1
 40
1
 40
1
 10
182.507033
 20
79.526098
 30
0.0
 10
182.582461
 20
79.356094
 30
0.0
 10
182.751713
 20
79.262114
 30
0.0
 10
182.939737
 20
79.262114
 30
0.0
  0
LWPOLYLINE
  5
262
100
AcDbEntity
  8
ink_ext_XXXXXX
 62
7
100
AcDbPolyline
 90
2
 70
1
 10
180.549113
 20
83.309629
 30
0.0
 10
182.507033
 20
79.526098
 30
0.0
  0
SPLINE
  5
263
100
AcDbEntity
  8
ink_ext_XXXXXX
 62
7
100
AcDbSpline
 70
8
 71
3
 72
8
 73
4
 74
0
 40
0
 40
0
 40
0
 40
0
 40
1
 40
1
 40
1
 40
1
 10
185.085617
 20
79.262114
 30
0.0
 10
185.669492
 20
79.262114
 30
0.0
 10
185.970874
 20
79.788801
 30
0.0
 10
185.707388
 20
80.278527
 30
0.0
  0
LWPOLYLINE
  5
264
100
AcDbEntity
  8
ink_ext_XXXXXX
 62
7
100
AcDbPolyline
 90
2
 70
1
 10
182.939737
 20
79.262114
 30
0.0
 10
185.085617
 20
79.262114
 30
0.0
  0
SPLINE
  5
265
100
AcDbEntity
  8
ink_ext_XXXXXX
 62
7
100
AcDbSpline
 70
8
 71
3
 72
8
 73
4
 74
0
 40
0
 40
0
 40
0
 40
0
 40
1
 40
1
 40
1
 40
1
 10
183.711438
 20
83.987068
 30
0.0
 10
183.674266
 20
84.081083
 30
0.0
 10
183.693340
 20
84.174993
 30
0.0
 10
183.768768
 20
84.231261
 30
0.0
  0
SPLINE
  5
266
100
AcDbEntity
  8
ink_ext_XXXXXX
 62
7
100
AcDbSpline
 70
8
 71
3
 72
8
 73
4
 74
0
 40
0
 40
0
 40
0
 40
0
 40
1
 40
1
 40
1
 40
1
 10
183.768768
 20
84.231261
 30
0.0
 10
184.766318
 20
84.946765
 30
0.0
 10
185.199172
 20
86.170339
 30
0.0
 10
185.199172
 20
87.921105
 30
0.0
  0
SPLINE
  5
267
100
AcDbEntity
  8
ink_ext_XXXXXX
 62
7
100
AcDbSpline
 70
8
 71
3
 72
8
 73
4
 74
0
 40
0
 40
0
 40
0
 40
0
 40
1
 40
1
 40
1
 40
1
 10
185.199172
 20
87.921105
 30
0.0
 10
185.199172
 20
91.008828
 30
0.0
 10
183.843585
 20
92.439412
 30
0.0
 10
180.492891
 20
92.439412
 30
0.0
  0
LWPOLYLINE
  5
268
100
AcDbEntity
  8
ink_ext_XXXXXX
 62
7
100
AcDbPolyline
 90
2
 70
1
 10
185.707388
 20
80.278527
 30
0.0
 10
183.711438
 20
83.987068
 30
0.0
  0
SPLINE
  5
269
100
AcDbEntity
  8
ink_ext_XXXXXX
 62
7
100
AcDbSpline
 70
8
 71
3
 72
8
 73
4
 74
0
 40
0
 40
0
 40
0
 40
0
 40
1
 40
1
 40
1
 40
1
 10
187.514274
 20
92.439412
 30
0.0
 10
187.156797
 20
92.439412
 30
0.0
 10
186.949829
 20
92.250500
 30
0.0
 10
186.949829
 20
91.874403
 30
0.0
  0
LWPOLYLINE
  5
26a
100
AcDbEntity
  8
ink_ext_XXXXXX
 62
7
100
AcDbPolyline
 90
3
 70
1
 10
180.492891
 20
92.439412
 30
0.0
 10
176.370348
 20
92.439412
 30
0.0
 10
176.370348
 20
92.439412
 30
0.0
  0
SPLINE
  5
26b
100
AcDbEntity
  8
ink_ext_XXXXXX
 62
7
100
AcDbSpline
 70
8
 71
3
 72
8
 73
4
 74
0
 40
0
 40
0
 40
0
 40
0
 40
1
 40
1
 40
1
 40
1
 10
186.949829
 20
79.827042
 30
0.0
 10
186.949829
 20
79.469054
 30
0.0
 10
187.156797
 20
79.262114
 30
0.0
 10
187.514274
 20
79.262114
 30
0.0
  0
LWPOLYLINE
  5
26c
100
AcDbEntity
  8
ink_ext_XXXXXX
 62
7
100
AcDbPolyline
 90
2
 70
1
 10
186.949829
 20
91.874403
 30
0.0
 10
186.949829
 20
79.827042
 30
0.0
  0
SPLINE
  5
26d
100
AcDbEntity
  8
ink_ext_XXXXXX
 62
7
100
AcDbSpline
 70
8
 71
3
 72
8
 73
4
 74
0
 40
0
 40
0
 40
0
 40
0
 40
1
 40
1
 40
1
 40
1
 10
195.420906
 20
79.262114
 30
0.0
 10
195.797496
 20
79.262114
 30
0.0
 10
195.985350
 20
79.450427
 30
0.0
 10
195.985350
 20
79.827042
 30
0.0
  0
LWPOLYLINE
  5
26e
100
AcDbEntity
  8
ink_ext_XXXXXX
 62
7
100
AcDbPolyline
 90
2
 70
1
 10
187.514274
 20
79.262114
 30
0.0
 10
195.420906
 20
79.262114
 30
0.0
  0
SPLINE
  5
26f
100
AcDbEntity
  8
ink_ext_XXXXXX
 62
7
100
AcDbSpline
 70
8
 71
3
 72
8
 73
4
 74
0
 40
0
 40
0
 40
0
 40
0
 40
1
 40
1
 40
1
 40
1
 10
195.985350
 20
81.935454
 30
0.0
 10
195.985350
 20
82.311515
 30
0.0
 10
195.797496
 20
82.499898
 30
0.0
 10
195.420906
 20
82.499898
 30
0.0
  0
LWPOLYLINE
  5
270
100
AcDbEntity
  8
ink_ext_XXXXXX
 62
7
100
AcDbPolyline
 90
2
 70
1
 10
195.985350
 20
79.827042
 30
0.0
 10
195.985350
 20
81.935454
 30
0.0
  0
SPLINE
  5
271
100
AcDbEntity
  8
ink_ext_XXXXXX
 62
7
100
AcDbSpline
 70
8
 71
3
 72
8
 73
4
 74
0
 40
0
 40
0
 40
0
 40
0
 40
1
 40
1
 40
1
 40
1
 10
190.865663
 20
82.499898
 30
0.0
 10
190.507643
 20
82.499898
 30
0.0
 10
190.301218
 20
82.706838
 30
0.0
 10
190.301218
 20
83.064343
 30
0.0
  0
LWPOLYLINE
  5
272
100
AcDbEntity
  8
ink_ext_XXXXXX
 62
7
100
AcDbPolyline
 90
2
 70
1
 10
195.420906
 20
82.499898
 30
0.0
 10
190.865663
 20
82.499898
 30
0.0
  0
SPLINE
  5
273
100
AcDbEntity
  8
ink_ext_XXXXXX
 62
7
100
AcDbSpline
 70
8
 71
3
 72
8
 73
4
 74
0
 40
0
 40
0
 40
0
 40
0
 40
1
 40
1
 40
1
 40
1
 10
190.301218
 20
83.666816
 30
0.0
 10
190.301218
 20
84.042842
 30
0.0
 10
190.507643
 20
84.231261
 30
0.0
 10
190.865663
 20
84.231261
 30
0.0
  0
LWPOLYLINE
  5
274
100
AcDbEntity
  8
ink_ext_XXXXXX
 62
7
100
AcDbPolyline
 90
2
 70
1
 10
190.301218
 20
83.064343
 30
0.0
 10
190.301218
 20
83.666816
 30
0.0
  0
SPLINE
  5
275
100
AcDbEntity
  8
ink_ext_XXXXXX
 62
7
100
AcDbSpline
 70
8
 71
3
 72
8
 73
4
 74
0
 40
0
 40
0
 40
0
 40
0
 40
1
 40
1
 40
1
 40
1
 10
193.783244
 20
84.231261
 30
0.0
 10
194.159330
 20
84.231261
 30
0.0
 10
194.348239
 20
84.438800
 30
0.0
 10
194.348239
 20
84.796235
 30
0.0
  0
LWPOLYLINE
  5
276
100
AcDbEntity
  8
ink_ext_XXXXXX
 62
7
100
AcDbPolyline
 90
2
 70
1
 10
190.865663
 20
84.231261
 30
0.0
 10
193.783244
 20
84.231261
 30
0.0
  0
SPLINE
  5
277
100
AcDbEntity
  8
ink_ext_XXXXXX
 62
7
100
AcDbSpline
 70
8
 71
3
 72
8
 73
4
 74
0
 40
0
 40
0
 40
0
 40
0
 40
1
 40
1
 40
1
 40
1
 10
194.348239
 20
86.904646
 30
0.0
 10
194.348239
 20
87.280707
 30
0.0
 10
194.159330
 20
87.469655
 30
0.0
 10
193.783244
 20
87.469655
 30
0.0
  0
LWPOLYLINE
  5
278
100
AcDbEntity
  8
ink_ext_XXXXXX
 62
7
100
AcDbPolyline
 90
2
 70
1
 10
194.348239
 20
84.796235
 30
0.0
 10
194.348239
 20
86.904646
 30
0.0
  0
SPLINE
  5
279
100
AcDbEntity
  8
ink_ext_XXXXXX
 62
7
100
AcDbSpline
 70
8
 71
3
 72
8
 73
4
 74
0
 40
0
 40
0
 40
0
 40
0
 40
1
 40
1
 40
1
 40
1
 10
190.865663
 20
87.469655
 30
0.0
 10
190.507643
 20
87.469655
 30
0.0
 10
190.301218
 20
87.676595
 30
0.0
 10
190.301218
 20
88.034100
 30
0.0
  0
LWPOLYLINE
  5
27a
100
AcDbEntity
  8
ink_ext_XXXXXX
 62
7
100
AcDbPolyline
 90
2
 70
1
 10
193.783244
 20
87.469655
 30
0.0
 10
190.865663
 20
87.469655
 30
0.0
  0
SPLINE
  5
27b
100
AcDbEntity
  8
ink_ext_XXXXXX
 62
7
100
AcDbSpline
 70
8
 71
3
 72
8
 73
4
 74
0
 40
0
 40
0
 40
0
 40
0
 40
1
 40
1
 40
1
 40
1
 10
190.301218
 20
88.636573
 30
0.0
 10
190.301218
 20
89.013199
 30
0.0
 10
190.507643
 20
89.201018
 30
0.0
 10
190.865663
 20
89.201018
 30
0.0
  0
LWPOLYLINE
  5
27c
100
AcDbEntity
  8
ink_ext_XXXXXX
 62
7
100
AcDbPolyline
 90
2
 70
1
 10
190.301218
 20
88.034100
 30
0.0
 10
190.301218
 20
88.636573
 30
0.0
  0
SPLINE
  5
27d
100
AcDbEntity
  8
ink_ext_XXXXXX
 62
7
100
AcDbSpline
 70
8
 71
3
 72
8
 73
4
 74
0
 40
0
 40
0
 40
0
 40
0
 40
1
 40
1
 40
1
 40
1
 10
195.420906
 20
89.201018
 30
0.0
 10
195.797496
 20
89.201018
 30
0.0
 10
195.985350
 20
89.408592
 30
0.0
 10
195.985350
 20
89.766027
 30
0.0
  0
LWPOLYLINE
  5
27e
100
AcDbEntity
  8
ink_ext_XXXXXX
 62
7
100
AcDbPolyline
 90
2
 70
1
 10
190.865663
 20
89.201018
 30
0.0
 10
195.420906
 20
89.201018
 30
0.0
  0
SPLINE
  5
27f
100
AcDbEntity
  8
ink_ext_XXXXXX
 62
7
100
AcDbSpline
 70
8
 71
3
 72
8
 73
4
 74
0
 40
0
 40
0
 40
0
 40
0
 40
1
 40
1
 40
1
 40
1
 10
195.985350
 20
91.874403
 30
0.0
 10
195.985350
 20
92.250500
 30
0.0
 10
195.797496
 20
92.439412
 30
0.0
 10
195.420906
 20
92.439412
 30
0.0
  0
LWPOLYLINE
  5
280
100
AcDbEntity
  8
ink_ext_XXXXXX
 62
7
100
AcDbPolyline
 90
2
 70
1
 10
195.985350
 20
89.766027
 30
0.0
 10
195.985350
 20
91.874403
 30
0.0
  0
SPLINE
  5
281
100
AcDbEntity
  8
ink_ext_XXXXXX
 62
7
100
AcDbSpline
 70
8
 71
3
 72
8
 73
4
 74
0
 40
0
 40
0
 40
0
 40
0
 40
1
 40
1
 40
1
 40
1
 10
158.843910
 20
89.239047
 30
0.0
 10
160.086312
 20
89.239047
 30
0.0
 10
160.218092
 20
88.786575
 30
0.0
 10
160.218092
 20
87.883605
 30
0.0
  0
LWPOLYLINE
  5
282
100
AcDbEntity
  8
ink_ext_XXXXXX
 62
7
100
AcDbPolyline
 90
3
 70
1
 10
195.420906
 20
92.439412
 30
0.0
 10
187.514274
 20
92.439412
 30
0.0
 10
187.514274
 20
92.439412
 30
0.0
  0
SPLINE
  5
283
100
AcDbEntity
  8
ink_ext_XXXXXX
 62
7
100
AcDbSpline
 70
8
 71
3
 72
8
 73
4
 74
0
 40
0
 40
0
 40
0
 40
0
 40
1
 40
1
 40
1
 40
1
 10
160.218092
 20
85.850758
 30
0.0
 10
160.218092
 20
85.474661
 30
0.0
 10
160.030274
 20
85.286172
 30
0.0
 10
159.653648
 20
85.267546
 30
0.0
  0
LWPOLYLINE
  5
284
100
AcDbEntity
  8
ink_ext_XXXXXX
 62
7
100
AcDbPolyline
 90
2
 70
1
 10
160.218092
 20
87.883605
 30
0.0
 10
160.218092
 20
85.850758
 30
0.0
  0
SPLINE
  5
285
100
AcDbEntity
  8
ink_ext_XXXXXX
 62
7
100
AcDbSpline
 70
8
 71
3
 72
8
 73
4
 74
0
 40
0
 40
0
 40
0
 40
0
 40
1
 40
1
 40
1
 40
1
 10
158.035276
 20
85.267546
 30
0.0
 10
157.677256
 20
85.267546
 30
0.0
 10
157.469731
 20
85.474520
 30
0.0
 10
157.469731
 20
85.831990
 30
0.0
  0
LWPOLYLINE
  5
286
100
AcDbEntity
  8
ink_ext_XXXXXX
 62
7
100
AcDbPolyline
 90
2
 70
1
 10
159.653648
 20
85.267546
 30
0.0
 10
158.035276
 20
85.267546
 30
0.0
  0
SPLINE
  5
287
100
AcDbEntity
  8
ink_ext_XXXXXX
 62
7
100
AcDbSpline
 70
8
 71
3
 72
8
 73
4
 74
0
 40
0
 40
0
 40
0
 40
0
 40
1
 40
1
 40
1
 40
1
 10
157.469731
 20
87.883605
 30
0.0
 10
157.469731
 20
88.786575
 30
0.0
 10
157.602016
 20
89.239047
 30
0.0
 10
158.843910
 20
89.239047
 30
0.0
  0
LWPOLYLINE
  5
288
100
AcDbEntity
  8
ink_ext_XXXXXX
 62
7
100
AcDbPolyline
 90
2
 70
1
 10
157.469731
 20
85.831990
 30
0.0
 10
157.469731
 20
87.883605
 30
0.0
  0
LWPOLYLINE
  5
289
100
AcDbEntity
  8
ink_ext_XXXXXX
 62
7
100
AcDbPolyline
 90
2
 70
1
 10
158.843910
 20
89.239047
 30
0.0
 10
158.843910
 20
89.239047
 30
0.0
  0
SPLINE
  5
28a
100
AcDbEntity
  8
ink_ext_XXXXXX
 62
7
100
AcDbSpline
 70
8
 71
3
 72
8
 73
4
 74
0
 40
0
 40
0
 40
0
 40
0
 40
1
 40
1
 40
1
 40
1
 10
180.605893
 20
89.200983
 30
0.0
 10
181.509456
 20
89.200983
 30
0.0
 10
181.960778
 20
89.088623
 30
0.0
 10
181.960778
 20
87.921070
 30
0.0
  0
SPLINE
  5
28b
100
AcDbEntity
  8
ink_ext_XXXXXX
 62
7
100
AcDbSpline
 70
8
 71
3
 72
8
 73
4
 74
0
 40
0
 40
0
 40
0
 40
0
 40
1
 40
1
 40
1
 40
1
 10
181.960778
 20
87.921070
 30
0.0
 10
181.960778
 20
86.754081
 30
0.0
 10
181.509456
 20
86.640592
 30
0.0
 10
180.605893
 20
86.640592
 30
0.0
  0
LWPOLYLINE
  5
28c
100
AcDbEntity
  8
ink_ext_XXXXXX
 62
7
100
AcDbPolyline
 90
2
 70
1
 10
179.646224
 20
89.200983
 30
0.0
 10
180.605893
 20
89.200983
 30
0.0
  0
SPLINE
  5
28d
100
AcDbEntity
  8
ink_ext_XXXXXX
 62
7
100
AcDbSpline
 70
8
 71
3
 72
8
 73
4
 74
0
 40
0
 40
0
 40
0
 40
0
 40
1
 40
1
 40
1
 40
1
 10
179.646224
 20
86.640592
 30
0.0
 10
179.307311
 20
86.640592
 30
0.0
 10
179.062494
 20
86.886513
 30
0.0
 10
179.062494
 20
87.224898
 30
0.0
  0
LWPOLYLINE
  5
28e
100
AcDbEntity
  8
ink_ext_XXXXXX
 62
7
100
AcDbPolyline
 90
2
 70
1
 10
180.605893
 20
86.640592
 30
0.0
 10
179.646224
 20
86.640592
 30
0.0
  0
SPLINE
  5
28f
100
AcDbEntity
  8
ink_ext_XXXXXX
 62
7
100
AcDbSpline
 70
8
 71
3
 72
8
 73
4
 74
0
 40
0
 40
0
 40
0
 40
0
 40
1
 40
1
 40
1
 40
1
 10
179.062494
 20
88.617806
 30
0.0
 10
179.062494
 20
88.956684
 30
0.0
 10
179.307311
 20
89.200983
 30
0.0
 10
179.646224
 20
89.200983
 30
0.0
  0
LWPOLYLINE
  5
290
100
AcDbEntity
  8
ink_ext_XXXXXX
 62
7
100
AcDbPolyline
 90
2
 70
1
 10
179.062494
 20
87.224898
 30
0.0
 10
179.062494
 20
88.617806
 30
0.0
  0
LWPOLYLINE
  5
291
100
AcDbEntity
  8
ink_ext_XXXXXX
 62
7
100
AcDbPolyline
 90
2
 70
1
 10
179.646224
 20
89.200983
 30
0.0
 10
179.646224
 20
89.200983
 30
0.0
  0
ENDSEC
  0
SECTION
  2
OBJECTS
  0
DICTIONARY
  5
C
330
0
100
AcDbDictionary
  3
ACAD_GROUP
350
D
  3
ACAD_MLINESTYLE
350
17
  0
DICTIONARY
  5
D
330
C
100
AcDbDictionary
  0
DICTIONARY
  5
1A
330
C
100
AcDbDictionary
  0
DICTIONARY
  5
17
330
C
100
AcDbDictionary
  3
STANDARD
350
18
  0
DICTIONARY
  5
19
330
C
100
AcDbDictionary
  0
ENDSEC
  0
EOF
