  0
SECTION
  2
HEADER
  9
$ACADVER
  1
AC1014
  9
$HANDSEED
  5
FFFF
  9
$MEASUREMENT
 70
     1
  0
ENDSEC
  0
SECTION
  2
TABLES
  0
TABLE
  2
VPORT
  5
8
330
0
100
AcDbSymbolTable
 70
     4
  0
VPORT
  5
2E
330
8
100
AcDbSymbolTableRecord
100
AcDbViewportTableRecord
  2
*ACTIVE
 70
     0
 10
0.0
 20
0.0
 11
1.0
 21
1.0
 12
210.0
 22
148.5
 13
0.0
 23
0.0
 14
10.0
 24
10.0
 15
10.0
 25
10.0
 16
0.0
 26
0.0
 36
1.0
 17
0.0
 27
0.0
 37
0.0
 40
341.0
 41
1.24
 42
50.0
 43
0.0
 44
0.0
 50
0.0
 51
0.0
 71
     0
 72
   100
 73
     1
 74
     3
 75
     0
 76
     0
 77
     0
 78
     0
  0
ENDTAB
  0
TABLE
  2
LTYPE
  5
5
330
0
100
AcDbSymbolTable
 70
     1
  0
LTYPE
  5
14
330
5
100
AcDbSymbolTableRecord
100
AcDbLinetypeTableRecord
  2
BYBLOCK
 70
     0
  3

 72
    65
 73
     0
 40
0.0
  0
LTYPE
  5
15
330
5
100
AcDbSymbolTableRecord
100
AcDbLinetypeTableRecord
  2
BYLAYER
 70
     0
  3

 72
    65
 73
     0
 40
0.0
  0
LTYPE
  5
16
330
5
100
AcDbSymbolTableRecord
100
AcDbLinetypeTableRecord
  2
CONTINUOUS
 70
     0
  3
Solid line
 72
    65
 73
     0
 40
0.0
  0
ENDTAB
  0
TABLE
  2
LAYER
  5
2
100
AcDbSymbolTable
 70
2
  0
LAYER
  5
50
100
AcDbSymbolTableRecord
100
AcDbLayerTableRecord
  2
0
 70
0
  6
CONTINUOUS
  0
LAYER
  5
51
100
AcDbSymbolTableRecord
100
AcDbLayerTableRecord
  2
ink_ext_XXXXXX
 70
0
  6
CONTINUOUS
  0
ENDTAB
  0
TABLE
  2
STYLE
  5
3
330
0
100
AcDbSymbolTable
 70
     1
  0
STYLE
  5
11
330
3
100
AcDbSymbolTableRecord
100
AcDbTextStyleTableRecord
  2
STANDARD
 70
     0
 40
0.0
 41
1.0
 50
0.0
 71
     0
 42
2.5
  3
txt
  4

  0
ENDTAB
  0
TABLE
  2
VIEW
  5
6
330
0
100
AcDbSymbolTable
 70
     0
  0
ENDTAB
  0
TABLE
  2
UCS
  5
7
330
0
100
AcDbSymbolTable
 70
     0
  0
ENDTAB
  0
TABLE
  2
APPID
  5
9
330
0
100
AcDbSymbolTable
 70
     2
  0
APPID
  5
12
330
9
100
AcDbSymbolTableRecord
100
AcDbRegAppTableRecord
  2
ACAD
 70
     0
  0
ENDTAB
  0
TABLE
  2
DIMSTYLE
  5
A
330
0
100
AcDbSymbolTable
 70
     1
  0
DIMSTYLE
105
27
330
A
100
AcDbSymbolTableRecord
100
AcDbDimStyleTableRecord
  2
ISO-25
 70
     0
  3

  4

  5

  6

  7

 40
1.0
 41
2.5
 42
0.625
 43
3.75
 44
1.25
 45
0.0
 46
0.0
 47
0.0
 48
0.0
140
2.5
141
2.5
142
0.0
143
0.03937007874016
144
1.0
145
0.0
146
1.0
147
0.625
 71
     0
 72
     0
 73
     0
 74
     0
 75
     0
 76
     0
 77
     1
 78
     8
170
     0
171
     3
172
     1
173
     0
174
     0
175
     0
176
     0
177
     0
178
     0
270
     2
271
     2
272
     2
273
     2
274
     3
340
11
275
     0
280
     0
281
     0
282
     0
283
     0
284
     8
285
     0
286
     0
287
     3
288
     0
  0
ENDTAB
  0
TABLE
  2
BLOCK_RECORD
  5
1
330
0
100
AcDbSymbolTable
 70
     1
  0
BLOCK_RECORD
  5
1F
330
1
100
AcDbSymbolTableRecord
100
AcDbBlockTableRecord
  2
*MODEL_SPACE
  0
BLOCK_RECORD
  5
1B
330
1
100
AcDbSymbolTableRecord
100
AcDbBlockTableRecord
  2
*PAPER_SPACE
  0
ENDTAB
  0
ENDSEC
  0
SECTION
  2
BLOCKS
  0
BLOCK
  5
20
330
1F
100
AcDbEntity
  8
0
100
AcDbBlockBegin
  2
*MODEL_SPACE
 70
     0
 10
0.0
 20
0.0
 30
0.0
  3
*MODEL_SPACE
  1

  0
ENDBLK
  5
21
330
1F
100
AcDbEntity
  8
0
100
AcDbBlockEnd
  0
BLOCK
  5
1C
330
1B
100
AcDbEntity
 67
     1
  8
0
100
AcDbBlockBegin
  2
*PAPER_SPACE
  1

  0
ENDBLK
  5
1D
330
1B
100
AcDbEntity
 67
     1
  8
0
100
AcDbBlockEnd
  0
ENDSEC
  0
SECTION
  2
ENTITIES
  0
SPLINE
  5
100
100
AcDbEntity
  8
ink_ext_XXXXXX
 62
7
100
AcDbSpline
 70
8
 71
3
 72
8
 73
4
 74
0
 40
0
 40
0
 40
0
 40
0
 40
1
 40
1
 40
1
 40
1
 10
71.699926
 20
87.101629
 30
0.0
 10
71.657172
 20
89.445950
 30
0.0
 10
69.722167
 20
91.311756
 30
0.0
 10
67.377846
 20
91.268999
 30
0.0
  0
SPLINE
  5
101
100
AcDbEntity
  8
ink_ext_XXXXXX
 62
7
100
AcDbSpline
 70
8
 71
3
 72
8
 73
4
 74
0
 40
0
 40
0
 40
0
 40
0
 40
1
 40
1
 40
1
 40
1
 10
67.377846
 20
91.268999
 30
0.0
 10
65.033672
 20
91.226006
 30
0.0
 10
63.167866
 20
89.291000
 30
0.0
 10
63.210713
 20
86.947065
 30
0.0
  0
SPLINE
  5
102
100
AcDbEntity
  8
ink_ext_XXXXXX
 62
7
100
AcDbSpline
 70
8
 71
3
 72
8
 73
4
 74
0
 40
0
 40
0
 40
0
 40
0
 40
1
 40
1
 40
1
 40
1
 10
63.210713
 20
86.947065
 30
0.0
 10
63.253469
 20
84.602745
 30
0.0
 10
65.231769
 20
80.360554
 30
0.0
 10
67.575851
 20
80.403162
 30
0.0
  0
SPLINE
  5
103
100
AcDbEntity
  8
ink_ext_XXXXXX
 62
7
100
AcDbSpline
 70
8
 71
3
 72
8
 73
4
 74
0
 40
0
 40
0
 40
0
 40
0
 40
1
 40
1
 40
1
 40
1
 10
67.575851
 20
80.403162
 30
0.0
 10
69.920174
 20
80.445915
 30
0.0
 10
71.742534
 20
84.757548
 30
0.0
 10
71.699926
 20
87.101629
 30
0.0
  0
SPLINE
  5
104
100
AcDbEntity
  8
ink_ext_XXXXXX
 62
7
100
AcDbSpline
 70
8
 71
3
 72
8
 73
4
 74
0
 40
0
 40
0
 40
0
 40
0
 40
1
 40
1
 40
1
 40
1
 10
78.003705
 20
75.610263
 30
0.0
 10
79.910758
 20
76.974093
 30
0.0
 10
80.351194
 20
79.625719
 30
0.0
 10
78.987364
 20
81.533054
 30
0.0
  0
SPLINE
  5
105
100
AcDbEntity
  8
ink_ext_XXXXXX
 62
7
100
AcDbSpline
 70
8
 71
3
 72
8
 73
4
 74
0
 40
0
 40
0
 40
0
 40
0
 40
1
 40
1
 40
1
 40
1
 10
78.987364
 20
81.533054
 30
0.0
 10
77.623534
 20
83.440107
 30
0.0
 10
74.971908
 20
83.880543
 30
0.0
 10
73.064855
 20
82.516713
 30
0.0
  0
SPLINE
  5
106
100
AcDbEntity
  8
ink_ext_XXXXXX
 62
7
100
AcDbSpline
 70
8
 71
3
 72
8
 73
4
 74
0
 40
0
 40
0
 40
0
 40
0
 40
1
 40
1
 40
1
 40
1
 10
73.064855
 20
82.516713
 30
0.0
 10
71.157802
 20
81.152882
 30
0.0
 10
68.783842
 20
77.118559
 30
0.0
 10
70.147672
 20
75.211505
 30
0.0
  0
SPLINE
  5
107
100
AcDbEntity
  8
ink_ext_XXXXXX
 62
7
100
AcDbSpline
 70
8
 71
3
 72
8
 73
4
 74
0
 40
0
 40
0
 40
0
 40
0
 40
1
 40
1
 40
1
 40
1
 10
70.147672
 20
75.211505
 30
0.0
 10
71.511502
 20
73.304452
 30
0.0
 10
76.096652
 20
74.246433
 30
0.0
 10
78.003705
 20
75.610263
 30
0.0
  0
SPLINE
  5
108
100
AcDbEntity
  8
ink_ext_XXXXXX
 62
7
100
AcDbSpline
 70
8
 71
3
 72
8
 73
4
 74
0
 40
0
 40
0
 40
0
 40
0
 40
1
 40
1
 40
1
 40
1
 10
93.452251
 20
72.826290
 30
0.0
 10
94.806087
 20
74.740732
 30
0.0
 10
94.351537
 20
77.389973
 30
0.0
 10
92.437188
 20
78.743547
 30
0.0
  0
SPLINE
  5
109
100
AcDbEntity
  8
ink_ext_XXXXXX
 62
7
100
AcDbSpline
 70
8
 71
3
 72
8
 73
4
 74
0
 40
0
 40
0
 40
0
 40
0
 40
1
 40
1
 40
1
 40
1
 10
92.437188
 20
78.743547
 30
0.0
 10
90.522841
 20
80.097118
 30
0.0
 10
87.873600
 20
79.642568
 30
0.0
 10
86.519761
 20
77.728126
 30
0.0
  0
SPLINE
  5
10a
100
AcDbEntity
  8
ink_ext_XXXXXX
 62
7
100
AcDbSpline
 70
8
 71
3
 72
8
 73
4
 74
0
 40
0
 40
0
 40
0
 40
0
 40
1
 40
1
 40
1
 40
1
 10
86.519761
 20
77.728126
 30
0.0
 10
85.166190
 20
75.813776
 30
0.0
 10
84.248625
 20
71.223765
 30
0.0
 10
86.162710
 20
69.870101
 30
0.0
  0
SPLINE
  5
10b
100
AcDbEntity
  8
ink_ext_XXXXXX
 62
7
100
AcDbSpline
 70
8
 71
3
 72
8
 73
4
 74
0
 40
0
 40
0
 40
0
 40
0
 40
1
 40
1
 40
1
 40
1
 10
86.162710
 20
69.870101
 30
0.0
 10
88.077054
 20
68.516530
 30
0.0
 10
92.098683
 20
70.911943
 30
0.0
 10
93.452251
 20
72.826290
 30
0.0
  0
SPLINE
  5
10c
100
AcDbEntity
  8
ink_ext_XXXXXX
 62
7
100
AcDbSpline
 70
8
 71
3
 72
8
 73
4
 74
0
 40
0
 40
0
 40
0
 40
0
 40
1
 40
1
 40
1
 40
1
 10
93.692584
 20
71.118376
 30
0.0
 10
91.969737
 20
69.527854
 30
0.0
 10
91.862602
 20
66.842035
 30
0.0
 10
93.453093
 20
65.119466
 30
0.0
  0
SPLINE
  5
10d
100
AcDbEntity
  8
ink_ext_XXXXXX
 62
7
100
AcDbSpline
 70
8
 71
3
 72
8
 73
4
 74
0
 40
0
 40
0
 40
0
 40
0
 40
1
 40
1
 40
1
 40
1
 10
93.453093
 20
65.119466
 30
0.0
 10
95.043579
 20
63.396904
 30
0.0
 10
97.729398
 20
63.289766
 30
0.0
 10
99.452242
 20
64.880285
 30
0.0
  0
SPLINE
  5
10e
100
AcDbEntity
  8
ink_ext_XXXXXX
 62
7
100
AcDbSpline
 70
8
 71
3
 72
8
 73
4
 74
0
 40
0
 40
0
 40
0
 40
0
 40
1
 40
1
 40
1
 40
1
 10
99.452242
 20
64.880285
 30
0.0
 10
101.174811
 20
66.470776
 30
0.0
 10
103.028150
 20
70.769058
 30
0.0
 10
101.437943
 20
72.491663
 30
0.0
  0
SPLINE
  5
10f
100
AcDbEntity
  8
ink_ext_XXXXXX
 62
7
100
AcDbSpline
 70
8
 71
3
 72
8
 73
4
 74
0
 40
0
 40
0
 40
0
 40
0
 40
1
 40
1
 40
1
 40
1
 10
101.437943
 20
72.491663
 30
0.0
 10
99.847457
 20
74.214225
 30
0.0
 10
95.415153
 20
72.708862
 30
0.0
 10
93.692584
 20
71.118376
 30
0.0
  0
SPLINE
  5
110
100
AcDbEntity
  8
ink_ext_XXXXXX
 62
7
100
AcDbSpline
 70
8
 71
3
 72
8
 73
4
 74
0
 40
0
 40
0
 40
0
 40
0
 40
1
 40
1
 40
1
 40
1
 10
110.339738
 20
71.621084
 30
0.0
 10
108.890051
 20
73.463834
 30
0.0
 10
106.221129
 20
73.782449
 30
0.0
 10
104.378373
 20
72.332762
 30
0.0
  0
SPLINE
  5
111
100
AcDbEntity
  8
ink_ext_XXXXXX
 62
7
100
AcDbSpline
 70
8
 71
3
 72
8
 73
4
 74
0
 40
0
 40
0
 40
0
 40
0
 40
1
 40
1
 40
1
 40
1
 10
104.378373
 20
72.332762
 30
0.0
 10
102.535619
 20
70.883078
 30
0.0
 10
102.217010
 20
68.214150
 30
0.0
 10
103.666694
 20
66.371399
 30
0.0
  0
SPLINE
  5
112
100
AcDbEntity
  8
ink_ext_XXXXXX
 62
7
100
AcDbSpline
 70
8
 71
3
 72
8
 73
4
 74
0
 40
0
 40
0
 40
0
 40
0
 40
1
 40
1
 40
1
 40
1
 10
103.666694
 20
66.371399
 30
0.0
 10
105.116378
 20
64.528646
 30
0.0
 10
109.254855
 20
62.341874
 30
0.0
 10
111.097611
 20
63.791558
 30
0.0
  0
SPLINE
  5
113
100
AcDbEntity
  8
ink_ext_XXXXXX
 62
7
100
AcDbSpline
 70
8
 71
3
 72
8
 73
4
 74
0
 40
0
 40
0
 40
0
 40
0
 40
1
 40
1
 40
1
 40
1
 10
111.097611
 20
63.791558
 30
0.0
 10
112.940362
 20
65.241245
 30
0.0
 10
111.789422
 20
69.778331
 30
0.0
 10
110.339738
 20
71.621084
 30
0.0
  0
SPLINE
  5
114
100
AcDbEntity
  8
ink_ext_XXXXXX
 62
7
100
AcDbSpline
 70
8
 71
3
 72
8
 73
4
 74
0
 40
0
 40
0
 40
0
 40
0
 40
1
 40
1
 40
1
 40
1
 10
67.877324
 20
64.133516
 30
0.0
 10
70.183999
 20
64.552763
 30
0.0
 10
71.714116
 20
66.762790
 30
0.0
 10
71.294680
 20
69.069682
 30
0.0
  0
SPLINE
  5
115
100
AcDbEntity
  8
ink_ext_XXXXXX
 62
7
100
AcDbSpline
 70
8
 71
3
 72
8
 73
4
 74
0
 40
0
 40
0
 40
0
 40
0
 40
1
 40
1
 40
1
 40
1
 10
71.294680
 20
69.069682
 30
0.0
 10
70.875244
 20
71.376572
 30
0.0
 10
68.665406
 20
72.906478
 30
0.0
 10
66.358511
 20
72.487041
 30
0.0
  0
SPLINE
  5
116
100
AcDbEntity
  8
ink_ext_XXXXXX
 62
7
100
AcDbSpline
 70
8
 71
3
 72
8
 73
4
 74
0
 40
0
 40
0
 40
0
 40
0
 40
1
 40
1
 40
1
 40
1
 10
66.358511
 20
72.487041
 30
0.0
 10
64.051621
 20
72.067605
 30
0.0
 10
60.183052
 20
69.432451
 30
0.0
 10
60.602305
 20
67.125772
 30
0.0
  0
SPLINE
  5
117
100
AcDbEntity
  8
ink_ext_XXXXXX
 62
7
100
AcDbSpline
 70
8
 71
3
 72
8
 73
4
 74
0
 40
0
 40
0
 40
0
 40
0
 40
1
 40
1
 40
1
 40
1
 10
60.602305
 20
67.125772
 30
0.0
 10
61.021742
 20
64.818880
 30
0.0
 10
65.570432
 20
63.714079
 30
0.0
 10
67.877324
 20
64.133516
 30
0.0
  0
SPLINE
  5
118
100
AcDbEntity
  8
ink_ext_XXXXXX
 62
7
100
AcDbSpline
 70
8
 71
3
 72
8
 73
4
 74
0
 40
0
 40
0
 40
0
 40
0
 40
1
 40
1
 40
1
 40
1
 10
78.098562
 20
97.243589
 30
0.0
 10
76.431471
 20
98.892108
 30
0.0
 10
73.743334
 20
98.876586
 30
0.0
 10
72.095169
 20
97.209323
 30
0.0
  0
SPLINE
  5
119
100
AcDbEntity
  8
ink_ext_XXXXXX
 62
7
100
AcDbSpline
 70
8
 71
3
 72
8
 73
4
 74
0
 40
0
 40
0
 40
0
 40
0
 40
1
 40
1
 40
1
 40
1
 10
72.095169
 20
97.209323
 30
0.0
 10
70.446743
 20
95.541966
 30
0.0
 10
70.461907
 20
92.854002
 30
0.0
 10
72.129264
 20
91.205572
 30
0.0
  0
SPLINE
  5
11a
100
AcDbEntity
  8
ink_ext_XXXXXX
 62
7
100
AcDbSpline
 70
8
 71
3
 72
8
 73
4
 74
0
 40
0
 40
0
 40
0
 40
0
 40
1
 40
1
 40
1
 40
1
 10
72.129264
 20
91.205572
 30
0.0
 10
73.796617
 20
89.557146
 30
0.0
 10
78.174912
 20
87.901440
 30
0.0
 10
79.823338
 20
89.568796
 30
0.0
  0
SPLINE
  5
11b
100
AcDbEntity
  8
ink_ext_XXXXXX
 62
7
100
AcDbSpline
 70
8
 71
3
 72
8
 73
4
 74
0
 40
0
 40
0
 40
0
 40
0
 40
1
 40
1
 40
1
 40
1
 10
79.823338
 20
89.568796
 30
0.0
 10
81.471500
 20
91.236059
 30
0.0
 10
79.765916
 20
95.595160
 30
0.0
 10
78.098562
 20
97.243589
 30
0.0
  0
SPLINE
  5
11c
100
AcDbEntity
  8
ink_ext_XXXXXX
 62
7
100
AcDbSpline
 70
8
 71
3
 72
8
 73
4
 74
0
 40
0
 40
0
 40
0
 40
0
 40
1
 40
1
 40
1
 40
1
 10
86.884568
 20
90.815761
 30
0.0
 10
89.183621
 20
90.355895
 30
0.0
 10
91.419874
 20
91.847293
 30
0.0
 10
91.879741
 20
94.146346
 30
0.0
  0
SPLINE
  5
11d
100
AcDbEntity
  8
ink_ext_XXXXXX
 62
7
100
AcDbSpline
 70
8
 71
3
 72
8
 73
4
 74
0
 40
0
 40
0
 40
0
 40
0
 40
1
 40
1
 40
1
 40
1
 10
91.879741
 20
94.146346
 30
0.0
 10
92.339326
 20
96.445398
 30
0.0
 10
90.848209
 20
98.681933
 30
0.0
 10
88.549156
 20
99.141518
 30
0.0
  0
SPLINE
  5
11e
100
AcDbEntity
  8
ink_ext_XXXXXX
 62
7
100
AcDbSpline
 70
8
 71
3
 72
8
 73
4
 74
0
 40
0
 40
0
 40
0
 40
0
 40
1
 40
1
 40
1
 40
1
 10
88.549156
 20
99.141518
 30
0.0
 10
86.250104
 20
99.601103
 30
0.0
 10
81.682695
 20
98.576048
 30
0.0
 10
81.223110
 20
96.276996
 30
0.0
  0
SPLINE
  5
11f
100
AcDbEntity
  8
ink_ext_XXXXXX
 62
7
100
AcDbSpline
 70
8
 71
3
 72
8
 73
4
 74
0
 40
0
 40
0
 40
0
 40
0
 40
1
 40
1
 40
1
 40
1
 10
81.223110
 20
96.276996
 30
0.0
 10
80.763525
 20
93.977944
 30
0.0
 10
84.585235
 20
91.275346
 30
0.0
 10
86.884568
 20
90.815761
 30
0.0
  0
SPLINE
  5
120
100
AcDbEntity
  8
ink_ext_XXXXXX
 62
7
100
AcDbSpline
 70
8
 71
3
 72
8
 73
4
 74
0
 40
0
 40
0
 40
0
 40
0
 40
1
 40
1
 40
1
 40
1
 10
91.101442
 20
89.424956
 30
0.0
 10
89.740037
 20
87.516219
 30
0.0
 10
90.183376
 20
84.865156
 30
0.0
 10
92.092110
 20
83.503472
 30
0.0
  0
SPLINE
  5
121
100
AcDbEntity
  8
ink_ext_XXXXXX
 62
7
100
AcDbSpline
 70
8
 71
3
 72
8
 73
4
 74
0
 40
0
 40
0
 40
0
 40
0
 40
1
 40
1
 40
1
 40
1
 10
92.092110
 20
83.503472
 30
0.0
 10
94.000842
 20
82.141787
 30
0.0
 10
96.651907
 20
82.585124
 30
0.0
 10
98.013589
 20
84.493861
 30
0.0
  0
SPLINE
  5
122
100
AcDbEntity
  8
ink_ext_XXXXXX
 62
7
100
AcDbSpline
 70
8
 71
3
 72
8
 73
4
 74
0
 40
0
 40
0
 40
0
 40
0
 40
1
 40
1
 40
1
 40
1
 10
98.013589
 20
84.493861
 30
0.0
 10
99.375273
 20
86.402589
 30
0.0
 10
100.312089
 20
90.988745
 30
0.0
 10
98.403357
 20
92.350429
 30
0.0
  0
SPLINE
  5
123
100
AcDbEntity
  8
ink_ext_XXXXXX
 62
7
100
AcDbSpline
 70
8
 71
3
 72
8
 73
4
 74
0
 40
0
 40
0
 40
0
 40
0
 40
1
 40
1
 40
1
 40
1
 10
98.403357
 20
92.350429
 30
0.0
 10
96.494905
 20
93.712111
 30
0.0
 10
92.463121
 20
91.333409
 30
0.0
 10
91.101442
 20
89.424956
 30
0.0
  0
SPLINE
  5
124
100
AcDbEntity
  8
ink_ext_XXXXXX
 62
7
100
AcDbSpline
 70
8
 71
3
 72
8
 73
4
 74
0
 40
0
 40
0
 40
0
 40
0
 40
1
 40
1
 40
1
 40
1
 10
102.099613
 20
75.758978
 30
0.0
 10
104.440256
 20
75.896915
 30
0.0
 10
106.225488
 20
77.906313
 30
0.0
 10
106.087151
 20
80.246920
 30
0.0
  0
SPLINE
  5
125
100
AcDbEntity
  8
ink_ext_XXXXXX
 62
7
100
AcDbSpline
 70
8
 71
3
 72
8
 73
4
 74
0
 40
0
 40
0
 40
0
 40
0
 40
1
 40
1
 40
1
 40
1
 10
106.087151
 20
80.246920
 30
0.0
 10
105.949033
 20
82.587348
 30
0.0
 10
103.939818
 20
84.372794
 30
0.0
 10
101.598995
 20
84.234640
 30
0.0
  0
SPLINE
  5
126
100
AcDbEntity
  8
ink_ext_XXXXXX
 62
7
100
AcDbSpline
 70
8
 71
3
 72
8
 73
4
 74
0
 40
0
 40
0
 40
0
 40
0
 40
1
 40
1
 40
1
 40
1
 10
101.598995
 20
84.234640
 30
0.0
 10
99.258566
 20
84.096520
 30
0.0
 10
95.100492
 20
81.947061
 30
0.0
 10
95.238824
 20
79.606455
 30
0.0
  0
SPLINE
  5
127
100
AcDbEntity
  8
ink_ext_XXXXXX
 62
7
100
AcDbSpline
 70
8
 71
3
 72
8
 73
4
 74
0
 40
0
 40
0
 40
0
 40
0
 40
1
 40
1
 40
1
 40
1
 10
95.238824
 20
79.606455
 30
0.0
 10
95.376764
 20
77.265814
 30
0.0
 10
99.759004
 20
75.620643
 30
0.0
 10
102.099613
 20
75.758978
 30
0.0
  0
SPLINE
  5
128
100
AcDbEntity
  8
ink_ext_XXXXXX
 62
7
100
AcDbSpline
 70
8
 71
3
 72
8
 73
4
 74
0
 40
0
 40
0
 40
0
 40
0
 40
1
 40
1
 40
1
 40
1
 10
81.714030
 20
81.286725
 30
0.0
 10
83.199281
 20
79.472713
 30
0.0
 10
85.874101
 20
79.206106
 30
0.0
 10
87.688389
 20
80.691306
 30
0.0
  0
SPLINE
  5
129
100
AcDbEntity
  8
ink_ext_XXXXXX
 62
7
100
AcDbSpline
 70
8
 71
3
 72
8
 73
4
 74
0
 40
0
 40
0
 40
0
 40
0
 40
1
 40
1
 40
1
 40
1
 10
87.688389
 20
80.691306
 30
0.0
 10
89.502449
 20
82.176834
 30
0.0
 10
89.769009
 20
84.851380
 30
0.0
 10
88.283808
 20
86.665668
 30
0.0
  0
SPLINE
  5
12a
100
AcDbEntity
  8
ink_ext_XXXXXX
 62
7
100
AcDbSpline
 70
8
 71
3
 72
8
 73
4
 74
0
 40
0
 40
0
 40
0
 40
0
 40
1
 40
1
 40
1
 40
1
 10
88.283808
 20
86.665668
 30
0.0
 10
86.798281
 20
88.479728
 30
0.0
 10
82.617898
 20
90.585524
 30
0.0
 10
80.803837
 20
89.099994
 30
0.0
  0
SPLINE
  5
12b
100
AcDbEntity
  8
ink_ext_XXXXXX
 62
7
100
AcDbSpline
 70
8
 71
3
 72
8
 73
4
 74
0
 40
0
 40
0
 40
0
 40
0
 40
1
 40
1
 40
1
 40
1
 10
80.803837
 20
89.099994
 30
0.0
 10
78.989549
 20
87.614796
 30
0.0
 10
80.228829
 20
83.101014
 30
0.0
 10
81.714030
 20
81.286725
 30
0.0
  0
SPLINE
  5
12c
100
AcDbEntity
  8
ink_ext_XXXXXX
 62
7
100
AcDbSpline
 70
8
 71
3
 72
8
 73
4
 74
0
 40
0
 40
0
 40
0
 40
0
 40
1
 40
1
 40
1
 40
1
 10
44.299232
 20
10.422369
 30
0.0
 10
46.633722
 20
10.204345
 30
0.0
 10
48.702942
 20
11.919826
 30
0.0
 10
48.921177
 20
14.254127
 30
0.0
  0
SPLINE
  5
12d
100
AcDbEntity
  8
ink_ext_XXXXXX
 62
7
100
AcDbSpline
 70
8
 71
3
 72
8
 73
4
 74
0
 40
0
 40
0
 40
0
 40
0
 40
1
 40
1
 40
1
 40
1
 10
48.921177
 20
14.254127
 30
0.0
 10
49.139368
 20
16.588769
 30
0.0
 10
47.423930
 20
18.658025
 30
0.0
 10
45.089606
 20
18.876202
 30
0.0
  0
SPLINE
  5
12e
100
AcDbEntity
  8
ink_ext_XXXXXX
 62
7
100
AcDbSpline
 70
8
 71
3
 72
8
 73
4
 74
0
 40
0
 40
0
 40
0
 40
0
 40
1
 40
1
 40
1
 40
1
 10
45.089606
 20
18.876202
 30
0.0
 10
42.754905
 20
19.094414
 30
0.0
 10
38.319100
 20
17.600219
 30
0.0
 10
38.100679
 20
15.265749
 30
0.0
  0
SPLINE
  5
12f
100
AcDbEntity
  8
ink_ext_XXXXXX
 62
7
100
AcDbSpline
 70
8
 71
3
 72
8
 73
4
 74
0
 40
0
 40
0
 40
0
 40
0
 40
1
 40
1
 40
1
 40
1
 10
38.100679
 20
15.265749
 30
0.0
 10
37.882655
 20
12.931259
 30
0.0
 10
41.964762
 20
10.640791
 30
0.0
 10
44.299232
 20
10.422369
 30
0.0
  0
SPLINE
  5
130
100
AcDbEntity
  8
ink_ext_XXXXXX
 62
7
100
AcDbSpline
 70
8
 71
3
 72
8
 73
4
 74
0
 40
0
 40
0
 40
0
 40
0
 40
1
 40
1
 40
1
 40
1
 10
60.918949
 20
14.618669
 30
0.0
 10
59.890123
 20
12.511798
 30
0.0
 10
60.763999
 20
9.969878
 30
0.0
 10
62.870907
 20
8.941128
 30
0.0
  0
SPLINE
  5
131
100
AcDbEntity
  8
ink_ext_XXXXXX
 62
7
100
AcDbSpline
 70
8
 71
3
 72
8
 73
4
 74
0
 40
0
 40
0
 40
0
 40
0
 40
1
 40
1
 40
1
 40
1
 10
62.870907
 20
8.941128
 30
0.0
 10
64.977753
 20
7.912252
 30
0.0
 10
67.519774
 20
8.786393
 30
0.0
 10
68.548603
 20
10.893261
 30
0.0
  0
SPLINE
  5
132
100
AcDbEntity
  8
ink_ext_XXXXXX
 62
7
100
AcDbSpline
 70
8
 71
3
 72
8
 73
4
 74
0
 40
0
 40
0
 40
0
 40
0
 40
1
 40
1
 40
1
 40
1
 10
68.548603
 20
10.893261
 30
0.0
 10
69.577062
 20
13.000037
 30
0.0
 10
69.746137
 20
17.677943
 30
0.0
 10
67.639269
 20
18.706769
 30
0.0
  0
SPLINE
  5
133
100
AcDbEntity
  8
ink_ext_XXXXXX
 62
7
100
AcDbSpline
 70
8
 71
3
 72
8
 73
4
 74
0
 40
0
 40
0
 40
0
 40
0
 40
1
 40
1
 40
1
 40
1
 10
67.639269
 20
18.706769
 30
0.0
 10
65.532648
 20
19.735465
 30
0.0
 10
61.947535
 20
16.725692
 30
0.0
 10
60.918949
 20
14.618669
 30
0.0
  0
SPLINE
  5
134
100
AcDbEntity
  8
ink_ext_XXXXXX
 62
7
100
AcDbSpline
 70
8
 71
3
 72
8
 73
4
 74
0
 40
0
 40
0
 40
0
 40
0
 40
1
 40
1
 40
1
 40
1
 10
56.315559
 20
77.148336
 30
0.0
 10
56.350478
 20
74.804226
 30
0.0
 10
58.279215
 20
72.932093
 30
0.0
 10
60.623606
 20
72.967012
 30
0.0
  0
SPLINE
  5
135
100
AcDbEntity
  8
ink_ext_XXXXXX
 62
7
100
AcDbSpline
 70
8
 71
3
 72
8
 73
4
 74
0
 40
0
 40
0
 40
0
 40
0
 40
1
 40
1
 40
1
 40
1
 10
60.623606
 20
72.967012
 30
0.0
 10
62.967997
 20
73.001932
 30
0.0
 10
64.840131
 20
74.930669
 30
0.0
 10
64.805211
 20
77.275060
 30
0.0
  0
SPLINE
  5
136
100
AcDbEntity
  8
ink_ext_XXXXXX
 62
7
100
AcDbSpline
 70
8
 71
3
 72
8
 73
4
 74
0
 40
0
 40
0
 40
0
 40
0
 40
1
 40
1
 40
1
 40
1
 10
64.805211
 20
77.275060
 30
0.0
 10
64.770010
 20
79.619451
 30
0.0
 10
62.805791
 20
83.868079
 30
0.0
 10
60.461400
 20
83.833159
 30
0.0
  0
SPLINE
  5
137
100
AcDbEntity
  8
ink_ext_XXXXXX
 62
7
100
AcDbSpline
 70
8
 71
3
 72
8
 73
4
 74
0
 40
0
 40
0
 40
0
 40
0
 40
1
 40
1
 40
1
 40
1
 10
60.461400
 20
83.833159
 30
0.0
 10
58.117290
 20
83.798240
 30
0.0
 10
56.280358
 20
79.492727
 30
0.0
 10
56.315559
 20
77.148336
 30
0.0
  0
SPLINE
  5
138
100
AcDbEntity
  8
ink_ext_XXXXXX
 62
7
100
AcDbSpline
 70
8
 71
3
 72
8
 73
4
 74
0
 40
0
 40
0
 40
0
 40
0
 40
1
 40
1
 40
1
 40
1
 10
76.179535
 20
18.846002
 30
0.0
 10
78.418743
 20
19.541918
 30
0.0
 10
80.797766
 20
18.291002
 30
0.0
 10
81.493607
 20
16.052163
 30
0.0
  0
SPLINE
  5
139
100
AcDbEntity
  8
ink_ext_XXXXXX
 62
7
100
AcDbSpline
 70
8
 71
3
 72
8
 73
4
 74
0
 40
0
 40
0
 40
0
 40
0
 40
1
 40
1
 40
1
 40
1
 10
81.493607
 20
16.052163
 30
0.0
 10
82.189475
 20
13.812987
 30
0.0
 10
80.938607
 20
11.433933
 30
0.0
 10
78.699594
 20
10.737903
 30
0.0
  0
SPLINE
  5
13a
100
AcDbEntity
  8
ink_ext_XXXXXX
 62
7
100
AcDbSpline
 70
8
 71
3
 72
8
 73
4
 74
0
 40
0
 40
0
 40
0
 40
0
 40
1
 40
1
 40
1
 40
1
 10
78.699594
 20
10.737903
 30
0.0
 10
76.460504
 20
10.042243
 30
0.0
 10
71.811685
 20
10.587665
 30
0.0
 10
71.115628
 20
12.826628
 30
0.0
  0
SPLINE
  5
13b
100
AcDbEntity
  8
ink_ext_XXXXXX
 62
7
100
AcDbSpline
 70
8
 71
3
 72
8
 73
4
 74
0
 40
0
 40
0
 40
0
 40
0
 40
1
 40
1
 40
1
 40
1
 10
71.115628
 20
12.826628
 30
0.0
 10
70.419953
 20
15.065694
 30
0.0
 10
73.940714
 20
18.150187
 30
0.0
 10
76.179535
 20
18.846002
 30
0.0
  0
SPLINE
  5
13c
100
AcDbEntity
  8
ink_ext_XXXXXX
 62
7
100
AcDbSpline
 70
8
 71
3
 72
8
 73
4
 74
0
 40
0
 40
0
 40
0
 40
0
 40
1
 40
1
 40
1
 40
1
 10
75.522917
 20
28.357705
 30
0.0
 10
77.817996
 20
28.837867
 30
0.0
 10
80.067549
 20
27.366558
 30
0.0
 10
80.547715
 20
25.071882
 30
0.0
  0
SPLINE
  5
13d
100
AcDbEntity
  8
ink_ext_XXXXXX
 62
7
100
AcDbSpline
 70
8
 71
3
 72
8
 73
4
 74
0
 40
0
 40
0
 40
0
 40
0
 40
1
 40
1
 40
1
 40
1
 10
80.547715
 20
25.071882
 30
0.0
 10
81.027877
 20
22.776804
 30
0.0
 10
79.556568
 20
20.527250
 30
0.0
 10
77.261889
 20
20.047085
 30
0.0
  0
SPLINE
  5
13e
100
AcDbEntity
  8
ink_ext_XXXXXX
 62
7
100
AcDbSpline
 70
8
 71
3
 72
8
 73
4
 74
0
 40
0
 40
0
 40
0
 40
0
 40
1
 40
1
 40
1
 40
1
 10
77.261889
 20
20.047085
 30
0.0
 10
74.966813
 20
19.566922
 30
0.0
 10
70.390525
 20
20.551477
 30
0.0
 10
69.910560
 20
22.846355
 30
0.0
  0
SPLINE
  5
13f
100
AcDbEntity
  8
ink_ext_XXXXXX
 62
7
100
AcDbSpline
 70
8
 71
3
 72
8
 73
4
 74
0
 40
0
 40
0
 40
0
 40
0
 40
1
 40
1
 40
1
 40
1
 10
69.910560
 20
22.846355
 30
0.0
 10
69.430395
 20
25.141431
 30
0.0
 10
73.228041
 20
27.877740
 30
0.0
 10
75.522917
 20
28.357705
 30
0.0
  0
SPLINE
  5
140
100
AcDbEntity
  8
ink_ext_XXXXXX
 62
7
100
AcDbSpline
 70
8
 71
3
 72
8
 73
4
 74
0
 40
0
 40
0
 40
0
 40
0
 40
1
 40
1
 40
1
 40
1
 10
90.035954
 20
17.576601
 30
0.0
 10
88.206822
 20
16.109868
 30
0.0
 10
85.534900
 20
16.403988
 30
0.0
 10
84.068401
 20
18.233278
 30
0.0
  0
SPLINE
  5
141
100
AcDbEntity
  8
ink_ext_XXXXXX
 62
7
100
AcDbSpline
 70
8
 71
3
 72
8
 73
4
 74
0
 40
0
 40
0
 40
0
 40
0
 40
1
 40
1
 40
1
 40
1
 10
84.068401
 20
18.233278
 30
0.0
 10
82.601671
 20
20.062410
 30
0.0
 10
82.895792
 20
22.734331
 30
0.0
 10
84.724921
 20
24.201064
 30
0.0
  0
SPLINE
  5
142
100
AcDbEntity
  8
ink_ext_XXXXXX
 62
7
100
AcDbSpline
 70
8
 71
3
 72
8
 73
4
 74
0
 40
0
 40
0
 40
0
 40
0
 40
1
 40
1
 40
1
 40
1
 10
84.724921
 20
24.201064
 30
0.0
 10
86.554211
 20
25.667560
 30
0.0
 10
91.080553
 20
26.860564
 30
0.0
 10
92.547209
 20
25.031041
 30
0.0
  0
SPLINE
  5
143
100
AcDbEntity
  8
ink_ext_XXXXXX
 62
7
100
AcDbSpline
 70
8
 71
3
 72
8
 73
4
 74
0
 40
0
 40
0
 40
0
 40
0
 40
1
 40
1
 40
1
 40
1
 10
92.547209
 20
25.031041
 30
0.0
 10
94.013939
 20
23.201909
 30
0.0
 10
91.865243
 20
19.043097
 30
0.0
 10
90.035954
 20
17.576601
 30
0.0
  0
SPLINE
  5
144
100
AcDbEntity
  8
ink_ext_XXXXXX
 62
7
100
AcDbSpline
 70
8
 71
3
 72
8
 73
4
 74
0
 40
0
 40
0
 40
0
 40
0
 40
1
 40
1
 40
1
 40
1
 10
68.672192
 20
29.546228
 30
0.0
 10
66.372616
 20
30.003366
 30
0.0
 10
64.879221
 20
32.238417
 30
0.0
 10
65.336632
 20
34.537917
 30
0.0
  0
SPLINE
  5
145
100
AcDbEntity
  8
ink_ext_XXXXXX
 62
7
100
AcDbSpline
 70
8
 71
3
 72
8
 73
4
 74
0
 40
0
 40
0
 40
0
 40
0
 40
1
 40
1
 40
1
 40
1
 10
65.336632
 20
34.537917
 30
0.0
 10
65.793773
 20
36.837490
 30
0.0
 10
68.028821
 20
38.330885
 30
0.0
 10
70.328397
 20
37.873747
 30
0.0
  0
SPLINE
  5
146
100
AcDbEntity
  8
ink_ext_XXXXXX
 62
7
100
AcDbSpline
 70
8
 71
3
 72
8
 73
4
 74
0
 40
0
 40
0
 40
0
 40
0
 40
1
 40
1
 40
1
 40
1
 10
70.328397
 20
37.873747
 30
0.0
 10
72.627894
 20
37.416336
 30
0.0
 10
76.452743
 20
34.717901
 30
0.0
 10
75.995256
 20
32.418131
 30
0.0
  0
SPLINE
  5
147
100
AcDbEntity
  8
ink_ext_XXXXXX
 62
7
100
AcDbSpline
 70
8
 71
3
 72
8
 73
4
 74
0
 40
0
 40
0
 40
0
 40
0
 40
1
 40
1
 40
1
 40
1
 10
75.995256
 20
32.418131
 30
0.0
 10
75.538115
 20
30.118555
 30
0.0
 10
70.971689
 20
29.088817
 30
0.0
 10
68.672192
 20
29.546228
 30
0.0
  0
SPLINE
  5
148
100
AcDbEntity
  8
ink_ext_XXXXXX
 62
7
100
AcDbSpline
 70
8
 71
3
 72
8
 73
4
 74
0
 40
0
 40
0
 40
0
 40
0
 40
1
 40
1
 40
1
 40
1
 10
95.715604
 20
35.810097
 30
0.0
 10
97.782892
 20
36.916537
 30
0.0
 10
100.355668
 20
36.137608
 30
0.0
 10
101.461826
 20
34.070320
 30
0.0
  0
SPLINE
  5
149
100
AcDbEntity
  8
ink_ext_XXXXXX
 62
7
100
AcDbSpline
 70
8
 71
3
 72
8
 73
4
 74
0
 40
0
 40
0
 40
0
 40
0
 40
1
 40
1
 40
1
 40
1
 10
101.461826
 20
34.070320
 30
0.0
 10
102.568266
 20
32.003032
 30
0.0
 10
101.789055
 20
29.430538
 30
0.0
 10
99.722049
 20
28.324098
 30
0.0
  0
SPLINE
  5
14a
100
AcDbEntity
  8
ink_ext_XXXXXX
 62
7
100
AcDbSpline
 70
8
 71
3
 72
8
 73
4
 74
0
 40
0
 40
0
 40
0
 40
0
 40
1
 40
1
 40
1
 40
1
 10
99.722049
 20
28.324098
 30
0.0
 10
97.654760
 20
27.217939
 30
0.0
 10
92.986535
 20
26.875222
 30
0.0
 10
91.880096
 20
28.942510
 30
0.0
  0
SPLINE
  5
14b
100
AcDbEntity
  8
ink_ext_XXXXXX
 62
7
100
AcDbSpline
 70
8
 71
3
 72
8
 73
4
 74
0
 40
0
 40
0
 40
0
 40
0
 40
1
 40
1
 40
1
 40
1
 10
91.880096
 20
28.942510
 30
0.0
 10
90.773937
 20
31.009798
 30
0.0
 10
93.648597
 20
34.703939
 30
0.0
 10
95.715604
 20
35.810097
 30
0.0
  0
SPLINE
  5
14c
100
AcDbEntity
  8
ink_ext_XXXXXX
 62
7
100
AcDbSpline
 70
8
 71
3
 72
8
 73
4
 74
0
 40
0
 40
0
 40
0
 40
0
 40
1
 40
1
 40
1
 40
1
 10
61.892650
 20
28.838954
 30
0.0
 10
63.959938
 20
29.945394
 30
0.0
 10
66.532714
 20
29.166465
 30
0.0
 10
67.638872
 20
27.099177
 30
0.0
  0
SPLINE
  5
14d
100
AcDbEntity
  8
ink_ext_XXXXXX
 62
7
100
AcDbSpline
 70
8
 71
3
 72
8
 73
4
 74
0
 40
0
 40
0
 40
0
 40
0
 40
1
 40
1
 40
1
 40
1
 10
67.638872
 20
27.099177
 30
0.0
 10
68.745312
 20
25.031888
 30
0.0
 10
67.966101
 20
22.459394
 30
0.0
 10
65.899094
 20
21.352954
 30
0.0
  0
SPLINE
  5
14e
100
AcDbEntity
  8
ink_ext_XXXXXX
 62
7
100
AcDbSpline
 70
8
 71
3
 72
8
 73
4
 74
0
 40
0
 40
0
 40
0
 40
0
 40
1
 40
1
 40
1
 40
1
 10
65.899094
 20
21.352954
 30
0.0
 10
63.831806
 20
20.246796
 30
0.0
 10
59.163581
 20
19.904078
 30
0.0
 10
58.057141
 20
21.971367
 30
0.0
  0
SPLINE
  5
14f
100
AcDbEntity
  8
ink_ext_XXXXXX
 62
7
100
AcDbSpline
 70
8
 71
3
 72
8
 73
4
 74
0
 40
0
 40
0
 40
0
 40
0
 40
1
 40
1
 40
1
 40
1
 10
58.057141
 20
21.971367
 30
0.0
 10
56.950983
 20
24.038655
 30
0.0
 10
59.825643
 20
27.732796
 30
0.0
 10
61.892650
 20
28.838954
 30
0.0
  0
SPLINE
  5
150
100
AcDbEntity
  8
ink_ext_XXXXXX
 62
7
100
AcDbSpline
 70
8
 71
3
 72
8
 73
4
 74
0
 40
0
 40
0
 40
0
 40
0
 40
1
 40
1
 40
1
 40
1
 10
50.767065
 20
16.835649
 30
0.0
 10
51.275216
 20
19.124682
 30
0.0
 10
53.542765
 20
20.568334
 30
0.0
 10
55.831614
 20
20.059968
 30
0.0
  0
SPLINE
  5
151
100
AcDbEntity
  8
ink_ext_XXXXXX
 62
7
100
AcDbSpline
 70
8
 71
3
 72
8
 73
4
 74
0
 40
0
 40
0
 40
0
 40
0
 40
1
 40
1
 40
1
 40
1
 10
55.831614
 20
20.059968
 30
0.0
 10
58.120647
 20
19.551814
 30
0.0
 10
59.563902
 20
17.284237
 30
0.0
 10
59.055934
 20
14.995419
 30
0.0
  0
SPLINE
  5
152
100
AcDbEntity
  8
ink_ext_XXXXXX
 62
7
100
AcDbSpline
 70
8
 71
3
 72
8
 73
4
 74
0
 40
0
 40
0
 40
0
 40
0
 40
1
 40
1
 40
1
 40
1
 10
59.055934
 20
14.995419
 30
0.0
 10
58.547566
 20
12.706570
 30
0.0
 10
55.765048
 20
8.942612
 30
0.0
 10
53.476015
 20
9.450767
 30
0.0
  0
SPLINE
  5
153
100
AcDbEntity
  8
ink_ext_XXXXXX
 62
7
100
AcDbSpline
 70
8
 71
3
 72
8
 73
4
 74
0
 40
0
 40
0
 40
0
 40
0
 40
1
 40
1
 40
1
 40
1
 10
53.476015
 20
9.450767
 30
0.0
 10
51.187166
 20
9.959132
 30
0.0
 10
50.258880
 20
14.547014
 30
0.0
 10
50.767065
 20
16.835649
 30
0.0
  0
SPLINE
  5
154
100
AcDbEntity
  8
ink_ext_XXXXXX
 62
7
100
AcDbSpline
 70
8
 71
3
 72
8
 73
4
 74
0
 40
0
 40
0
 40
0
 40
0
 40
1
 40
1
 40
1
 40
1
 10
103.260756
 20
45.850427
 30
0.0
 10
105.574598
 20
45.471036
 30
0.0
 10
107.142583
 20
43.287421
 30
0.0
 10
106.763008
 20
40.973793
 30
0.0
  0
SPLINE
  5
155
100
AcDbEntity
  8
ink_ext_XXXXXX
 62
7
100
AcDbSpline
 70
8
 71
3
 72
8
 73
4
 74
0
 40
0
 40
0
 40
0
 40
0
 40
1
 40
1
 40
1
 40
1
 10
106.763008
 20
40.973793
 30
0.0
 10
106.383434
 20
38.660162
 30
0.0
 10
104.200216
 20
37.092148
 30
0.0
 10
101.886588
 20
37.471726
 30
0.0
  0
SPLINE
  5
156
100
AcDbEntity
  8
ink_ext_XXXXXX
 62
7
100
AcDbSpline
 70
8
 71
3
 72
8
 73
4
 74
0
 40
0
 40
0
 40
0
 40
0
 40
1
 40
1
 40
1
 40
1
 10
101.886588
 20
37.471726
 30
0.0
 10
99.572957
 20
37.851300
 30
0.0
 10
95.659341
 20
40.419196
 30
0.0
 10
96.038733
 20
42.733038
 30
0.0
  0
SPLINE
  5
157
100
AcDbEntity
  8
ink_ext_XXXXXX
 62
7
100
AcDbSpline
 70
8
 71
3
 72
8
 73
4
 74
0
 40
0
 40
0
 40
0
 40
0
 40
1
 40
1
 40
1
 40
1
 10
96.038733
 20
42.733038
 30
0.0
 10
96.418307
 20
45.046669
 30
0.0
 10
100.947127
 20
46.230002
 30
0.0
 10
103.260756
 20
45.850427
 30
0.0
  0
SPLINE
  5
158
100
AcDbEntity
  8
ink_ext_XXXXXX
 62
7
100
AcDbSpline
 70
8
 71
3
 72
8
 73
4
 74
0
 40
0
 40
0
 40
0
 40
0
 40
1
 40
1
 40
1
 40
1
 10
85.668183
 20
35.877092
 30
0.0
 10
88.012292
 20
35.919615
 30
0.0
 10
89.947225
 20
34.053677
 30
0.0
 10
89.989748
 20
31.709567
 30
0.0
  0
SPLINE
  5
159
100
AcDbEntity
  8
ink_ext_XXXXXX
 62
7
100
AcDbSpline
 70
8
 71
3
 72
8
 73
4
 74
0
 40
0
 40
0
 40
0
 40
0
 40
1
 40
1
 40
1
 40
1
 10
89.989748
 20
31.709567
 30
0.0
 10
90.032270
 20
29.365176
 30
0.0
 10
88.166332
 20
27.430526
 30
0.0
 10
85.821941
 20
27.388003
 30
0.0
  0
SPLINE
  5
15a
100
AcDbEntity
  8
ink_ext_XXXXXX
 62
7
100
AcDbSpline
 70
8
 71
3
 72
8
 73
4
 74
0
 40
0
 40
0
 40
0
 40
0
 40
1
 40
1
 40
1
 40
1
 10
85.821941
 20
27.388003
 30
0.0
 10
83.477832
 20
27.345480
 30
0.0
 10
79.166405
 20
29.168332
 30
0.0
 10
79.123882
 20
31.512441
 30
0.0
  0
SPLINE
  5
15b
100
AcDbEntity
  8
ink_ext_XXXXXX
 62
7
100
AcDbSpline
 70
8
 71
3
 72
8
 73
4
 74
0
 40
0
 40
0
 40
0
 40
0
 40
1
 40
1
 40
1
 40
1
 10
79.123882
 20
31.512441
 30
0.0
 10
79.081359
 20
33.856832
 30
0.0
 10
83.323792
 20
35.834569
 30
0.0
 10
85.668183
 20
35.877092
 30
0.0
  0
SPLINE
  5
15c
100
AcDbEntity
  8
ink_ext_XXXXXX
 62
7
100
AcDbSpline
 70
8
 71
3
 72
8
 73
4
 74
0
 40
0
 40
0
 40
0
 40
0
 40
1
 40
1
 40
1
 40
1
 10
64.206309
 20
140.979833
 30
0.0
 10
64.102922
 20
140.976722
 30
0.0
 10
64.038594
 20
140.958149
 30
0.0
 10
64.036904
 20
140.919552
 30
0.0
  0
SPLINE
  5
15d
100
AcDbEntity
  8
ink_ext_XXXXXX
 62
7
100
AcDbSpline
 70
8
 71
3
 72
8
 73
4
 74
0
 40
0
 40
0
 40
0
 40
0
 40
1
 40
1
 40
1
 40
1
 10
64.036904
 20
140.919552
 30
0.0
 10
63.852290
 20
136.868556
 30
0.0
 10
62.021289
 20
132.974914
 30
0.0
 10
59.999781
 20
132.445775
 30
0.0
  0
SPLINE
  5
15e
100
AcDbEntity
  8
ink_ext_XXXXXX
 62
7
100
AcDbSpline
 70
8
 71
3
 72
8
 73
4
 74
0
 40
0
 40
0
 40
0
 40
0
 40
1
 40
1
 40
1
 40
1
 10
59.999781
 20
132.445775
 30
0.0
 10
57.978336
 20
132.974998
 30
0.0
 10
56.147971
 20
136.868610
 30
0.0
 10
55.963100
 20
140.919552
 30
0.0
  0
SPLINE
  5
15f
100
AcDbEntity
  8
ink_ext_XXXXXX
 62
7
100
AcDbSpline
 70
8
 71
3
 72
8
 73
4
 74
0
 40
0
 40
0
 40
0
 40
0
 40
1
 40
1
 40
1
 40
1
 10
55.963100
 20
140.919552
 30
0.0
 10
55.961523
 20
140.958152
 30
0.0
 10
55.897077
 20
140.976290
 30
0.0
 10
55.793693
 20
140.979393
 30
0.0
  0
SPLINE
  5
160
100
AcDbEntity
  8
ink_ext_XXXXXX
 62
7
100
AcDbSpline
 70
8
 71
3
 72
8
 73
4
 74
0
 40
0
 40
0
 40
0
 40
0
 40
1
 40
1
 40
1
 40
1
 10
55.793693
 20
140.979393
 30
0.0
 10
55.345685
 20
140.992820
 30
0.0
 10
54.163886
 20
140.723270
 30
0.0
 10
54.163886
 20
140.604062
 30
0.0
  0
SPLINE
  5
161
100
AcDbEntity
  8
ink_ext_XXXXXX
 62
7
100
AcDbSpline
 70
8
 71
3
 72
8
 73
4
 74
0
 40
0
 40
0
 40
0
 40
0
 40
1
 40
1
 40
1
 40
1
 10
54.163886
 20
140.604062
 30
0.0
 10
54.163886
 20
135.870786
 30
0.0
 10
52.536383
 20
131.473785
 30
0.0
 10
50.722543
 20
131.473785
 30
0.0
  0
SPLINE
  5
162
100
AcDbEntity
  8
ink_ext_XXXXXX
 62
7
100
AcDbSpline
 70
8
 71
3
 72
8
 73
4
 74
0
 40
0
 40
0
 40
0
 40
0
 40
1
 40
1
 40
1
 40
1
 10
50.722543
 20
131.473785
 30
0.0
 10
49.139621
 20
131.473785
 30
0.0
 10
47.831969
 20
134.406967
 30
0.0
 10
47.522763
 20
138.297952
 30
0.0
  0
SPLINE
  5
163
100
AcDbEntity
  8
ink_ext_XXXXXX
 62
7
100
AcDbSpline
 70
8
 71
3
 72
8
 73
4
 74
0
 40
0
 40
0
 40
0
 40
0
 40
1
 40
1
 40
1
 40
1
 10
47.522763
 20
138.297952
 30
0.0
 10
47.508683
 20
138.475928
 30
0.0
 10
46.218794
 20
138.137611
 30
0.0
 10
45.756112
 20
137.908100
 30
0.0
  0
SPLINE
  5
164
100
AcDbEntity
  8
ink_ext_XXXXXX
 62
7
100
AcDbSpline
 70
8
 71
3
 72
8
 73
4
 74
0
 40
0
 40
0
 40
0
 40
0
 40
1
 40
1
 40
1
 40
1
 10
45.756112
 20
137.908100
 30
0.0
 10
45.438175
 20
136.471333
 30
0.0
 10
44.581151
 20
130.077359
 30
0.0
 10
49.228255
 20
124.935187
 30
0.0
  0
SPLINE
  5
165
100
AcDbEntity
  8
ink_ext_XXXXXX
 62
7
100
AcDbSpline
 70
8
 71
3
 72
8
 73
4
 74
0
 40
0
 40
0
 40
0
 40
0
 40
1
 40
1
 40
1
 40
1
 10
49.228255
 20
124.935187
 30
0.0
 10
50.131655
 20
124.215114
 30
0.0
 10
50.675900
 20
123.339627
 30
0.0
 10
50.675900
 20
122.387509
 30
0.0
  0
SPLINE
  5
166
100
AcDbEntity
  8
ink_ext_XXXXXX
 62
7
100
AcDbSpline
 70
8
 71
3
 72
8
 73
4
 74
0
 40
0
 40
0
 40
0
 40
0
 40
1
 40
1
 40
1
 40
1
 10
50.675900
 20
122.387509
 30
0.0
 10
50.675900
 20
120.502984
 30
0.0
 10
48.581560
 20
118.907373
 30
0.0
 10
45.652268
 20
118.279105
 30
0.0
  0
SPLINE
  5
167
100
AcDbEntity
  8
ink_ext_XXXXXX
 62
7
100
AcDbSpline
 70
8
 71
3
 72
8
 73
4
 74
0
 40
0
 40
0
 40
0
 40
0
 40
1
 40
1
 40
1
 40
1
 10
45.643907
 20
118.266784
 30
0.0
 10
19.440168
 20
111.832198
 30
0.0
 10
0.000001
 20
88.188252
 30
0.0
 10
0.000001
 20
59.999778
 30
0.0
  0
SPLINE
  5
168
100
AcDbEntity
  8
ink_ext_XXXXXX
 62
7
100
AcDbSpline
 70
8
 71
3
 72
8
 73
4
 74
0
 40
0
 40
0
 40
0
 40
0
 40
1
 40
1
 40
1
 40
1
 10
0.000001
 20
59.999778
 30
0.0
 10
0.000001
 20
26.862631
 30
0.0
 10
26.862623
 20
-0.000002
 30
0.0
 10
59.999781
 20
-0.000002
 30
0.0
  0
SPLINE
  5
169
100
AcDbEntity
  8
ink_ext_XXXXXX
 62
7
100
AcDbSpline
 70
8
 71
3
 72
8
 73
4
 74
0
 40
0
 40
0
 40
0
 40
0
 40
1
 40
1
 40
1
 40
1
 10
59.999781
 20
-0.000002
 30
0.0
 10
93.136940
 20
-0.000002
 30
0.0
 10
120.000001
 20
26.862631
 30
0.0
 10
120.000001
 20
59.999778
 30
0.0
  0
SPLINE
  5
16a
100
AcDbEntity
  8
ink_ext_XXXXXX
 62
7
100
AcDbSpline
 70
8
 71
3
 72
8
 73
4
 74
0
 40
0
 40
0
 40
0
 40
0
 40
1
 40
1
 40
1
 40
1
 10
120.000001
 20
59.999778
 30
0.0
 10
120.000001
 20
88.188523
 30
0.0
 10
100.559313
 20
111.832905
 30
0.0
 10
74.355219
 20
118.267224
 30
0.0
  0
LWPOLYLINE
  5
16b
100
AcDbEntity
  8
ink_ext_XXXXXX
 62
7
100
AcDbPolyline
 90
2
 70
1
 10
45.652268
 20
118.279105
 30
0.0
 10
45.643907
 20
118.266784
 30
0.0
  0
SPLINE
  5
16c
100
AcDbEntity
  8
ink_ext_XXXXXX
 62
7
100
AcDbSpline
 70
8
 71
3
 72
8
 73
4
 74
0
 40
0
 40
0
 40
0
 40
0
 40
1
 40
1
 40
1
 40
1
 10
74.347297
 20
118.279105
 30
0.0
 10
71.418005
 20
118.907373
 30
0.0
 10
69.324105
 20
120.502984
 30
0.0
 10
69.324105
 20
122.387509
 30
0.0
  0
SPLINE
  5
16d
100
AcDbEntity
  8
ink_ext_XXXXXX
 62
7
100
AcDbSpline
 70
8
 71
3
 72
8
 73
4
 74
0
 40
0
 40
0
 40
0
 40
0
 40
1
 40
1
 40
1
 40
1
 10
69.324105
 20
122.387509
 30
0.0
 10
69.324105
 20
123.339627
 30
0.0
 10
69.868068
 20
124.215114
 30
0.0
 10
70.771750
 20
124.935187
 30
0.0
  0
SPLINE
  5
16e
100
AcDbEntity
  8
ink_ext_XXXXXX
 62
7
100
AcDbSpline
 70
8
 71
3
 72
8
 73
4
 74
0
 40
0
 40
0
 40
0
 40
0
 40
1
 40
1
 40
1
 40
1
 10
70.771750
 20
124.935187
 30
0.0
 10
75.418573
 20
130.077359
 30
0.0
 10
74.561551
 20
136.471333
 30
0.0
 10
74.243896
 20
137.908100
 30
0.0
  0
SPLINE
  5
16f
100
AcDbEntity
  8
ink_ext_XXXXXX
 62
7
100
AcDbSpline
 70
8
 71
3
 72
8
 73
4
 74
0
 40
0
 40
0
 40
0
 40
0
 40
1
 40
1
 40
1
 40
1
 10
74.243896
 20
137.908100
 30
0.0
 10
73.780932
 20
138.137611
 30
0.0
 10
72.490883
 20
138.475929
 30
0.0
 10
72.476802
 20
138.297952
 30
0.0
  0
SPLINE
  5
170
100
AcDbEntity
  8
ink_ext_XXXXXX
 62
7
100
AcDbSpline
 70
8
 71
3
 72
8
 73
4
 74
0
 40
0
 40
0
 40
0
 40
0
 40
1
 40
1
 40
1
 40
1
 10
72.476802
 20
138.297952
 30
0.0
 10
72.167596
 20
134.406967
 30
0.0
 10
70.859944
 20
131.473785
 30
0.0
 10
69.277023
 20
131.473785
 30
0.0
  0
SPLINE
  5
171
100
AcDbEntity
  8
ink_ext_XXXXXX
 62
7
100
AcDbSpline
 70
8
 71
3
 72
8
 73
4
 74
0
 40
0
 40
0
 40
0
 40
0
 40
1
 40
1
 40
1
 40
1
 10
69.277023
 20
131.473785
 30
0.0
 10
67.463190
 20
131.473785
 30
0.0
 10
65.836118
 20
135.870786
 30
0.0
 10
65.836118
 20
140.604062
 30
0.0
  0
SPLINE
  5
172
100
AcDbEntity
  8
ink_ext_XXXXXX
 62
7
100
AcDbSpline
 70
8
 71
3
 72
8
 73
4
 74
0
 40
0
 40
0
 40
0
 40
0
 40
1
 40
1
 40
1
 40
1
 10
65.836118
 20
140.604062
 30
0.0
 10
65.836118
 20
140.723270
 30
0.0
 10
64.654326
 20
140.993317
 30
0.0
 10
64.206309
 20
140.979833
 30
0.0
  0
LWPOLYLINE
  5
173
100
AcDbEntity
  8
ink_ext_XXXXXX
 62
7
100
AcDbPolyline
 90
2
 70
1
 10
74.355219
 20
118.267224
 30
0.0
 10
74.347297
 20
118.279105
 30
0.0
  0
SPLINE
  5
174
100
AcDbEntity
  8
ink_ext_XXXXXX
 62
7
100
AcDbSpline
 70
8
 71
3
 72
8
 73
4
 74
0
 40
0
 40
0
 40
0
 40
0
 40
1
 40
1
 40
1
 40
1
 10
81.431073
 20
101.614480
 30
0.0
 10
81.645560
 20
101.613016
 30
0.0
 10
81.860359
 20
101.608504
 30
0.0
 10
82.075691
 20
101.600839
 30
0.0
  0
SPLINE
  5
175
100
AcDbEntity
  8
ink_ext_XXXXXX
 62
7
100
AcDbSpline
 70
8
 71
3
 72
8
 73
4
 74
0
 40
0
 40
0
 40
0
 40
0
 40
1
 40
1
 40
1
 40
1
 10
82.075691
 20
101.600839
 30
0.0
 10
91.296766
 20
101.541772
 30
0.0
 10
99.488105
 20
95.815583
 30
0.0
 10
104.427488
 20
88.307156
 30
0.0
  0
SPLINE
  5
176
100
AcDbEntity
  8
ink_ext_XXXXXX
 62
7
100
AcDbSpline
 70
8
 71
3
 72
8
 73
4
 74
0
 40
0
 40
0
 40
0
 40
0
 40
1
 40
1
 40
1
 40
1
 10
104.427488
 20
88.307156
 30
0.0
 10
114.089451
 20
74.849777
 30
0.0
 10
116.843487
 20
56.501110
 30
0.0
 10
110.524755
 20
41.048844
 30
0.0
  0
SPLINE
  5
177
100
AcDbEntity
  8
ink_ext_XXXXXX
 62
7
100
AcDbSpline
 70
8
 71
3
 72
8
 73
4
 74
0
 40
0
 40
0
 40
0
 40
0
 40
1
 40
1
 40
1
 40
1
 10
110.524755
 20
41.048844
 30
0.0
 10
103.251088
 20
21.897427
 30
0.0
 10
84.498184
 20
6.900306
 30
0.0
 10
63.658493
 20
6.524077
 30
0.0
  0
SPLINE
  5
178
100
AcDbEntity
  8
ink_ext_XXXXXX
 62
7
100
AcDbSpline
 70
8
 71
3
 72
8
 73
4
 74
0
 40
0
 40
0
 40
0
 40
0
 40
1
 40
1
 40
1
 40
1
 10
63.658493
 20
6.524077
 30
0.0
 10
60.959084
 20
6.450577
 30
0.0
 10
58.259840
 20
6.581437
 30
0.0
 10
55.564447
 20
6.715483
 30
0.0
  0
SPLINE
  5
179
100
AcDbEntity
  8
ink_ext_XXXXXX
 62
7
100
AcDbSpline
 70
8
 71
3
 72
8
 73
4
 74
0
 40
0
 40
0
 40
0
 40
0
 40
1
 40
1
 40
1
 40
1
 10
55.564447
 20
6.715483
 30
0.0
 10
40.670526
 20
8.249855
 30
0.0
 10
26.062917
 20
15.936797
 30
0.0
 10
17.739582
 20
28.605264
 30
0.0
  0
SPLINE
  5
17a
100
AcDbEntity
  8
ink_ext_XXXXXX
 62
7
100
AcDbSpline
 70
8
 71
3
 72
8
 73
4
 74
0
 40
0
 40
0
 40
0
 40
0
 40
1
 40
1
 40
1
 40
1
 10
17.739582
 20
28.605264
 30
0.0
 10
24.838226
 20
20.900060
 30
0.0
 10
36.240610
 20
16.352130
 30
0.0
 10
46.477294
 20
20.051847
 30
0.0
  0
SPLINE
  5
17b
100
AcDbEntity
  8
ink_ext_XXXXXX
 62
7
100
AcDbSpline
 70
8
 71
3
 72
8
 73
4
 74
0
 40
0
 40
0
 40
0
 40
0
 40
1
 40
1
 40
1
 40
1
 10
46.477294
 20
20.051847
 30
0.0
 10
59.272910
 20
24.149307
 30
0.0
 10
68.350300
 20
38.964048
 30
0.0
 10
63.873219
 20
52.105497
 30
0.0
  0
SPLINE
  5
17c
100
AcDbEntity
  8
ink_ext_XXXXXX
 62
7
100
AcDbSpline
 70
8
 71
3
 72
8
 73
4
 74
0
 40
0
 40
0
 40
0
 40
0
 40
1
 40
1
 40
1
 40
1
 10
63.873219
 20
52.105497
 30
0.0
 10
61.122850
 20
60.127454
 30
0.0
 10
54.690230
 20
67.259579
 30
0.0
 10
55.683252
 20
76.249470
 30
0.0
  0
SPLINE
  5
17d
100
AcDbEntity
  8
ink_ext_XXXXXX
 62
7
100
AcDbSpline
 70
8
 71
3
 72
8
 73
4
 74
0
 40
0
 40
0
 40
0
 40
0
 40
1
 40
1
 40
1
 40
1
 10
55.683252
 20
76.249470
 30
0.0
 10
56.156492
 20
89.588202
 30
0.0
 10
67.918385
 20
101.707056
 30
0.0
 10
81.431073
 20
101.614480
 30
0.0
  0
LWPOLYLINE
  5
17e
100
AcDbEntity
  8
ink_ext_XXXXXX
 62
7
100
AcDbPolyline
 90
2
 70
1
 10
64.206309
 20
140.979833
 30
0.0
 10
64.206309
 20
140.979833
 30
0.0
  0
SPLINE
  5
17f
100
AcDbEntity
  8
ink_ext_XXXXXX
 62
7
100
AcDbSpline
 70
8
 71
3
 72
8
 73
4
 74
0
 40
0
 40
0
 40
0
 40
0
 40
1
 40
1
 40
1
 40
1
 10
27.099136
 20
81.842030
 30
0.0
 10
26.952554
 20
81.841885
 30
0.0
 10
26.806044
 20
81.838213
 30
0.0
 10
26.659535
 20
81.831488
 30
0.0
  0
SPLINE
  5
180
100
AcDbEntity
  8
ink_ext_XXXXXX
 62
7
100
AcDbSpline
 70
8
 71
3
 72
8
 73
4
 74
0
 40
0
 40
0
 40
0
 40
0
 40
1
 40
1
 40
1
 40
1
 10
26.659535
 20
81.831488
 30
0.0
 10
18.386586
 20
81.647374
 30
0.0
 10
11.321264
 20
75.534865
 30
0.0
 10
7.800853
 20
68.377941
 30
0.0
  0
SPLINE
  5
181
100
AcDbEntity
  8
ink_ext_XXXXXX
 62
7
100
AcDbSpline
 70
8
 71
3
 72
8
 73
4
 74
0
 40
0
 40
0
 40
0
 40
0
 40
1
 40
1
 40
1
 40
1
 10
7.800853
 20
68.377941
 30
0.0
 10
5.236854
 20
63.099415
 30
0.0
 10
4.510649
 20
56.131367
 30
0.0
 10
8.310320
 20
51.245060
 30
0.0
  0
SPLINE
  5
182
100
AcDbEntity
  8
ink_ext_XXXXXX
 62
7
100
AcDbSpline
 70
8
 71
3
 72
8
 73
4
 74
0
 40
0
 40
0
 40
0
 40
0
 40
1
 40
1
 40
1
 40
1
 10
8.310320
 20
51.245060
 30
0.0
 10
11.396382
 20
47.430176
 30
0.0
 10
17.483900
 20
46.490577
 30
0.0
 10
21.715903
 20
48.188515
 30
0.0
  0
SPLINE
  5
183
100
AcDbEntity
  8
ink_ext_XXXXXX
 62
7
100
AcDbSpline
 70
8
 71
3
 72
8
 73
4
 74
0
 40
0
 40
0
 40
0
 40
0
 40
1
 40
1
 40
1
 40
1
 10
21.715903
 20
48.188515
 30
0.0
 10
24.614870
 20
49.351649
 30
0.0
 10
27.713200
 20
51.529155
 30
0.0
 10
29.363937
 20
53.170186
 30
0.0
  0
SPLINE
  5
184
100
AcDbEntity
  8
ink_ext_XXXXXX
 62
7
100
AcDbSpline
 70
8
 71
3
 72
8
 73
4
 74
0
 40
0
 40
0
 40
0
 40
0
 40
1
 40
1
 40
1
 40
1
 10
29.363937
 20
53.170186
 30
0.0
 10
29.564463
 20
52.036895
 30
0.0
 10
30.023476
 20
50.957312
 30
0.0
 10
30.801171
 20
50.054881
 30
0.0
  0
SPLINE
  5
185
100
AcDbEntity
  8
ink_ext_XXXXXX
 62
7
100
AcDbSpline
 70
8
 71
3
 72
8
 73
4
 74
0
 40
0
 40
0
 40
0
 40
0
 40
1
 40
1
 40
1
 40
1
 10
30.801171
 20
50.054881
 30
0.0
 10
31.878610
 20
48.988129
 30
0.0
 10
33.206829
 20
48.455180
 30
0.0
 10
34.787210
 20
48.455180
 30
0.0
  0
SPLINE
  5
186
100
AcDbEntity
  8
ink_ext_XXXXXX
 62
7
100
AcDbSpline
 70
8
 71
3
 72
8
 73
4
 74
0
 40
0
 40
0
 40
0
 40
0
 40
1
 40
1
 40
1
 40
1
 10
34.787210
 20
48.455180
 30
0.0
 10
36.367881
 20
48.455180
 30
0.0
 10
37.663131
 20
49.085202
 30
0.0
 10
38.671850
 20
50.345955
 30
0.0
  0
SPLINE
  5
187
100
AcDbEntity
  8
ink_ext_XXXXXX
 62
7
100
AcDbSpline
 70
8
 71
3
 72
8
 73
4
 74
0
 40
0
 40
0
 40
0
 40
0
 40
1
 40
1
 40
1
 40
1
 10
38.671850
 20
50.345955
 30
0.0
 10
39.254489
 20
49.104031
 30
0.0
 10
40.437126
 20
48.483569
 30
0.0
 10
42.221123
 20
48.483569
 30
0.0
  0
SPLINE
  5
188
100
AcDbEntity
  8
ink_ext_XXXXXX
 62
7
100
AcDbSpline
 70
8
 71
3
 72
8
 73
4
 74
0
 40
0
 40
0
 40
0
 40
0
 40
1
 40
1
 40
1
 40
1
 10
42.221123
 20
48.483569
 30
0.0
 10
42.221123
 20
48.483569
 30
0.0
 10
44.079546
 20
48.542638
 30
0.0
 10
45.557110
 20
49.927073
 30
0.0
  0
SPLINE
  5
189
100
AcDbEntity
  8
ink_ext_XXXXXX
 62
7
100
AcDbSpline
 70
8
 71
3
 72
8
 73
4
 74
0
 40
0
 40
0
 40
0
 40
0
 40
1
 40
1
 40
1
 40
1
 10
45.557110
 20
49.927073
 30
0.0
 10
45.686154
 20
49.817695
 30
0.0
 10
45.824757
 20
49.706573
 30
0.0
 10
45.982808
 20
49.592251
 30
0.0
  0
SPLINE
  5
18a
100
AcDbEntity
  8
ink_ext_XXXXXX
 62
7
100
AcDbSpline
 70
8
 71
3
 72
8
 73
4
 74
0
 40
0
 40
0
 40
0
 40
0
 40
1
 40
1
 40
1
 40
1
 10
45.982808
 20
49.592251
 30
0.0
 10
46.843127
 20
48.969899
 30
0.0
 10
48.011532
 20
48.658232
 30
0.0
 10
49.485480
 20
48.658232
 30
0.0
  0
SPLINE
  5
18b
100
AcDbEntity
  8
ink_ext_XXXXXX
 62
7
100
AcDbSpline
 70
8
 71
3
 72
8
 73
4
 74
0
 40
0
 40
0
 40
0
 40
0
 40
1
 40
1
 40
1
 40
1
 10
49.485480
 20
48.658232
 30
0.0
 10
50.960554
 20
48.658232
 30
0.0
 10
52.273451
 20
49.073879
 30
0.0
 10
53.425227
 20
49.904064
 30
0.0
  0
SPLINE
  5
18c
100
AcDbEntity
  8
ink_ext_XXXXXX
 62
7
100
AcDbSpline
 70
8
 71
3
 72
8
 73
4
 74
0
 40
0
 40
0
 40
0
 40
0
 40
1
 40
1
 40
1
 40
1
 10
53.425227
 20
49.904064
 30
0.0
 10
54.578420
 20
50.733976
 30
0.0
 10
55.153844
 20
51.803618
 30
0.0
 10
55.153844
 20
53.111408
 30
0.0
  0
SPLINE
  5
18d
100
AcDbEntity
  8
ink_ext_XXXXXX
 62
7
100
AcDbSpline
 70
8
 71
3
 72
8
 73
4
 74
0
 40
0
 40
0
 40
0
 40
0
 40
1
 40
1
 40
1
 40
1
 10
55.153844
 20
53.111408
 30
0.0
 10
55.107733
 20
54.449751
 30
0.0
 10
53.973297
 20
55.974970
 30
0.0
 10
52.938479
 20
57.202227
 30
0.0
  0
SPLINE
  5
18e
100
AcDbEntity
  8
ink_ext_XXXXXX
 62
7
100
AcDbSpline
 70
8
 71
3
 72
8
 73
4
 74
0
 40
0
 40
0
 40
0
 40
0
 40
1
 40
1
 40
1
 40
1
 10
52.938479
 20
57.202227
 30
0.0
 10
52.864779
 20
57.289612
 30
0.0
 10
52.791479
 20
57.375344
 30
0.0
 10
52.719233
 20
57.459513
 30
0.0
  0
LWPOLYLINE
  5
18f
100
AcDbEntity
  8
ink_ext_XXXXXX
 62
7
100
AcDbPolyline
 90
2
 70
1
 10
81.431073
 20
101.614480
 30
0.0
 10
81.431073
 20
101.614480
 30
0.0
  0
SPLINE
  5
190
100
AcDbEntity
  8
ink_ext_XXXXXX
 62
7
100
AcDbSpline
 70
8
 71
3
 72
8
 73
4
 74
0
 40
0
 40
0
 40
0
 40
0
 40
1
 40
1
 40
1
 40
1
 10
51.696610
 20
58.406055
 30
0.0
 10
50.783056
 20
59.235949
 30
0.0
 10
50.326933
 20
59.881220
 30
0.0
 10
50.326933
 20
60.337434
 30
0.0
  0
SPLINE
  5
191
100
AcDbEntity
  8
ink_ext_XXXXXX
 62
7
100
AcDbSpline
 70
8
 71
3
 72
8
 73
4
 74
0
 40
0
 40
0
 40
0
 40
0
 40
1
 40
1
 40
1
 40
1
 10
50.326933
 20
60.337434
 30
0.0
 10
50.341837
 20
60.959932
 30
0.0
 10
51.277437
 20
61.458711
 30
0.0
 10
51.978033
 20
61.302987
 30
0.0
  0
SPLINE
  5
192
100
AcDbEntity
  8
ink_ext_XXXXXX
 62
7
100
AcDbSpline
 70
8
 71
3
 72
8
 73
4
 74
0
 40
0
 40
0
 40
0
 40
0
 40
1
 40
1
 40
1
 40
1
 10
51.978033
 20
61.302987
 30
0.0
 10
52.665180
 20
61.150243
 30
0.0
 10
54.458555
 20
59.856811
 30
0.0
 10
54.527947
 20
59.806666
 30
0.0
  0
LWPOLYLINE
  5
193
100
AcDbEntity
  8
ink_ext_XXXXXX
 62
7
100
AcDbPolyline
 90
2
 70
1
 10
52.719233
 20
57.459513
 30
0.0
 10
51.696610
 20
58.406055
 30
0.0
  0
SPLINE
  5
194
100
AcDbEntity
  8
ink_ext_XXXXXX
 62
7
100
AcDbSpline
 70
8
 71
3
 72
8
 73
4
 74
0
 40
0
 40
0
 40
0
 40
0
 40
1
 40
1
 40
1
 40
1
 10
54.539034
 20
59.779112
 30
0.0
 10
55.897942
 20
59.117738
 30
0.0
 10
56.977864
 20
59.191656
 30
0.0
 10
57.769088
 20
59.490873
 30
0.0
  0
SPLINE
  5
195
100
AcDbEntity
  8
ink_ext_XXXXXX
 62
7
100
AcDbSpline
 70
8
 71
3
 72
8
 73
4
 74
0
 40
0
 40
0
 40
0
 40
0
 40
1
 40
1
 40
1
 40
1
 10
57.769088
 20
59.490873
 30
0.0
 10
57.371339
 20
55.372374
 30
0.0
 10
56.824771
 20
49.216172
 30
0.0
 10
55.848775
 20
40.808564
 30
0.0
  0
SPLINE
  5
196
100
AcDbEntity
  8
ink_ext_XXXXXX
 62
7
100
AcDbSpline
 70
8
 71
3
 72
8
 73
4
 74
0
 40
0
 40
0
 40
0
 40
0
 40
1
 40
1
 40
1
 40
1
 10
55.848775
 20
40.808564
 30
0.0
 10
55.848775
 20
40.808564
 30
0.0
 10
58.425310
 20
40.183031
 30
0.0
 10
59.659871
 20
42.481528
 30
0.0
  0
LWPOLYLINE
  5
197
100
AcDbEntity
  8
ink_ext_XXXXXX
 62
7
100
AcDbPolyline
 90
2
 70
1
 10
54.527947
 20
59.806666
 30
0.0
 10
54.539034
 20
59.779112
 30
0.0
  0
SPLINE
  5
198
100
AcDbEntity
  8
ink_ext_XXXXXX
 62
7
100
AcDbSpline
 70
8
 71
3
 72
8
 73
4
 74
0
 40
0
 40
0
 40
0
 40
0
 40
1
 40
1
 40
1
 40
1
 10
60.307356
 20
48.658796
 30
0.0
 10
60.947741
 20
48.522755
 30
0.0
 10
61.538756
 20
48.455180
 30
0.0
 10
62.082272
 20
48.455180
 30
0.0
  0
SPLINE
  5
199
100
AcDbEntity
  8
ink_ext_XXXXXX
 62
7
100
AcDbSpline
 70
8
 71
3
 72
8
 73
4
 74
0
 40
0
 40
0
 40
0
 40
0
 40
1
 40
1
 40
1
 40
1
 10
62.082272
 20
48.455180
 30
0.0
 10
64.486633
 20
48.455180
 30
0.0
 10
66.436746
 20
49.119553
 30
0.0
 10
67.930682
 20
50.447899
 30
0.0
  0
SPLINE
  5
19a
100
AcDbEntity
  8
ink_ext_XXXXXX
 62
7
100
AcDbSpline
 70
8
 71
3
 72
8
 73
4
 74
0
 40
0
 40
0
 40
0
 40
0
 40
1
 40
1
 40
1
 40
1
 10
67.930682
 20
50.447899
 30
0.0
 10
69.423761
 20
51.776228
 30
0.0
 10
70.277344
 20
53.710769
 30
0.0
 10
70.490535
 20
56.252577
 30
0.0
  0
SPLINE
  5
19b
100
AcDbEntity
  8
ink_ext_XXXXXX
 62
7
100
AcDbSpline
 70
8
 71
3
 72
8
 73
4
 74
0
 40
0
 40
0
 40
0
 40
0
 40
1
 40
1
 40
1
 40
1
 10
70.490535
 20
56.252577
 30
0.0
 10
70.510524
 20
56.485763
 30
0.0
 10
70.520069
 20
56.708463
 30
0.0
 10
70.520069
 20
56.921657
 30
0.0
  0
SPLINE
  5
19c
100
AcDbEntity
  8
ink_ext_XXXXXX
 62
7
100
AcDbSpline
 70
8
 71
3
 72
8
 73
4
 74
0
 40
0
 40
0
 40
0
 40
0
 40
1
 40
1
 40
1
 40
1
 10
70.520069
 20
56.921657
 30
0.0
 10
70.520069
 20
57.493119
 30
0.0
 10
70.449441
 20
58.037409
 30
0.0
 10
70.309065
 20
58.555146
 30
0.0
  0
SPLINE
  5
19d
100
AcDbEntity
  8
ink_ext_XXXXXX
 62
7
100
AcDbSpline
 70
8
 71
3
 72
8
 73
4
 74
0
 40
0
 40
0
 40
0
 40
0
 40
1
 40
1
 40
1
 40
1
 10
70.309065
 20
58.555146
 30
0.0
 10
71.425781
 20
58.158437
 30
0.0
 10
72.187900
 20
58.562234
 30
0.0
 10
72.640309
 20
58.988495
 30
0.0
  0
LWPOLYLINE
  5
19e
100
AcDbEntity
  8
ink_ext_XXXXXX
 62
7
100
AcDbPolyline
 90
2
 70
1
 10
59.659871
 20
42.481528
 30
0.0
 10
60.307356
 20
48.658796
 30
0.0
  0
SPLINE
  5
19f
100
AcDbEntity
  8
ink_ext_XXXXXX
 62
7
100
AcDbSpline
 70
8
 71
3
 72
8
 73
4
 74
0
 40
0
 40
0
 40
0
 40
0
 40
1
 40
1
 40
1
 40
1
 10
71.887463
 20
52.528096
 30
0.0
 10
71.868412
 20
52.296036
 30
0.0
 10
71.859064
 20
52.072209
 30
0.0
 10
71.859064
 20
51.859034
 30
0.0
  0
SPLINE
  5
1a0
100
AcDbEntity
  8
ink_ext_XXXXXX
 62
7
100
AcDbSpline
 70
8
 71
3
 72
8
 73
4
 74
0
 40
0
 40
0
 40
0
 40
0
 40
1
 40
1
 40
1
 40
1
 10
71.859064
 20
51.859034
 30
0.0
 10
71.859064
 20
50.850315
 30
0.0
 10
72.173923
 20
50.026455
 30
0.0
 10
72.805021
 20
49.386073
 30
0.0
  0
SPLINE
  5
1a1
100
AcDbEntity
  8
ink_ext_XXXXXX
 62
7
100
AcDbSpline
 70
8
 71
3
 72
8
 73
4
 74
0
 40
0
 40
0
 40
0
 40
0
 40
1
 40
1
 40
1
 40
1
 10
72.805021
 20
49.386073
 30
0.0
 10
73.434702
 20
48.745418
 30
0.0
 10
74.399775
 20
48.425645
 30
0.0
 10
75.699692
 20
48.425645
 30
0.0
  0
SPLINE
  5
1a2
100
AcDbEntity
  8
ink_ext_XXXXXX
 62
7
100
AcDbSpline
 70
8
 71
3
 72
8
 73
4
 74
0
 40
0
 40
0
 40
0
 40
0
 40
1
 40
1
 40
1
 40
1
 10
75.699692
 20
48.425645
 30
0.0
 10
76.998451
 20
48.425645
 30
0.0
 10
78.114899
 20
48.900525
 30
0.0
 10
79.045334
 20
49.851247
 30
0.0
  0
SPLINE
  5
1a3
100
AcDbEntity
  8
ink_ext_XXXXXX
 62
7
100
AcDbSpline
 70
8
 71
3
 72
8
 73
4
 74
0
 40
0
 40
0
 40
0
 40
0
 40
1
 40
1
 40
1
 40
1
 10
79.045334
 20
49.851247
 30
0.0
 10
79.274153
 20
50.084688
 30
0.0
 10
79.486448
 20
50.336377
 30
0.0
 10
79.682315
 20
50.606096
 30
0.0
  0
SPLINE
  5
1a4
100
AcDbEntity
  8
ink_ext_XXXXXX
 62
7
100
AcDbSpline
 70
8
 71
3
 72
8
 73
4
 74
0
 40
0
 40
0
 40
0
 40
0
 40
1
 40
1
 40
1
 40
1
 10
79.682315
 20
50.606096
 30
0.0
 10
79.829479
 20
50.413567
 30
0.0
 10
79.989491
 20
50.229216
 30
0.0
 10
80.165374
 20
50.054881
 30
0.0
  0
SPLINE
  5
1a5
100
AcDbEntity
  8
ink_ext_XXXXXX
 62
7
100
AcDbSpline
 70
8
 71
3
 72
8
 73
4
 74
0
 40
0
 40
0
 40
0
 40
0
 40
1
 40
1
 40
1
 40
1
 10
80.165374
 20
50.054881
 30
0.0
 10
81.242820
 20
48.988129
 30
0.0
 10
82.571006
 20
48.455180
 30
0.0
 10
84.151691
 20
48.455180
 30
0.0
  0
SPLINE
  5
1a6
100
AcDbEntity
  8
ink_ext_XXXXXX
 62
7
100
AcDbSpline
 70
8
 71
3
 72
8
 73
4
 74
0
 40
0
 40
0
 40
0
 40
0
 40
1
 40
1
 40
1
 40
1
 10
84.151691
 20
48.455180
 30
0.0
 10
85.732072
 20
48.455180
 30
0.0
 10
87.027627
 20
49.085202
 30
0.0
 10
88.036338
 20
50.345955
 30
0.0
  0
SPLINE
  5
1a7
100
AcDbEntity
  8
ink_ext_XXXXXX
 62
7
100
AcDbSpline
 70
8
 71
3
 72
8
 73
4
 74
0
 40
0
 40
0
 40
0
 40
0
 40
1
 40
1
 40
1
 40
1
 10
88.036338
 20
50.345955
 30
0.0
 10
88.618713
 20
49.104031
 30
0.0
 10
89.801326
 20
48.483569
 30
0.0
 10
91.585597
 20
48.483569
 30
0.0
  0
SPLINE
  5
1a8
100
AcDbEntity
  8
ink_ext_XXXXXX
 62
7
100
AcDbSpline
 70
8
 71
3
 72
8
 73
4
 74
0
 40
0
 40
0
 40
0
 40
0
 40
1
 40
1
 40
1
 40
1
 10
91.585597
 20
48.483569
 30
0.0
 10
92.517159
 20
48.483569
 30
0.0
 10
93.457141
 20
48.856486
 30
0.0
 10
94.407852
 20
49.603611
 30
0.0
  0
SPLINE
  5
1a9
100
AcDbEntity
  8
ink_ext_XXXXXX
 62
7
100
AcDbSpline
 70
8
 71
3
 72
8
 73
4
 74
0
 40
0
 40
0
 40
0
 40
0
 40
1
 40
1
 40
1
 40
1
 10
94.407852
 20
49.603611
 30
0.0
 10
94.428356
 20
49.619787
 30
0.0
 10
94.448301
 20
49.637544
 30
0.0
 10
94.468623
 20
49.654156
 30
0.0
  0
LWPOLYLINE
  5
1aa
100
AcDbEntity
  8
ink_ext_XXXXXX
 62
7
100
AcDbPolyline
 90
2
 70
1
 10
72.640309
 20
58.988495
 30
0.0
 10
71.887463
 20
52.528096
 30
0.0
  0
SPLINE
  5
1ab
100
AcDbEntity
  8
ink_ext_XXXXXX
 62
7
100
AcDbSpline
 70
8
 71
3
 72
8
 73
4
 74
0
 40
0
 40
0
 40
0
 40
0
 40
1
 40
1
 40
1
 40
1
 10
98.277163
 20
48.629261
 30
0.0
 10
98.316025
 20
49.094471
 30
0.0
 10
98.684617
 20
51.984551
 30
0.0
 10
99.383006
 20
57.300481
 30
0.0
  0
SPLINE
  5
1ac
100
AcDbEntity
  8
ink_ext_XXXXXX
 62
7
100
AcDbSpline
 70
8
 71
3
 72
8
 73
4
 74
0
 40
0
 40
0
 40
0
 40
0
 40
1
 40
1
 40
1
 40
1
 10
99.383006
 20
57.300481
 30
0.0
 10
99.499027
 20
58.133756
 30
0.0
 10
99.776029
 20
58.827609
 30
0.0
 10
100.211675
 20
59.380405
 30
0.0
  0
SPLINE
  5
1ad
100
AcDbEntity
  8
ink_ext_XXXXXX
 62
7
100
AcDbSpline
 70
8
 71
3
 72
8
 73
4
 74
0
 40
0
 40
0
 40
0
 40
0
 40
1
 40
1
 40
1
 40
1
 10
100.211675
 20
59.380405
 30
0.0
 10
100.648731
 20
59.933492
 30
0.0
 10
101.182546
 20
60.209354
 30
0.0
 10
101.812221
 20
60.209354
 30
0.0
  0
SPLINE
  5
1ae
100
AcDbEntity
  8
ink_ext_XXXXXX
 62
7
100
AcDbSpline
 70
8
 71
3
 72
8
 73
4
 74
0
 40
0
 40
0
 40
0
 40
0
 40
1
 40
1
 40
1
 40
1
 10
101.812221
 20
60.209354
 30
0.0
 10
102.442180
 20
60.209354
 30
0.0
 10
102.893386
 20
60.035164
 30
0.0
 10
103.165699
 20
59.685965
 30
0.0
  0
SPLINE
  5
1af
100
AcDbEntity
  8
ink_ext_XXXXXX
 62
7
100
AcDbSpline
 70
8
 71
3
 72
8
 73
4
 74
0
 40
0
 40
0
 40
0
 40
0
 40
1
 40
1
 40
1
 40
1
 10
103.165699
 20
59.685965
 30
0.0
 10
103.436608
 20
59.336767
 30
0.0
 10
103.572936
 20
58.899746
 30
0.0
 10
103.572936
 20
58.376521
 30
0.0
  0
LWPOLYLINE
  5
1b0
100
AcDbEntity
  8
ink_ext_XXXXXX
 62
7
100
AcDbPolyline
 90
3
 70
1
 10
94.468623
 20
49.654156
 30
0.0
 10
94.348783
 20
48.629261
 30
0.0
 10
98.277163
 20
48.629261
 30
0.0
  0
SPLINE
  5
1b1
100
AcDbEntity
  8
ink_ext_XXXXXX
 62
7
100
AcDbSpline
 70
8
 71
3
 72
8
 73
4
 74
0
 40
0
 40
0
 40
0
 40
0
 40
1
 40
1
 40
1
 40
1
 10
102.874322
 20
51.888568
 30
0.0
 10
102.874322
 20
51.073032
 30
0.0
 10
103.165773
 20
50.297428
 30
0.0
 10
103.747013
 20
49.559900
 30
0.0
  0
SPLINE
  5
1b2
100
AcDbEntity
  8
ink_ext_XXXXXX
 62
7
100
AcDbSpline
 70
8
 71
3
 72
8
 73
4
 74
0
 40
0
 40
0
 40
0
 40
0
 40
1
 40
1
 40
1
 40
1
 10
103.747013
 20
49.559900
 30
0.0
 10
104.329378
 20
48.823462
 30
0.0
 10
105.220832
 20
48.455180
 30
0.0
 10
106.423581
 20
48.455180
 30
0.0
  0
SPLINE
  5
1b3
100
AcDbEntity
  8
ink_ext_XXXXXX
 62
7
100
AcDbSpline
 70
8
 71
3
 72
8
 73
4
 74
0
 40
0
 40
0
 40
0
 40
0
 40
1
 40
1
 40
1
 40
1
 10
106.423581
 20
48.455180
 30
0.0
 10
108.965661
 20
48.455180
 30
0.0
 10
110.749705
 20
50.161223
 30
0.0
 10
111.777575
 20
53.575728
 30
0.0
  0
SPLINE
  5
1b4
100
AcDbEntity
  8
ink_ext_XXXXXX
 62
7
100
AcDbSpline
 70
8
 71
3
 72
8
 73
4
 74
0
 40
0
 40
0
 40
0
 40
0
 40
1
 40
1
 40
1
 40
1
 10
111.777575
 20
53.575728
 30
0.0
 10
111.642403
 20
53.983214
 30
0.0
 10
111.244924
 20
54.536101
 30
0.0
 10
110.585400
 20
55.234498
 30
0.0
  0
SPLINE
  5
1b5
100
AcDbEntity
  8
ink_ext_XXXXXX
 62
7
100
AcDbSpline
 70
8
 71
3
 72
8
 73
4
 74
0
 40
0
 40
0
 40
0
 40
0
 40
1
 40
1
 40
1
 40
1
 10
110.585400
 20
55.234498
 30
0.0
 10
109.905876
 20
52.479514
 30
0.0
 10
108.906696
 20
51.102785
 30
0.0
 10
107.587642
 20
51.102785
 30
0.0
  0
SPLINE
  5
1b6
100
AcDbEntity
  8
ink_ext_XXXXXX
 62
7
100
AcDbSpline
 70
8
 71
3
 72
8
 73
4
 74
0
 40
0
 40
0
 40
0
 40
0
 40
1
 40
1
 40
1
 40
1
 10
107.587642
 20
51.102785
 30
0.0
 10
106.986124
 20
51.102785
 30
0.0
 10
106.686553
 20
51.549057
 30
0.0
 10
106.686553
 20
52.440365
 30
0.0
  0
SPLINE
  5
1b7
100
AcDbEntity
  8
ink_ext_XXXXXX
 62
7
100
AcDbSpline
 70
8
 71
3
 72
8
 73
4
 74
0
 40
0
 40
0
 40
0
 40
0
 40
1
 40
1
 40
1
 40
1
 10
106.686553
 20
52.440365
 30
0.0
 10
106.686553
 20
52.925840
 30
0.0
 10
106.909274
 20
54.642571
 30
0.0
 10
107.355624
 20
57.590738
 30
0.0
  0
SPLINE
  5
1b8
100
AcDbEntity
  8
ink_ext_XXXXXX
 62
7
100
AcDbSpline
 70
8
 71
3
 72
8
 73
4
 74
0
 40
0
 40
0
 40
0
 40
0
 40
1
 40
1
 40
1
 40
1
 10
107.355624
 20
57.590738
 30
0.0
 10
107.471645
 20
58.347132
 30
0.0
 10
107.529424
 20
58.861051
 30
0.0
 10
107.529424
 20
59.133351
 30
0.0
  0
SPLINE
  5
1b9
100
AcDbEntity
  8
ink_ext_XXXXXX
 62
7
100
AcDbSpline
 70
8
 71
3
 72
8
 73
4
 74
0
 40
0
 40
0
 40
0
 40
0
 40
1
 40
1
 40
1
 40
1
 10
107.529424
 20
59.133351
 30
0.0
 10
107.529424
 20
60.142070
 30
0.0
 10
107.151870
 20
60.975180
 30
0.0
 10
106.395467
 20
61.634701
 30
0.0
  0
SPLINE
  5
1ba
100
AcDbEntity
  8
ink_ext_XXXXXX
 62
7
100
AcDbSpline
 70
8
 71
3
 72
8
 73
4
 74
0
 40
0
 40
0
 40
0
 40
0
 40
1
 40
1
 40
1
 40
1
 10
106.395467
 20
61.634701
 30
0.0
 10
105.638786
 20
62.294221
 30
0.0
 10
104.595706
 20
62.624663
 30
0.0
 10
103.267359
 20
62.624663
 30
0.0
  0
SPLINE
  5
1bb
100
AcDbEntity
  8
ink_ext_XXXXXX
 62
7
100
AcDbSpline
 70
8
 71
3
 72
8
 73
4
 74
0
 40
0
 40
0
 40
0
 40
0
 40
1
 40
1
 40
1
 40
1
 10
103.267359
 20
62.624663
 30
0.0
 10
101.939011
 20
62.624663
 30
0.0
 10
100.798877
 20
62.159035
 30
0.0
 10
99.848166
 20
61.227451
 30
0.0
  0
SPLINE
  5
1bc
100
AcDbEntity
  8
ink_ext_XXXXXX
 62
7
100
AcDbSpline
 70
8
 71
3
 72
8
 73
4
 74
0
 40
0
 40
0
 40
0
 40
0
 40
1
 40
1
 40
1
 40
1
 10
99.848166
 20
61.227451
 30
0.0
 10
99.790154
 20
62.178173
 30
0.0
 10
99.110480
 20
62.654198
 30
0.0
 10
97.811702
 20
62.654198
 30
0.0
  0
SPLINE
  5
1bd
100
AcDbEntity
  8
ink_ext_XXXXXX
 62
7
100
AcDbSpline
 70
8
 71
3
 72
8
 73
4
 74
0
 40
0
 40
0
 40
0
 40
0
 40
1
 40
1
 40
1
 40
1
 10
97.811702
 20
62.654198
 30
0.0
 10
97.384500
 20
62.654198
 30
0.0
 10
96.764296
 20
62.546492
 30
0.0
 10
95.949604
 20
62.333298
 30
0.0
  0
LWPOLYLINE
  5
1be
100
AcDbEntity
  8
ink_ext_XXXXXX
 62
7
100
AcDbPolyline
 90
2
 70
1
 10
103.572936
 20
58.376521
 30
0.0
 10
102.874322
 20
51.888568
 30
0.0
  0
SPLINE
  5
1bf
100
AcDbEntity
  8
ink_ext_XXXXXX
 62
7
100
AcDbSpline
 70
8
 71
3
 72
8
 73
4
 74
0
 40
0
 40
0
 40
0
 40
0
 40
1
 40
1
 40
1
 40
1
 10
94.919871
 20
53.517240
 30
0.0
 10
94.662705
 20
52.936036
 30
0.0
 10
94.385895
 20
52.463211
 30
0.0
 10
94.088359
 20
52.106669
 30
0.0
  0
SPLINE
  5
1c0
100
AcDbEntity
  8
ink_ext_XXXXXX
 62
7
100
AcDbSpline
 70
8
 71
3
 72
8
 73
4
 74
0
 40
0
 40
0
 40
0
 40
0
 40
1
 40
1
 40
1
 40
1
 10
94.088359
 20
52.106669
 30
0.0
 10
93.545136
 20
51.456727
 30
0.0
 10
93.031240
 20
51.132320
 30
0.0
 10
92.545746
 20
51.132320
 30
0.0
  0
SPLINE
  5
1c1
100
AcDbEntity
  8
ink_ext_XXXXXX
 62
7
100
AcDbSpline
 70
8
 71
3
 72
8
 73
4
 74
0
 40
0
 40
0
 40
0
 40
0
 40
1
 40
1
 40
1
 40
1
 10
92.545746
 20
51.132320
 30
0.0
 10
91.925360
 20
51.132320
 30
0.0
 10
91.615122
 20
51.519413
 30
0.0
 10
91.615122
 20
52.296090
 30
0.0
  0
SPLINE
  5
1c2
100
AcDbEntity
  8
ink_ext_XXXXXX
 62
7
100
AcDbSpline
 70
8
 71
3
 72
8
 73
4
 74
0
 40
0
 40
0
 40
0
 40
0
 40
1
 40
1
 40
1
 40
1
 10
91.615122
 20
52.296090
 30
0.0
 10
91.615122
 20
52.877331
 30
0.0
 10
91.702924
 20
53.827980
 30
0.0
 10
91.876958
 20
55.146748
 30
0.0
  0
SPLINE
  5
1c3
100
AcDbEntity
  8
ink_ext_XXXXXX
 62
7
100
AcDbSpline
 70
8
 71
3
 72
8
 73
4
 74
0
 40
0
 40
0
 40
0
 40
0
 40
1
 40
1
 40
1
 40
1
 10
91.876958
 20
55.146748
 30
0.0
 10
91.953841
 20
55.729406
 30
0.0
 10
92.090167
 20
56.712989
 30
0.0
 10
92.284195
 20
58.099350
 30
0.0
  0
SPLINE
  5
1c4
100
AcDbEntity
  8
ink_ext_XXXXXX
 62
7
100
AcDbSpline
 70
8
 71
3
 72
8
 73
4
 74
0
 40
0
 40
0
 40
0
 40
0
 40
1
 40
1
 40
1
 40
1
 10
92.284195
 20
58.099350
 30
0.0
 10
92.478506
 20
59.487111
 30
0.0
 10
92.662796
 20
60.898518
 30
0.0
 10
92.836832
 20
62.333298
 30
0.0
  0
SPLINE
  5
1c5
100
AcDbEntity
  8
ink_ext_XXXXXX
 62
7
100
AcDbSpline
 70
8
 71
3
 72
8
 73
4
 74
0
 40
0
 40
0
 40
0
 40
0
 40
1
 40
1
 40
1
 40
1
 10
92.836832
 20
62.333298
 30
0.0
 10
92.506504
 20
62.527608
 30
0.0
 10
91.969195
 20
62.624663
 30
0.0
 10
91.222087
 20
62.624663
 30
0.0
  0
SPLINE
  5
1c6
100
AcDbEntity
  8
ink_ext_XXXXXX
 62
7
100
AcDbSpline
 70
8
 71
3
 72
8
 73
4
 74
0
 40
0
 40
0
 40
0
 40
0
 40
1
 40
1
 40
1
 40
1
 10
91.222087
 20
62.624663
 30
0.0
 10
90.474981
 20
62.624663
 30
0.0
 10
89.840606
 20
62.460015
 30
0.0
 10
89.315972
 20
62.129682
 30
0.0
  0
SPLINE
  5
1c7
100
AcDbEntity
  8
ink_ext_XXXXXX
 62
7
100
AcDbSpline
 70
8
 71
3
 72
8
 73
4
 74
0
 40
0
 40
0
 40
0
 40
0
 40
1
 40
1
 40
1
 40
1
 10
89.315972
 20
62.129682
 30
0.0
 10
88.501558
 20
62.460015
 30
0.0
 10
87.608711
 20
62.624663
 30
0.0
 10
86.639117
 20
62.624663
 30
0.0
  0
LWPOLYLINE
  5
1c8
100
AcDbEntity
  8
ink_ext_XXXXXX
 62
7
100
AcDbPolyline
 90
2
 70
1
 10
95.949604
 20
62.333298
 30
0.0
 10
94.919871
 20
53.517240
 30
0.0
  0
SPLINE
  5
1c9
100
AcDbEntity
  8
ink_ext_XXXXXX
 62
7
100
AcDbSpline
 70
8
 71
3
 72
8
 73
4
 74
0
 40
0
 40
0
 40
0
 40
0
 40
1
 40
1
 40
1
 40
1
 10
86.465320
 20
62.624663
 30
0.0
 10
84.176696
 20
62.624663
 30
0.0
 10
82.284636
 20
61.867851
 30
0.0
 10
80.791557
 20
60.354773
 30
0.0
  0
SPLINE
  5
1ca
100
AcDbEntity
  8
ink_ext_XXXXXX
 62
7
100
AcDbSpline
 70
8
 71
3
 72
8
 73
4
 74
0
 40
0
 40
0
 40
0
 40
0
 40
1
 40
1
 40
1
 40
1
 10
80.791557
 20
60.354773
 30
0.0
 10
79.297619
 20
58.841695
 30
0.0
 10
78.550622
 20
56.815006
 30
0.0
 10
78.550622
 20
54.274343
 30
0.0
  0
SPLINE
  5
1cb
100
AcDbEntity
  8
ink_ext_XXXXXX
 62
7
100
AcDbSpline
 70
8
 71
3
 72
8
 73
4
 74
0
 40
0
 40
0
 40
0
 40
0
 40
1
 40
1
 40
1
 40
1
 10
78.550622
 20
54.274343
 30
0.0
 10
78.550622
 20
53.652154
 30
0.0
 10
78.620365
 20
53.074004
 30
0.0
 10
78.757080
 20
52.538056
 30
0.0
  0
SPLINE
  5
1cc
100
AcDbEntity
  8
ink_ext_XXXXXX
 62
7
100
AcDbSpline
 70
8
 71
3
 72
8
 73
4
 74
0
 40
0
 40
0
 40
0
 40
0
 40
1
 40
1
 40
1
 40
1
 10
78.757080
 20
52.538056
 30
0.0
 10
78.722222
 20
52.481386
 30
0.0
 10
78.688344
 20
52.423862
 30
0.0
 10
78.652290
 20
52.368228
 30
0.0
  0
SPLINE
  5
1cd
100
AcDbEntity
  8
ink_ext_XXXXXX
 62
7
100
AcDbSpline
 70
8
 71
3
 72
8
 73
4
 74
0
 40
0
 40
0
 40
0
 40
0
 40
1
 40
1
 40
1
 40
1
 10
78.652290
 20
52.368228
 30
0.0
 10
78.119497
 20
51.543132
 30
0.0
 10
77.537154
 20
51.132320
 30
0.0
 10
76.907195
 20
51.132320
 30
0.0
  0
SPLINE
  5
1ce
100
AcDbEntity
  8
ink_ext_XXXXXX
 62
7
100
AcDbSpline
 70
8
 71
3
 72
8
 73
4
 74
0
 40
0
 40
0
 40
0
 40
0
 40
1
 40
1
 40
1
 40
1
 10
76.907195
 20
51.132320
 30
0.0
 10
76.276395
 20
51.132320
 30
0.0
 10
75.921968
 20
51.383082
 30
0.0
 10
75.845087
 20
51.888568
 30
0.0
  0
SPLINE
  5
1cf
100
AcDbEntity
  8
ink_ext_XXXXXX
 62
7
100
AcDbSpline
 70
8
 71
3
 72
8
 73
4
 74
0
 40
0
 40
0
 40
0
 40
0
 40
1
 40
1
 40
1
 40
1
 10
75.845087
 20
51.888568
 30
0.0
 10
75.806047
 20
52.081751
 30
0.0
 10
75.787152
 20
52.310231
 30
0.0
 10
75.787152
 20
52.571843
 30
0.0
  0
SPLINE
  5
1d0
100
AcDbEntity
  8
ink_ext_XXXXXX
 62
7
100
AcDbSpline
 70
8
 71
3
 72
8
 73
4
 74
0
 40
0
 40
0
 40
0
 40
0
 40
1
 40
1
 40
1
 40
1
 10
75.787152
 20
52.571843
 30
0.0
 10
75.787152
 20
52.833456
 30
0.0
 10
75.834553
 20
53.157864
 30
0.0
 10
75.931702
 20
53.546193
 30
0.0
  0
SPLINE
  5
1d1
100
AcDbEntity
  8
ink_ext_XXXXXX
 62
7
100
AcDbSpline
 70
8
 71
3
 72
8
 73
4
 74
0
 40
0
 40
0
 40
0
 40
0
 40
1
 40
1
 40
1
 40
1
 10
75.931702
 20
53.546193
 30
0.0
 10
75.931702
 20
53.604208
 30
0.0
 10
76.310394
 20
56.553502
 30
0.0
 10
77.067078
 20
62.391513
 30
0.0
  0
SPLINE
  5
1d2
100
AcDbEntity
  8
ink_ext_XXXXXX
 62
7
100
AcDbSpline
 70
8
 71
3
 72
8
 73
4
 74
0
 40
0
 40
0
 40
0
 40
0
 40
1
 40
1
 40
1
 40
1
 10
77.067078
 20
62.391513
 30
0.0
 10
76.659870
 20
62.527553
 30
0.0
 10
76.188462
 20
62.595128
 30
0.0
 10
75.655950
 20
62.595128
 30
0.0
  0
SPLINE
  5
1d3
100
AcDbEntity
  8
ink_ext_XXXXXX
 62
7
100
AcDbSpline
 70
8
 71
3
 72
8
 73
4
 74
0
 40
0
 40
0
 40
0
 40
0
 40
1
 40
1
 40
1
 40
1
 10
75.655950
 20
62.595128
 30
0.0
 10
75.121741
 20
62.595128
 30
0.0
 10
74.584417
 20
62.503835
 30
0.0
 10
74.040922
 20
62.319103
 30
0.0
  0
SPLINE
  5
1d4
100
AcDbEntity
  8
ink_ext_XXXXXX
 62
7
100
AcDbSpline
 70
8
 71
3
 72
8
 73
4
 74
0
 40
0
 40
0
 40
0
 40
0
 40
1
 40
1
 40
1
 40
1
 10
74.040922
 20
62.319103
 30
0.0
 10
73.497407
 20
62.134371
 30
0.0
 10
73.129398
 20
61.868015
 30
0.0
 10
72.935078
 20
61.518834
 30
0.0
  0
SPLINE
  5
1d5
100
AcDbEntity
  8
ink_ext_XXXXXX
 62
7
100
AcDbSpline
 70
8
 71
3
 72
8
 73
4
 74
0
 40
0
 40
0
 40
0
 40
0
 40
1
 40
1
 40
1
 40
1
 10
72.935078
 20
61.518834
 30
0.0
 10
70.778812
 20
59.807211
 30
0.0
 10
68.042281
 20
61.815307
 30
0.0
 10
68.042281
 20
61.815307
 30
0.0
  0
LWPOLYLINE
  5
1d6
100
AcDbEntity
  8
ink_ext_XXXXXX
 62
7
100
AcDbPolyline
 90
2
 70
1
 10
86.639117
 20
62.624663
 30
0.0
 10
86.465320
 20
62.624663
 30
0.0
  0
SPLINE
  5
1d7
100
AcDbEntity
  8
ink_ext_XXXXXX
 62
7
100
AcDbSpline
 70
8
 71
3
 72
8
 73
4
 74
0
 40
0
 40
0
 40
0
 40
0
 40
1
 40
1
 40
1
 40
1
 10
68.042427
 20
61.815307
 30
0.0
 10
67.255849
 20
62.374246
 30
0.0
 10
66.374933
 20
62.655052
 30
0.0
 10
65.399369
 20
62.655052
 30
0.0
  0
SPLINE
  5
1d8
100
AcDbEntity
  8
ink_ext_XXXXXX
 62
7
100
AcDbSpline
 70
8
 71
3
 72
8
 73
4
 74
0
 40
0
 40
0
 40
0
 40
0
 40
1
 40
1
 40
1
 40
1
 10
65.399369
 20
62.655052
 30
0.0
 10
64.002300
 20
62.655052
 30
0.0
 10
62.848004
 20
62.334152
 30
0.0
 10
61.936439
 20
61.694897
 30
0.0
  0
SPLINE
  5
1d9
100
AcDbEntity
  8
ink_ext_XXXXXX
 62
7
100
AcDbSpline
 70
8
 71
3
 72
8
 73
4
 74
0
 40
0
 40
0
 40
0
 40
0
 40
1
 40
1
 40
1
 40
1
 10
61.936439
 20
61.694897
 30
0.0
 10
61.723250
 20
62.334152
 30
0.0
 10
60.985796
 20
62.655052
 30
0.0
 10
59.724756
 20
62.655052
 30
0.0
  0
SPLINE
  5
1da
100
AcDbEntity
  8
ink_ext_XXXXXX
 62
7
100
AcDbSpline
 70
8
 71
3
 72
8
 73
4
 74
0
 40
0
 40
0
 40
0
 40
0
 40
1
 40
1
 40
1
 40
1
 10
59.724756
 20
62.655052
 30
0.0
 10
59.027499
 20
62.655052
 30
0.0
 10
58.474614
 20
62.576790
 30
0.0
 10
58.067127
 20
62.421901
 30
0.0
  0
SPLINE
  5
1db
100
AcDbEntity
  8
ink_ext_XXXXXX
 62
7
100
AcDbSpline
 70
8
 71
3
 72
8
 73
4
 74
0
 40
0
 40
0
 40
0
 40
0
 40
1
 40
1
 40
1
 40
1
 10
58.067127
 20
62.421901
 30
0.0
 10
58.040228
 20
62.181245
 30
0.0
 10
58.011090
 20
61.888934
 30
0.0
 10
57.983069
 20
61.622196
 30
0.0
  0
SPLINE
  5
1dc
100
AcDbEntity
  8
ink_ext_XXXXXX
 62
7
100
AcDbSpline
 70
8
 71
3
 72
8
 73
4
 74
0
 40
0
 40
0
 40
0
 40
0
 40
1
 40
1
 40
1
 40
1
 10
57.983069
 20
61.622196
 30
0.0
 10
56.465193
 20
61.094246
 30
0.0
 10
54.861442
 20
61.702512
 30
0.0
 10
54.036220
 20
62.115760
 30
0.0
  0
LWPOLYLINE
  5
1dd
100
AcDbEntity
  8
ink_ext_XXXXXX
 62
7
100
AcDbPolyline
 90
2
 70
1
 10
68.042281
 20
61.815307
 30
0.0
 10
68.042427
 20
61.815307
 30
0.0
  0
SPLINE
  5
1de
100
AcDbEntity
  8
ink_ext_XXXXXX
 62
7
100
AcDbSpline
 70
8
 71
3
 72
8
 73
4
 74
0
 40
0
 40
0
 40
0
 40
0
 40
1
 40
1
 40
1
 40
1
 10
54.033312
 20
62.128846
 30
0.0
 10
53.368175
 20
62.596601
 30
0.0
 10
52.377050
 20
62.829733
 30
0.0
 10
51.059136
 20
62.829733
 30
0.0
  0
SPLINE
  5
1df
100
AcDbEntity
  8
ink_ext_XXXXXX
 62
7
100
AcDbSpline
 70
8
 71
3
 72
8
 73
4
 74
0
 40
0
 40
0
 40
0
 40
0
 40
1
 40
1
 40
1
 40
1
 10
51.059136
 20
62.829733
 30
0.0
 10
49.739786
 20
62.829733
 30
0.0
 10
48.613492
 20
62.544329
 30
0.0
 10
47.679419
 20
61.972940
 30
0.0
  0
SPLINE
  5
1e0
100
AcDbEntity
  8
ink_ext_XXXXXX
 62
7
100
AcDbSpline
 70
8
 71
3
 72
8
 73
4
 74
0
 40
0
 40
0
 40
0
 40
0
 40
1
 40
1
 40
1
 40
1
 10
47.679419
 20
61.972940
 30
0.0
 10
46.745581
 20
61.402696
 30
0.0
 10
46.277663
 20
60.597920
 30
0.0
 10
46.277663
 20
59.560193
 30
0.0
  0
SPLINE
  5
1e1
100
AcDbEntity
  8
ink_ext_XXXXXX
 62
7
100
AcDbSpline
 70
8
 71
3
 72
8
 73
4
 74
0
 40
0
 40
0
 40
0
 40
0
 40
1
 40
1
 40
1
 40
1
 10
46.277663
 20
59.560193
 30
0.0
 10
46.277663
 20
58.521067
 30
0.0
 10
47.119116
 20
57.125818
 30
0.0
 10
48.800878
 20
55.370829
 30
0.0
  0
SPLINE
  5
1e2
100
AcDbEntity
  8
ink_ext_XXXXXX
 62
7
100
AcDbSpline
 70
8
 71
3
 72
8
 73
4
 74
0
 40
0
 40
0
 40
0
 40
0
 40
1
 40
1
 40
1
 40
1
 10
48.800878
 20
55.370829
 30
0.0
 10
50.482367
 20
53.616713
 30
0.0
 10
51.322675
 20
52.260522
 30
0.0
 10
51.322675
 20
51.306419
 30
0.0
  0
SPLINE
  5
1e3
100
AcDbEntity
  8
ink_ext_XXXXXX
 62
7
100
AcDbSpline
 70
8
 71
3
 72
8
 73
4
 74
0
 40
0
 40
0
 40
0
 40
0
 40
1
 40
1
 40
1
 40
1
 10
51.322675
 20
51.306419
 30
0.0
 10
51.322675
 20
50.642391
 30
0.0
 10
50.906501
 20
50.149628
 30
0.0
 10
50.170827
 20
50.216785
 30
0.0
  0
SPLINE
  5
1e4
100
AcDbEntity
  8
ink_ext_XXXXXX
 62
7
100
AcDbSpline
 70
8
 71
3
 72
8
 73
4
 74
0
 40
0
 40
0
 40
0
 40
0
 40
1
 40
1
 40
1
 40
1
 10
50.170827
 20
50.216785
 30
0.0
 10
46.621463
 20
50.535594
 30
0.0
 10
47.461244
 20
53.426128
 30
0.0
 10
45.844586
 20
52.612756
 30
0.0
  0
SPLINE
  5
1e5
100
AcDbEntity
  8
ink_ext_XXXXXX
 62
7
100
AcDbSpline
 70
8
 71
3
 72
8
 73
4
 74
0
 40
0
 40
0
 40
0
 40
0
 40
1
 40
1
 40
1
 40
1
 10
45.844586
 20
52.612756
 30
0.0
 10
45.840951
 20
52.609484
 30
0.0
 10
45.838407
 20
52.607121
 30
0.0
 10
45.834953
 20
52.603850
 30
0.0
  0
SPLINE
  5
1e6
100
AcDbEntity
  8
ink_ext_XXXXXX
 62
7
100
AcDbSpline
 70
8
 71
3
 72
8
 73
4
 74
0
 40
0
 40
0
 40
0
 40
0
 40
1
 40
1
 40
1
 40
1
 10
45.834953
 20
52.603850
 30
0.0
 10
45.808799
 20
52.588401
 30
0.0
 10
45.785735
 20
52.571080
 30
0.0
 10
45.767069
 20
52.552178
 30
0.0
  0
SPLINE
  5
1e7
100
AcDbEntity
  8
ink_ext_XXXXXX
 62
7
100
AcDbSpline
 70
8
 71
3
 72
8
 73
4
 74
0
 40
0
 40
0
 40
0
 40
0
 40
1
 40
1
 40
1
 40
1
 10
45.767069
 20
52.552178
 30
0.0
 10
45.681501
 20
52.465446
 30
0.0
 10
45.597913
 20
52.385876
 30
0.0
 10
45.515471
 20
52.309358
 30
0.0
  0
SPLINE
  5
1e8
100
AcDbEntity
  8
ink_ext_XXXXXX
 62
7
100
AcDbSpline
 70
8
 71
3
 72
8
 73
4
 74
0
 40
0
 40
0
 40
0
 40
0
 40
1
 40
1
 40
1
 40
1
 10
45.515471
 20
52.309358
 30
0.0
 10
45.496969
 20
52.292092
 30
0.0
 10
45.475450
 20
52.272808
 30
0.0
 10
45.457529
 20
52.255978
 30
0.0
  0
SPLINE
  5
1e9
100
AcDbEntity
  8
ink_ext_XXXXXX
 62
7
100
AcDbSpline
 70
8
 71
3
 72
8
 73
4
 74
0
 40
0
 40
0
 40
0
 40
0
 40
1
 40
1
 40
1
 40
1
 10
45.457529
 20
52.255978
 30
0.0
 10
44.092123
 20
51.015635
 30
0.0
 10
43.181096
 20
51.133083
 30
0.0
 10
43.181096
 20
51.133083
 30
0.0
  0
SPLINE
  5
1ea
100
AcDbEntity
  8
ink_ext_XXXXXX
 62
7
100
AcDbSpline
 70
8
 71
3
 72
8
 73
4
 74
0
 40
0
 40
0
 40
0
 40
0
 40
1
 40
1
 40
1
 40
1
 10
43.181096
 20
51.133083
 30
0.0
 10
42.560725
 20
51.133083
 30
0.0
 10
42.250475
 20
51.520195
 30
0.0
 10
42.250475
 20
52.296872
 30
0.0
  0
SPLINE
  5
1eb
100
AcDbEntity
  8
ink_ext_XXXXXX
 62
7
100
AcDbSpline
 70
8
 71
3
 72
8
 73
4
 74
0
 40
0
 40
0
 40
0
 40
0
 40
1
 40
1
 40
1
 40
1
 10
42.250475
 20
52.296872
 30
0.0
 10
42.250475
 20
52.878094
 30
0.0
 10
42.338007
 20
53.828743
 30
0.0
 10
42.512306
 20
55.147512
 30
0.0
  0
SPLINE
  5
1ec
100
AcDbEntity
  8
ink_ext_XXXXXX
 62
7
100
AcDbSpline
 70
8
 71
3
 72
8
 73
4
 74
0
 40
0
 40
0
 40
0
 40
0
 40
1
 40
1
 40
1
 40
1
 10
42.512306
 20
55.147512
 30
0.0
 10
42.589187
 20
55.730169
 30
0.0
 10
42.725228
 20
56.713752
 30
0.0
 10
42.919556
 20
58.100132
 30
0.0
  0
SPLINE
  5
1ed
100
AcDbEntity
  8
ink_ext_XXXXXX
 62
7
100
AcDbSpline
 70
8
 71
3
 72
8
 73
4
 74
0
 40
0
 40
0
 40
0
 40
0
 40
1
 40
1
 40
1
 40
1
 10
42.919556
 20
58.100132
 30
0.0
 10
43.113593
 20
59.487893
 30
0.0
 10
43.298434
 20
60.899281
 30
0.0
 10
43.472461
 20
62.334079
 30
0.0
  0
SPLINE
  5
1ee
100
AcDbEntity
  8
ink_ext_XXXXXX
 62
7
100
AcDbSpline
 70
8
 71
3
 72
8
 73
4
 74
0
 40
0
 40
0
 40
0
 40
0
 40
1
 40
1
 40
1
 40
1
 10
43.472461
 20
62.334079
 30
0.0
 10
43.142146
 20
62.528389
 30
0.0
 10
42.604563
 20
62.625445
 30
0.0
 10
41.857711
 20
62.625445
 30
0.0
  0
SPLINE
  5
1ef
100
AcDbEntity
  8
ink_ext_XXXXXX
 62
7
100
AcDbSpline
 70
8
 71
3
 72
8
 73
4
 74
0
 40
0
 40
0
 40
0
 40
0
 40
1
 40
1
 40
1
 40
1
 10
41.857711
 20
62.625445
 30
0.0
 10
41.110623
 20
62.625445
 30
0.0
 10
40.475948
 20
62.460778
 30
0.0
 10
39.951596
 20
62.130463
 30
0.0
  0
SPLINE
  5
1f0
100
AcDbEntity
  8
ink_ext_XXXXXX
 62
7
100
AcDbSpline
 70
8
 71
3
 72
8
 73
4
 74
0
 40
0
 40
0
 40
0
 40
0
 40
1
 40
1
 40
1
 40
1
 10
39.951596
 20
62.130463
 30
0.0
 10
39.136915
 20
62.460778
 30
0.0
 10
38.244316
 20
62.625445
 30
0.0
 10
37.274456
 20
62.625445
 30
0.0
  0
LWPOLYLINE
  5
1f1
100
AcDbEntity
  8
ink_ext_XXXXXX
 62
7
100
AcDbPolyline
 90
2
 70
1
 10
54.036220
 20
62.115760
 30
0.0
 10
54.033312
 20
62.128846
 30
0.0
  0
SPLINE
  5
1f2
100
AcDbEntity
  8
ink_ext_XXXXXX
 62
7
100
AcDbSpline
 70
8
 71
3
 72
8
 73
4
 74
0
 40
0
 40
0
 40
0
 40
0
 40
1
 40
1
 40
1
 40
1
 10
37.100393
 20
62.625445
 30
0.0
 10
34.812019
 20
62.625445
 30
0.0
 10
32.920007
 20
61.868633
 30
0.0
 10
31.427194
 20
60.355536
 30
0.0
  0
SPLINE
  5
1f3
100
AcDbEntity
  8
ink_ext_XXXXXX
 62
7
100
AcDbSpline
 70
8
 71
3
 72
8
 73
4
 74
0
 40
0
 40
0
 40
0
 40
0
 40
1
 40
1
 40
1
 40
1
 10
31.427194
 20
60.355536
 30
0.0
 10
30.244776
 20
59.119083
 30
0.0
 10
29.437256
 20
57.228744
 30
0.0
 10
29.274279
 20
55.278445
 30
0.0
  0
SPLINE
  5
1f4
100
AcDbEntity
  8
ink_ext_XXXXXX
 62
7
100
AcDbSpline
 70
8
 71
3
 72
8
 73
4
 74
0
 40
0
 40
0
 40
0
 40
0
 40
1
 40
1
 40
1
 40
1
 10
29.274279
 20
55.278445
 30
0.0
 10
29.065611
 20
55.145785
 30
0.0
 10
28.836223
 20
54.996040
 30
0.0
 10
28.555799
 20
54.812126
 30
0.0
  0
SPLINE
  5
1f5
100
AcDbEntity
  8
ink_ext_XXXXXX
 62
7
100
AcDbSpline
 70
8
 71
3
 72
8
 73
4
 74
0
 40
0
 40
0
 40
0
 40
0
 40
1
 40
1
 40
1
 40
1
 10
28.555799
 20
54.812126
 30
0.0
 10
26.919311
 20
53.738777
 30
0.0
 10
23.895409
 20
51.158583
 30
0.0
 10
20.154643
 20
50.795989
 30
0.0
  0
SPLINE
  5
1f6
100
AcDbEntity
  8
ink_ext_XXXXXX
 62
7
100
AcDbSpline
 70
8
 71
3
 72
8
 73
4
 74
0
 40
0
 40
0
 40
0
 40
0
 40
1
 40
1
 40
1
 40
1
 10
20.154643
 20
50.795989
 30
0.0
 10
16.413877
 20
50.433414
 30
0.0
 10
11.824006
 20
53.402719
 30
0.0
 10
11.387440
 20
57.595191
 30
0.0
  0
SPLINE
  5
1f7
100
AcDbEntity
  8
ink_ext_XXXXXX
 62
7
100
AcDbSpline
 70
8
 71
3
 72
8
 73
4
 74
0
 40
0
 40
0
 40
0
 40
0
 40
1
 40
1
 40
1
 40
1
 10
11.387440
 20
57.595191
 30
0.0
 10
10.487317
 20
64.210714
 30
0.0
 10
14.019342
 20
70.946612
 30
0.0
 10
19.067825
 20
75.124235
 30
0.0
  0
SPLINE
  5
1f8
100
AcDbEntity
  8
ink_ext_XXXXXX
 62
7
100
AcDbSpline
 70
8
 71
3
 72
8
 73
4
 74
0
 40
0
 40
0
 40
0
 40
0
 40
1
 40
1
 40
1
 40
1
 10
19.067825
 20
75.124235
 30
0.0
 10
22.226206
 20
77.696504
 30
0.0
 10
26.974546
 20
79.859307
 30
0.0
 10
30.844736
 20
77.537836
 30
0.0
  0
SPLINE
  5
1f9
100
AcDbEntity
  8
ink_ext_XXXXXX
 62
7
100
AcDbSpline
 70
8
 71
3
 72
8
 73
4
 74
0
 40
0
 40
0
 40
0
 40
0
 40
1
 40
1
 40
1
 40
1
 10
30.844736
 20
77.537836
 30
0.0
 10
34.109296
 20
75.300243
 30
0.0
 10
33.143852
 20
70.775657
 30
0.0
 10
31.493370
 20
67.836595
 30
0.0
  0
SPLINE
  5
1fa
100
AcDbEntity
  8
ink_ext_XXXXXX
 62
7
100
AcDbSpline
 70
8
 71
3
 72
8
 73
4
 74
0
 40
0
 40
0
 40
0
 40
0
 40
1
 40
1
 40
1
 40
1
 10
31.493370
 20
67.836595
 30
0.0
 10
29.758319
 20
64.870835
 30
0.0
 10
27.036450
 20
61.470107
 30
0.0
 10
23.243558
 20
61.645969
 30
0.0
  0
SPLINE
  5
1fb
100
AcDbEntity
  8
ink_ext_XXXXXX
 62
7
100
AcDbSpline
 70
8
 71
3
 72
8
 73
4
 74
0
 40
0
 40
0
 40
0
 40
0
 40
1
 40
1
 40
1
 40
1
 10
23.243558
 20
61.645969
 30
0.0
 10
21.007710
 20
61.570579
 30
0.0
 10
20.569744
 20
64.246883
 30
0.0
 10
21.404454
 20
65.841586
 30
0.0
  0
SPLINE
  5
1fc
100
AcDbEntity
  8
ink_ext_XXXXXX
 62
7
100
AcDbSpline
 70
8
 71
3
 72
8
 73
4
 74
0
 40
0
 40
0
 40
0
 40
0
 40
1
 40
1
 40
1
 40
1
 10
21.404454
 20
65.841586
 30
0.0
 10
22.736963
 20
69.365304
 30
0.0
 10
25.877223
 20
71.758204
 30
0.0
 10
29.225170
 20
73.206760
 30
0.0
  0
SPLINE
  5
1fd
100
AcDbEntity
  8
ink_ext_XXXXXX
 62
7
100
AcDbSpline
 70
8
 71
3
 72
8
 73
4
 74
0
 40
0
 40
0
 40
0
 40
0
 40
1
 40
1
 40
1
 40
1
 10
29.225170
 20
73.206760
 30
0.0
 10
31.099479
 20
74.143506
 30
0.0
 10
31.537336
 20
75.827212
 30
0.0
 10
27.820852
 20
74.638341
 30
0.0
  0
SPLINE
  5
1fe
100
AcDbEntity
  8
ink_ext_XXXXXX
 62
7
100
AcDbSpline
 70
8
 71
3
 72
8
 73
4
 74
0
 40
0
 40
0
 40
0
 40
0
 40
1
 40
1
 40
1
 40
1
 10
27.820852
 20
74.638341
 30
0.0
 10
24.104368
 20
73.449489
 30
0.0
 10
18.402125
 20
69.839966
 30
0.0
 10
17.751256
 20
64.581541
 30
0.0
  0
SPLINE
  5
1ff
100
AcDbEntity
  8
ink_ext_XXXXXX
 62
7
100
AcDbSpline
 70
8
 71
3
 72
8
 73
4
 74
0
 40
0
 40
0
 40
0
 40
0
 40
1
 40
1
 40
1
 40
1
 10
17.751256
 20
64.581541
 30
0.0
 10
17.143680
 20
61.270090
 30
0.0
 10
20.064003
 20
57.873543
 30
0.0
 10
23.482961
 20
58.291534
 30
0.0
  0
SPLINE
  5
200
100
AcDbEntity
  8
ink_ext_XXXXXX
 62
7
100
AcDbSpline
 70
8
 71
3
 72
8
 73
4
 74
0
 40
0
 40
0
 40
0
 40
0
 40
1
 40
1
 40
1
 40
1
 10
23.482961
 20
58.291534
 30
0.0
 10
28.728426
 20
58.689314
 30
0.0
 10
32.770899
 20
63.073134
 30
0.0
 10
34.766018
 20
67.657680
 30
0.0
  0
SPLINE
  5
201
100
AcDbEntity
  8
ink_ext_XXXXXX
 62
7
100
AcDbSpline
 70
8
 71
3
 72
8
 73
4
 74
0
 40
0
 40
0
 40
0
 40
0
 40
1
 40
1
 40
1
 40
1
 10
34.766018
 20
67.657680
 30
0.0
 10
36.579621
 20
71.467329
 30
0.0
 10
36.711027
 20
76.804124
 30
0.0
 10
33.168025
 20
79.678810
 30
0.0
  0
SPLINE
  5
202
100
AcDbEntity
  8
ink_ext_XXXXXX
 62
7
100
AcDbSpline
 70
8
 71
3
 72
8
 73
4
 74
0
 40
0
 40
0
 40
0
 40
0
 40
1
 40
1
 40
1
 40
1
 10
33.168025
 20
79.678810
 30
0.0
 10
31.487281
 20
81.116570
 30
0.0
 10
29.297652
 20
81.846247
 30
0.0
 10
27.098954
 20
81.842793
 30
0.0
  0
LWPOLYLINE
  5
203
100
AcDbEntity
  8
ink_ext_XXXXXX
 62
7
100
AcDbPolyline
 90
2
 70
1
 10
37.274456
 20
62.625445
 30
0.0
 10
37.100393
 20
62.625445
 30
0.0
  0
SPLINE
  5
204
100
AcDbEntity
  8
ink_ext_XXXXXX
 62
7
100
AcDbSpline
 70
8
 71
3
 72
8
 73
4
 74
0
 40
0
 40
0
 40
0
 40
0
 40
1
 40
1
 40
1
 40
1
 10
80.214210
 20
73.771443
 30
0.0
 10
79.329927
 20
73.790309
 30
0.0
 10
78.432053
 20
73.534021
 30
0.0
 10
77.657197
 20
72.979971
 30
0.0
  0
SPLINE
  5
205
100
AcDbEntity
  8
ink_ext_XXXXXX
 62
7
100
AcDbSpline
 70
8
 71
3
 72
8
 73
4
 74
0
 40
0
 40
0
 40
0
 40
0
 40
1
 40
1
 40
1
 40
1
 10
77.657197
 20
72.979971
 30
0.0
 10
75.750144
 20
71.616129
 30
0.0
 10
73.376252
 20
67.581762
 30
0.0
 10
74.740091
 20
65.674702
 30
0.0
  0
SPLINE
  5
206
100
AcDbEntity
  8
ink_ext_XXXXXX
 62
7
100
AcDbSpline
 70
8
 71
3
 72
8
 73
4
 74
0
 40
0
 40
0
 40
0
 40
0
 40
1
 40
1
 40
1
 40
1
 10
74.740091
 20
65.674702
 30
0.0
 10
76.103912
 20
63.767369
 30
0.0
 10
80.689233
 20
64.709603
 30
0.0
 10
82.596284
 20
66.073427
 30
0.0
  0
SPLINE
  5
207
100
AcDbEntity
  8
ink_ext_XXXXXX
 62
7
100
AcDbSpline
 70
8
 71
3
 72
8
 73
4
 74
0
 40
0
 40
0
 40
0
 40
0
 40
1
 40
1
 40
1
 40
1
 10
82.596284
 20
66.073427
 30
0.0
 10
84.503621
 20
67.437270
 30
0.0
 10
84.943834
 20
70.088910
 30
0.0
 10
83.580017
 20
71.995952
 30
0.0
  0
SPLINE
  5
208
100
AcDbEntity
  8
ink_ext_XXXXXX
 62
7
100
AcDbSpline
 70
8
 71
3
 72
8
 73
4
 74
0
 40
0
 40
0
 40
0
 40
0
 40
1
 40
1
 40
1
 40
1
 10
83.580017
 20
71.995952
 30
0.0
 10
82.770235
 20
73.128444
 30
0.0
 10
81.506621
 20
73.743853
 30
0.0
 10
80.214210
 20
73.771443
 30
0.0
  0
LWPOLYLINE
  5
209
100
AcDbEntity
  8
ink_ext_XXXXXX
 62
7
100
AcDbPolyline
 90
2
 70
1
 10
27.098954
 20
81.842793
 30
0.0
 10
27.099136
 20
81.842030
 30
0.0
  0
SPLINE
  5
20a
100
AcDbEntity
  8
ink_ext_XXXXXX
 62
7
100
AcDbSpline
 70
8
 71
3
 72
8
 73
4
 74
0
 40
0
 40
0
 40
0
 40
0
 40
1
 40
1
 40
1
 40
1
 10
37.537613
 20
60.354791
 30
0.0
 10
38.060875
 20
60.354791
 30
0.0
 10
38.603075
 20
60.238943
 30
0.0
 10
39.166849
 20
60.005774
 30
0.0
  0
LWPOLYLINE
  5
20b
100
AcDbEntity
  8
ink_ext_XXXXXX
 62
7
100
AcDbPolyline
 90
2
 70
1
 10
80.214210
 20
73.771443
 30
0.0
 10
80.214210
 20
73.771443
 30
0.0
  0
SPLINE
  5
20c
100
AcDbEntity
  8
ink_ext_XXXXXX
 62
7
100
AcDbSpline
 70
8
 71
3
 72
8
 73
4
 74
0
 40
0
 40
0
 40
0
 40
0
 40
1
 40
1
 40
1
 40
1
 10
38.468234
 20
53.721438
 30
0.0
 10
37.846718
 20
51.994056
 30
0.0
 10
36.925530
 20
51.132338
 30
0.0
 10
35.703635
 20
51.132338
 30
0.0
  0
SPLINE
  5
20d
100
AcDbEntity
  8
ink_ext_XXXXXX
 62
7
100
AcDbSpline
 70
8
 71
3
 72
8
 73
4
 74
0
 40
0
 40
0
 40
0
 40
0
 40
1
 40
1
 40
1
 40
1
 10
35.703635
 20
51.132338
 30
0.0
 10
34.986373
 20
51.132338
 30
0.0
 10
34.398862
 20
51.412834
 30
0.0
 10
33.943194
 20
51.975209
 30
0.0
  0
SPLINE
  5
20e
100
AcDbEntity
  8
ink_ext_XXXXXX
 62
7
100
AcDbSpline
 70
8
 71
3
 72
8
 73
4
 74
0
 40
0
 40
0
 40
0
 40
0
 40
1
 40
1
 40
1
 40
1
 10
33.943194
 20
51.975209
 30
0.0
 10
33.487307
 20
52.537583
 30
0.0
 10
33.259937
 20
53.294122
 30
0.0
 10
33.259937
 20
54.244826
 30
0.0
  0
SPLINE
  5
20f
100
AcDbEntity
  8
ink_ext_XXXXXX
 62
7
100
AcDbSpline
 70
8
 71
3
 72
8
 73
4
 74
0
 40
0
 40
0
 40
0
 40
0
 40
1
 40
1
 40
1
 40
1
 10
33.259937
 20
54.244826
 30
0.0
 10
33.259937
 20
54.399733
 30
0.0
 10
33.269933
 20
54.565508
 30
0.0
 10
33.288617
 20
54.739535
 30
0.0
  0
SPLINE
  5
210
100
AcDbEntity
  8
ink_ext_XXXXXX
 62
7
100
AcDbSpline
 70
8
 71
3
 72
8
 73
4
 74
0
 40
0
 40
0
 40
0
 40
0
 40
1
 40
1
 40
1
 40
1
 10
33.288617
 20
54.739535
 30
0.0
 10
33.424621
 20
56.601812
 30
0.0
 10
33.856753
 20
58.002531
 30
0.0
 10
34.583594
 20
58.943675
 30
0.0
  0
SPLINE
  5
211
100
AcDbEntity
  8
ink_ext_XXXXXX
 62
7
100
AcDbSpline
 70
8
 71
3
 72
8
 73
4
 74
0
 40
0
 40
0
 40
0
 40
0
 40
1
 40
1
 40
1
 40
1
 10
34.583594
 20
58.943675
 30
0.0
 10
35.311853
 20
59.884801
 30
0.0
 10
36.295453
 20
60.354791
 30
0.0
 10
37.537613
 20
60.354791
 30
0.0
  0
LWPOLYLINE
  5
212
100
AcDbEntity
  8
ink_ext_XXXXXX
 62
7
100
AcDbPolyline
 90
2
 70
1
 10
39.166849
 20
60.005774
 30
0.0
 10
38.468234
 20
53.721438
 30
0.0
  0
SPLINE
  5
213
100
AcDbEntity
  8
ink_ext_XXXXXX
 62
7
100
AcDbSpline
 70
8
 71
3
 72
8
 73
4
 74
0
 40
0
 40
0
 40
0
 40
0
 40
1
 40
1
 40
1
 40
1
 10
86.902084
 20
60.354791
 30
0.0
 10
87.425311
 20
60.354791
 30
0.0
 10
87.967526
 20
60.238943
 30
0.0
 10
88.531031
 20
60.005774
 30
0.0
  0
LWPOLYLINE
  5
214
100
AcDbEntity
  8
ink_ext_XXXXXX
 62
7
100
AcDbPolyline
 90
2
 70
1
 10
37.537613
 20
60.354791
 30
0.0
 10
37.537613
 20
60.354791
 30
0.0
  0
SPLINE
  5
215
100
AcDbEntity
  8
ink_ext_XXXXXX
 62
7
100
AcDbSpline
 70
8
 71
3
 72
8
 73
4
 74
0
 40
0
 40
0
 40
0
 40
0
 40
1
 40
1
 40
1
 40
1
 10
87.832423
 20
53.721438
 30
0.0
 10
87.210910
 20
51.994056
 30
0.0
 10
86.289703
 20
51.132338
 30
0.0
 10
85.068102
 20
51.132338
 30
0.0
  0
SPLINE
  5
216
100
AcDbEntity
  8
ink_ext_XXXXXX
 62
7
100
AcDbSpline
 70
8
 71
3
 72
8
 73
4
 74
0
 40
0
 40
0
 40
0
 40
0
 40
1
 40
1
 40
1
 40
1
 10
85.068102
 20
51.132338
 30
0.0
 10
84.350558
 20
51.132338
 30
0.0
 10
83.763320
 20
51.412834
 30
0.0
 10
83.307388
 20
51.975209
 30
0.0
  0
SPLINE
  5
217
100
AcDbEntity
  8
ink_ext_XXXXXX
 62
7
100
AcDbSpline
 70
8
 71
3
 72
8
 73
4
 74
0
 40
0
 40
0
 40
0
 40
0
 40
1
 40
1
 40
1
 40
1
 10
83.307388
 20
51.975209
 30
0.0
 10
82.851736
 20
52.537583
 30
0.0
 10
82.624400
 20
53.294122
 30
0.0
 10
82.624400
 20
54.244826
 30
0.0
  0
SPLINE
  5
218
100
AcDbEntity
  8
ink_ext_XXXXXX
 62
7
100
AcDbSpline
 70
8
 71
3
 72
8
 73
4
 74
0
 40
0
 40
0
 40
0
 40
0
 40
1
 40
1
 40
1
 40
1
 10
82.624400
 20
54.244826
 30
0.0
 10
82.624400
 20
54.399733
 30
0.0
 10
82.633814
 20
54.565508
 30
0.0
 10
82.652800
 20
54.739535
 30
0.0
  0
SPLINE
  5
219
100
AcDbEntity
  8
ink_ext_XXXXXX
 62
7
100
AcDbSpline
 70
8
 71
3
 72
8
 73
4
 74
0
 40
0
 40
0
 40
0
 40
0
 40
1
 40
1
 40
1
 40
1
 10
82.652800
 20
54.739535
 30
0.0
 10
82.789108
 20
56.601812
 30
0.0
 10
83.220933
 20
58.002531
 30
0.0
 10
83.948063
 20
58.943675
 30
0.0
  0
SPLINE
  5
21a
100
AcDbEntity
  8
ink_ext_XXXXXX
 62
7
100
AcDbSpline
 70
8
 71
3
 72
8
 73
4
 74
0
 40
0
 40
0
 40
0
 40
0
 40
1
 40
1
 40
1
 40
1
 10
83.948063
 20
58.943675
 30
0.0
 10
84.676009
 20
59.884801
 30
0.0
 10
85.660197
 20
60.354791
 30
0.0
 10
86.902084
 20
60.354791
 30
0.0
  0
LWPOLYLINE
  5
21b
100
AcDbEntity
  8
ink_ext_XXXXXX
 62
7
100
AcDbPolyline
 90
2
 70
1
 10
88.531031
 20
60.005774
 30
0.0
 10
87.832423
 20
53.721438
 30
0.0
  0
SPLINE
  5
21c
100
AcDbEntity
  8
ink_ext_XXXXXX
 62
7
100
AcDbSpline
 70
8
 71
3
 72
8
 73
4
 74
0
 40
0
 40
0
 40
0
 40
0
 40
1
 40
1
 40
1
 40
1
 10
64.032111
 20
59.977385
 30
0.0
 10
64.846523
 20
59.977385
 30
0.0
 10
65.446802
 20
59.646925
 30
0.0
 10
65.835135
 20
58.987677
 30
0.0
  0
SPLINE
  5
21d
100
AcDbEntity
  8
ink_ext_XXXXXX
 62
7
100
AcDbSpline
 70
8
 71
3
 72
8
 73
4
 74
0
 40
0
 40
0
 40
0
 40
0
 40
1
 40
1
 40
1
 40
1
 10
65.835135
 20
58.987677
 30
0.0
 10
66.223474
 20
58.328157
 30
0.0
 10
66.417593
 20
57.571618
 30
0.0
 10
66.417593
 20
56.718060
 30
0.0
  0
SPLINE
  5
21e
100
AcDbEntity
  8
ink_ext_XXXXXX
 62
7
100
AcDbSpline
 70
8
 71
3
 72
8
 73
4
 74
0
 40
0
 40
0
 40
0
 40
0
 40
1
 40
1
 40
1
 40
1
 10
66.417593
 20
56.718060
 30
0.0
 10
66.417593
 20
54.952929
 30
0.0
 10
66.029093
 20
53.517876
 30
0.0
 10
65.253819
 20
52.412266
 30
0.0
  0
SPLINE
  5
21f
100
AcDbEntity
  8
ink_ext_XXXXXX
 62
7
100
AcDbSpline
 70
8
 71
3
 72
8
 73
4
 74
0
 40
0
 40
0
 40
0
 40
0
 40
1
 40
1
 40
1
 40
1
 10
65.253819
 20
52.412266
 30
0.0
 10
64.613155
 20
51.519577
 30
0.0
 10
63.798823
 20
51.072996
 30
0.0
 10
62.808979
 20
51.072996
 30
0.0
  0
SPLINE
  5
220
100
AcDbEntity
  8
ink_ext_XXXXXX
 62
7
100
AcDbSpline
 70
8
 71
3
 72
8
 73
4
 74
0
 40
0
 40
0
 40
0
 40
0
 40
1
 40
1
 40
1
 40
1
 10
62.808979
 20
51.072996
 30
0.0
 10
62.246597
 20
51.072996
 30
0.0
 10
61.771707
 20
51.218579
 30
0.0
 10
61.383368
 20
51.509762
 30
0.0
  0
SPLINE
  5
221
100
AcDbEntity
  8
ink_ext_XXXXXX
 62
7
100
AcDbSpline
 70
8
 71
3
 72
8
 73
4
 74
0
 40
0
 40
0
 40
0
 40
0
 40
1
 40
1
 40
1
 40
1
 10
61.383368
 20
51.509762
 30
0.0
 10
60.995035
 20
51.800928
 30
0.0
 10
60.811962
 20
52.236585
 30
0.0
 10
60.830734
 20
52.819225
 30
0.0
  0
SPLINE
  5
222
100
AcDbEntity
  8
ink_ext_XXXXXX
 62
7
100
AcDbSpline
 70
8
 71
3
 72
8
 73
4
 74
0
 40
0
 40
0
 40
0
 40
0
 40
1
 40
1
 40
1
 40
1
 10
60.830734
 20
52.819225
 30
0.0
 10
60.888743
 20
53.284435
 30
0.0
 10
61.112324
 20
54.952892
 30
0.0
 10
61.500939
 20
57.823906
 30
0.0
  0
SPLINE
  5
223
100
AcDbEntity
  8
ink_ext_XXXXXX
 62
7
100
AcDbSpline
 70
8
 71
3
 72
8
 73
4
 74
0
 40
0
 40
0
 40
0
 40
0
 40
1
 40
1
 40
1
 40
1
 10
61.500939
 20
57.823906
 30
0.0
 10
62.082196
 20
59.258704
 30
0.0
 10
62.926230
 20
59.977385
 30
0.0
 10
64.032111
 20
59.977385
 30
0.0
  0
LWPOLYLINE
  5
224
100
AcDbEntity
  8
ink_ext_XXXXXX
 62
7
100
AcDbPolyline
 90
2
 70
1
 10
86.902084
 20
60.354791
 30
0.0
 10
86.902084
 20
60.354791
 30
0.0
  0
SPLINE
  5
225
100
AcDbEntity
  8
ink_ext_XXXXXX
 62
7
100
AcDbSpline
 70
8
 71
3
 72
8
 73
4
 74
0
 40
0
 40
0
 40
0
 40
0
 40
1
 40
1
 40
1
 40
1
 10
68.310361
 20
45.181987
 30
0.0
 10
66.128174
 20
45.181987
 30
0.0
 10
65.934533
 20
43.882357
 30
0.0
 10
65.934533
 20
42.660462
 30
0.0
  0
LWPOLYLINE
  5
226
100
AcDbEntity
  8
ink_ext_XXXXXX
 62
7
100
AcDbPolyline
 90
2
 70
1
 10
64.032111
 20
59.977385
 30
0.0
 10
64.032111
 20
59.977385
 30
0.0
  0
SPLINE
  5
227
100
AcDbEntity
  8
ink_ext_XXXXXX
 62
7
100
AcDbSpline
 70
8
 71
3
 72
8
 73
4
 74
0
 40
0
 40
0
 40
0
 40
0
 40
1
 40
1
 40
1
 40
1
 10
65.934533
 20
38.548343
 30
0.0
 10
65.934533
 20
38.334881
 30
0.0
 10
66.040879
 20
38.218670
 30
0.0
 10
66.225335
 20
38.218670
 30
0.0
  0
LWPOLYLINE
  5
228
100
AcDbEntity
  8
ink_ext_XXXXXX
 62
7
100
AcDbPolyline
 90
2
 70
1
 10
65.934533
 20
42.660462
 30
0.0
 10
65.934533
 20
38.548343
 30
0.0
  0
SPLINE
  5
229
100
AcDbEntity
  8
ink_ext_XXXXXX
 62
7
100
AcDbSpline
 70
8
 71
3
 72
8
 73
4
 74
0
 40
0
 40
0
 40
0
 40
0
 40
1
 40
1
 40
1
 40
1
 10
67.311582
 20
38.218670
 30
0.0
 10
67.505601
 20
38.218670
 30
0.0
 10
67.602383
 20
38.315688
 30
0.0
 10
67.602383
 20
38.509721
 30
0.0
  0
LWPOLYLINE
  5
22a
100
AcDbEntity
  8
ink_ext_XXXXXX
 62
7
100
AcDbPolyline
 90
2
 70
1
 10
66.225335
 20
38.218670
 30
0.0
 10
67.311582
 20
38.218670
 30
0.0
  0
SPLINE
  5
22b
100
AcDbEntity
  8
ink_ext_XXXXXX
 62
7
100
AcDbSpline
 70
8
 71
3
 72
8
 73
4
 74
0
 40
0
 40
0
 40
0
 40
0
 40
1
 40
1
 40
1
 40
1
 10
67.602383
 20
39.353446
 30
0.0
 10
67.602383
 20
39.547211
 30
0.0
 10
67.709300
 20
39.644248
 30
0.0
 10
67.893752
 20
39.644248
 30
0.0
  0
LWPOLYLINE
  5
22c
100
AcDbEntity
  8
ink_ext_XXXXXX
 62
7
100
AcDbPolyline
 90
2
 70
1
 10
67.602383
 20
38.509721
 30
0.0
 10
67.602383
 20
39.353446
 30
0.0
  0
SPLINE
  5
22d
100
AcDbEntity
  8
ink_ext_XXXXXX
 62
7
100
AcDbSpline
 70
8
 71
3
 72
8
 73
4
 74
0
 40
0
 40
0
 40
0
 40
0
 40
1
 40
1
 40
1
 40
1
 10
68.727538
 20
39.644248
 30
0.0
 10
68.921575
 20
39.644248
 30
0.0
 10
69.018339
 20
39.547211
 30
0.0
 10
69.018339
 20
39.353446
 30
0.0
  0
LWPOLYLINE
  5
22e
100
AcDbEntity
  8
ink_ext_XXXXXX
 62
7
100
AcDbPolyline
 90
2
 70
1
 10
67.893752
 20
39.644248
 30
0.0
 10
68.727538
 20
39.644248
 30
0.0
  0
SPLINE
  5
22f
100
AcDbEntity
  8
ink_ext_XXXXXX
 62
7
100
AcDbSpline
 70
8
 71
3
 72
8
 73
4
 74
0
 40
0
 40
0
 40
0
 40
0
 40
1
 40
1
 40
1
 40
1
 10
69.018339
 20
38.509721
 30
0.0
 10
69.018339
 20
38.315688
 30
0.0
 10
69.125251
 20
38.218670
 30
0.0
 10
69.309425
 20
38.218670
 30
0.0
  0
LWPOLYLINE
  5
230
100
AcDbEntity
  8
ink_ext_XXXXXX
 62
7
100
AcDbPolyline
 90
2
 70
1
 10
69.018339
 20
39.353446
 30
0.0
 10
69.018339
 20
38.509721
 30
0.0
  0
SPLINE
  5
231
100
AcDbEntity
  8
ink_ext_XXXXXX
 62
7
100
AcDbSpline
 70
8
 71
3
 72
8
 73
4
 74
0
 40
0
 40
0
 40
0
 40
0
 40
1
 40
1
 40
1
 40
1
 10
70.395388
 20
38.218670
 30
0.0
 10
70.589425
 20
38.218670
 30
0.0
 10
70.686757
 20
38.334881
 30
0.0
 10
70.686757
 20
38.548343
 30
0.0
  0
LWPOLYLINE
  5
232
100
AcDbEntity
  8
ink_ext_XXXXXX
 62
7
100
AcDbPolyline
 90
2
 70
1
 10
69.309425
 20
38.218670
 30
0.0
 10
70.395388
 20
38.218670
 30
0.0
  0
SPLINE
  5
233
100
AcDbEntity
  8
ink_ext_XXXXXX
 62
7
100
AcDbSpline
 70
8
 71
3
 72
8
 73
4
 74
0
 40
0
 40
0
 40
0
 40
0
 40
1
 40
1
 40
1
 40
1
 10
70.686757
 20
42.660462
 30
0.0
 10
70.686757
 20
43.882357
 30
0.0
 10
70.492548
 20
45.181987
 30
0.0
 10
68.310361
 20
45.181987
 30
0.0
  0
LWPOLYLINE
  5
234
100
AcDbEntity
  8
ink_ext_XXXXXX
 62
7
100
AcDbPolyline
 90
2
 70
1
 10
70.686757
 20
38.548343
 30
0.0
 10
70.686757
 20
42.660462
 30
0.0
  0
SPLINE
  5
235
100
AcDbEntity
  8
ink_ext_XXXXXX
 62
7
100
AcDbSpline
 70
8
 71
3
 72
8
 73
4
 74
0
 40
0
 40
0
 40
0
 40
0
 40
1
 40
1
 40
1
 40
1
 10
73.945215
 20
45.181987
 30
0.0
 10
71.646730
 20
45.181987
 30
0.0
 10
71.510884
 20
43.465565
 30
0.0
 10
71.510884
 20
42.825456
 30
0.0
  0
LWPOLYLINE
  5
236
100
AcDbEntity
  8
ink_ext_XXXXXX
 62
7
100
AcDbPolyline
 90
2
 70
1
 10
68.310361
 20
45.181987
 30
0.0
 10
68.310361
 20
45.181987
 30
0.0
  0
SPLINE
  5
237
100
AcDbEntity
  8
ink_ext_XXXXXX
 62
7
100
AcDbSpline
 70
8
 71
3
 72
8
 73
4
 74
0
 40
0
 40
0
 40
0
 40
0
 40
1
 40
1
 40
1
 40
1
 10
71.510884
 20
40.400787
 30
0.0
 10
71.510884
 20
39.760677
 30
0.0
 10
71.646730
 20
38.043989
 30
0.0
 10
73.945215
 20
38.043989
 30
0.0
  0
SPLINE
  5
238
100
AcDbEntity
  8
ink_ext_XXXXXX
 62
7
100
AcDbSpline
 70
8
 71
3
 72
8
 73
4
 74
0
 40
0
 40
0
 40
0
 40
0
 40
1
 40
1
 40
1
 40
1
 10
73.945215
 20
38.043989
 30
0.0
 10
76.011102
 20
38.043989
 30
0.0
 10
76.331030
 20
39.430963
 30
0.0
 10
76.369890
 20
40.167927
 30
0.0
  0
SPLINE
  5
239
100
AcDbEntity
  8
ink_ext_XXXXXX
 62
7
100
AcDbSpline
 70
8
 71
3
 72
8
 73
4
 74
0
 40
0
 40
0
 40
0
 40
0
 40
1
 40
1
 40
1
 40
1
 10
76.369890
 20
40.167927
 30
0.0
 10
76.379468
 20
40.313510
 30
0.0
 10
76.292340
 20
40.420052
 30
0.0
 10
76.156330
 20
40.449060
 30
0.0
  0
LWPOLYLINE
  5
23a
100
AcDbEntity
  8
ink_ext_XXXXXX
 62
7
100
AcDbPolyline
 90
2
 70
1
 10
71.510884
 20
42.825456
 30
0.0
 10
71.510884
 20
40.400787
 30
0.0
  0
SPLINE
  5
23b
100
AcDbEntity
  8
ink_ext_XXXXXX
 62
7
100
AcDbSpline
 70
8
 71
3
 72
8
 73
4
 74
0
 40
0
 40
0
 40
0
 40
0
 40
1
 40
1
 40
1
 40
1
 10
75.060713
 20
40.691879
 30
0.0
 10
74.866693
 20
40.740007
 30
0.0
 10
74.711432
 20
40.614054
 30
0.0
 10
74.682160
 20
40.410456
 30
0.0
  0
SPLINE
  5
23c
100
AcDbEntity
  8
ink_ext_XXXXXX
 62
7
100
AcDbSpline
 70
8
 71
3
 72
8
 73
4
 74
0
 40
0
 40
0
 40
0
 40
0
 40
1
 40
1
 40
1
 40
1
 10
74.682160
 20
40.410456
 30
0.0
 10
74.624148
 20
39.964384
 30
0.0
 10
74.478586
 20
39.712113
 30
0.0
 10
73.945215
 20
39.712113
 30
0.0
  0
SPLINE
  5
23d
100
AcDbEntity
  8
ink_ext_XXXXXX
 62
7
100
AcDbSpline
 70
8
 71
3
 72
8
 73
4
 74
0
 40
0
 40
0
 40
0
 40
0
 40
1
 40
1
 40
1
 40
1
 10
73.945215
 20
39.712113
 30
0.0
 10
73.227671
 20
39.712113
 30
0.0
 10
73.179018
 20
40.167691
 30
0.0
 10
73.179018
 20
40.914797
 30
0.0
  0
LWPOLYLINE
  5
23e
100
AcDbEntity
  8
ink_ext_XXXXXX
 62
7
100
AcDbPolyline
 90
2
 70
1
 10
76.156330
 20
40.449060
 30
0.0
 10
75.060713
 20
40.691879
 30
0.0
  0
SPLINE
  5
23f
100
AcDbEntity
  8
ink_ext_XXXXXX
 62
7
100
AcDbSpline
 70
8
 71
3
 72
8
 73
4
 74
0
 40
0
 40
0
 40
0
 40
0
 40
1
 40
1
 40
1
 40
1
 10
73.179018
 20
42.311446
 30
0.0
 10
73.179018
 20
43.058279
 30
0.0
 10
73.227671
 20
43.513839
 30
0.0
 10
73.945215
 20
43.513839
 30
0.0
  0
SPLINE
  5
240
100
AcDbEntity
  8
ink_ext_XXXXXX
 62
7
100
AcDbSpline
 70
8
 71
3
 72
8
 73
4
 74
0
 40
0
 40
0
 40
0
 40
0
 40
1
 40
1
 40
1
 40
1
 10
73.945215
 20
43.513839
 30
0.0
 10
74.469000
 20
43.513839
 30
0.0
 10
74.643392
 20
43.261768
 30
0.0
 10
74.692100
 20
42.834834
 30
0.0
  0
SPLINE
  5
241
100
AcDbEntity
  8
ink_ext_XXXXXX
 62
7
100
AcDbSpline
 70
8
 71
3
 72
8
 73
4
 74
0
 40
0
 40
0
 40
0
 40
0
 40
1
 40
1
 40
1
 40
1
 10
74.692100
 20
42.834834
 30
0.0
 10
74.721392
 20
42.631237
 30
0.0
 10
74.876135
 20
42.495505
 30
0.0
 10
75.079738
 20
42.534382
 30
0.0
  0
LWPOLYLINE
  5
242
100
AcDbEntity
  8
ink_ext_XXXXXX
 62
7
100
AcDbPolyline
 90
2
 70
1
 10
73.179018
 20
40.914797
 30
0.0
 10
73.179018
 20
42.311446
 30
0.0
  0
SPLINE
  5
243
100
AcDbEntity
  8
ink_ext_XXXXXX
 62
7
100
AcDbSpline
 70
8
 71
3
 72
8
 73
4
 74
0
 40
0
 40
0
 40
0
 40
0
 40
1
 40
1
 40
1
 40
1
 10
76.156330
 20
42.776910
 30
0.0
 10
76.292340
 20
42.805918
 30
0.0
 10
76.379474
 20
42.912660
 30
0.0
 10
76.369890
 20
43.048392
 30
0.0
  0
SPLINE
  5
244
100
AcDbEntity
  8
ink_ext_XXXXXX
 62
7
100
AcDbSpline
 70
8
 71
3
 72
8
 73
4
 74
0
 40
0
 40
0
 40
0
 40
0
 40
1
 40
1
 40
1
 40
1
 10
76.369890
 20
43.048392
 30
0.0
 10
76.331030
 20
43.795208
 30
0.0
 10
76.011102
 20
45.181987
 30
0.0
 10
73.945215
 20
45.181987
 30
0.0
  0
LWPOLYLINE
  5
245
100
AcDbEntity
  8
ink_ext_XXXXXX
 62
7
100
AcDbPolyline
 90
2
 70
1
 10
75.079738
 20
42.534382
 30
0.0
 10
76.156330
 20
42.776910
 30
0.0
  0
SPLINE
  5
246
100
AcDbEntity
  8
ink_ext_XXXXXX
 62
7
100
AcDbSpline
 70
8
 71
3
 72
8
 73
4
 74
0
 40
0
 40
0
 40
0
 40
0
 40
1
 40
1
 40
1
 40
1
 10
90.219611
 20
45.162667
 30
0.0
 10
88.047282
 20
45.162667
 30
0.0
 10
87.872539
 20
43.446082
 30
0.0
 10
87.882123
 20
43.155171
 30
0.0
  0
SPLINE
  5
247
100
AcDbEntity
  8
ink_ext_XXXXXX
 62
7
100
AcDbSpline
 70
8
 71
3
 72
8
 73
4
 74
0
 40
0
 40
0
 40
0
 40
0
 40
1
 40
1
 40
1
 40
1
 10
87.882123
 20
43.155171
 30
0.0
 10
87.882123
 20
40.924539
 30
0.0
 10
90.801353
 20
41.108598
 30
0.0
 10
90.985805
 20
40.284357
 30
0.0
  0
SPLINE
  5
248
100
AcDbEntity
  8
ink_ext_XXXXXX
 62
7
100
AcDbSpline
 70
8
 71
3
 72
8
 73
4
 74
0
 40
0
 40
0
 40
0
 40
0
 40
1
 40
1
 40
1
 40
1
 10
90.985805
 20
40.284357
 30
0.0
 10
91.044100
 20
40.022454
 30
0.0
 10
90.694685
 20
39.741357
 30
0.0
 10
90.219611
 20
39.741357
 30
0.0
  0
SPLINE
  5
249
100
AcDbEntity
  8
ink_ext_XXXXXX
 62
7
100
AcDbSpline
 70
8
 71
3
 72
8
 73
4
 74
0
 40
0
 40
0
 40
0
 40
0
 40
1
 40
1
 40
1
 40
1
 10
90.219611
 20
39.741357
 30
0.0
 10
89.763969
 20
39.741357
 30
0.0
 10
89.404816
 20
40.012548
 30
0.0
 10
89.366233
 20
40.478322
 30
0.0
  0
SPLINE
  5
24a
100
AcDbEntity
  8
ink_ext_XXXXXX
 62
7
100
AcDbSpline
 70
8
 71
3
 72
8
 73
4
 74
0
 40
0
 40
0
 40
0
 40
0
 40
1
 40
1
 40
1
 40
1
 10
89.366233
 20
40.478322
 30
0.0
 10
89.346524
 20
40.681629
 30
0.0
 10
89.239927
 20
40.769360
 30
0.0
 10
89.046181
 20
40.730483
 30
0.0
  0
LWPOLYLINE
  5
24b
100
AcDbEntity
  8
ink_ext_XXXXXX
 62
7
100
AcDbPolyline
 90
2
 70
1
 10
73.945215
 20
45.181987
 30
0.0
 10
73.945215
 20
45.181987
 30
0.0
  0
SPLINE
  5
24c
100
AcDbEntity
  8
ink_ext_XXXXXX
 62
7
100
AcDbSpline
 70
8
 71
3
 72
8
 73
4
 74
0
 40
0
 40
0
 40
0
 40
0
 40
1
 40
1
 40
1
 40
1
 10
87.949994
 20
40.487973
 30
0.0
 10
87.775387
 20
40.449114
 30
0.0
 10
87.688512
 20
40.342535
 30
0.0
 10
87.698100
 20
40.167927
 30
0.0
  0
SPLINE
  5
24d
100
AcDbEntity
  8
ink_ext_XXXXXX
 62
7
100
AcDbSpline
 70
8
 71
3
 72
8
 73
4
 74
0
 40
0
 40
0
 40
0
 40
0
 40
1
 40
1
 40
1
 40
1
 10
87.698100
 20
40.167927
 30
0.0
 10
87.746543
 20
39.411824
 30
0.0
 10
88.182730
 20
38.073251
 30
0.0
 10
90.219611
 20
38.073251
 30
0.0
  0
SPLINE
  5
24e
100
AcDbEntity
  8
ink_ext_XXXXXX
 62
7
100
AcDbSpline
 70
8
 71
3
 72
8
 73
4
 74
0
 40
0
 40
0
 40
0
 40
0
 40
1
 40
1
 40
1
 40
1
 10
90.219611
 20
38.073251
 30
0.0
 10
92.518098
 20
38.073251
 30
0.0
 10
92.847904
 20
39.789558
 30
0.0
 10
92.847904
 20
40.080741
 30
0.0
  0
SPLINE
  5
24f
100
AcDbEntity
  8
ink_ext_XXXXXX
 62
7
100
AcDbSpline
 70
8
 71
3
 72
8
 73
4
 74
0
 40
0
 40
0
 40
0
 40
0
 40
1
 40
1
 40
1
 40
1
 10
92.847904
 20
40.080741
 30
0.0
 10
92.847904
 20
42.311355
 30
0.0
 10
89.783114
 20
42.291998
 30
0.0
 10
89.647381
 20
43.048392
 30
0.0
  0
SPLINE
  5
250
100
AcDbEntity
  8
ink_ext_XXXXXX
 62
7
100
AcDbSpline
 70
8
 71
3
 72
8
 73
4
 74
0
 40
0
 40
0
 40
0
 40
0
 40
1
 40
1
 40
1
 40
1
 10
89.647381
 20
43.048392
 30
0.0
 10
89.608517
 20
43.271437
 30
0.0
 10
89.841413
 20
43.494537
 30
0.0
 10
90.219611
 20
43.494537
 30
0.0
  0
SPLINE
  5
251
100
AcDbEntity
  8
ink_ext_XXXXXX
 62
7
100
AcDbSpline
 70
8
 71
3
 72
8
 73
4
 74
0
 40
0
 40
0
 40
0
 40
0
 40
1
 40
1
 40
1
 40
1
 10
90.219611
 20
43.494537
 30
0.0
 10
90.675534
 20
43.494537
 30
0.0
 10
90.995467
 20
43.242430
 30
0.0
 10
91.063333
 20
42.844776
 30
0.0
  0
SPLINE
  5
252
100
AcDbEntity
  8
ink_ext_XXXXXX
 62
7
100
AcDbSpline
 70
8
 71
3
 72
8
 73
4
 74
0
 40
0
 40
0
 40
0
 40
0
 40
1
 40
1
 40
1
 40
1
 10
91.063333
 20
42.844776
 30
0.0
 10
91.092340
 20
42.650757
 30
0.0
 10
91.189359
 20
42.563389
 30
0.0
 10
91.383389
 20
42.602248
 30
0.0
  0
LWPOLYLINE
  5
253
100
AcDbEntity
  8
ink_ext_XXXXXX
 62
7
100
AcDbPolyline
 90
2
 70
1
 10
89.046181
 20
40.730483
 30
0.0
 10
87.949994
 20
40.487973
 30
0.0
  0
SPLINE
  5
254
100
AcDbEntity
  8
ink_ext_XXXXXX
 62
7
100
AcDbSpline
 70
8
 71
3
 72
8
 73
4
 74
0
 40
0
 40
0
 40
0
 40
0
 40
1
 40
1
 40
1
 40
1
 10
92.488945
 20
42.844776
 30
0.0
 10
92.663823
 20
42.883635
 30
0.0
 10
92.750689
 20
42.990232
 30
0.0
 10
92.741125
 20
43.164549
 30
0.0
  0
SPLINE
  5
255
100
AcDbEntity
  8
ink_ext_XXXXXX
 62
7
100
AcDbSpline
 70
8
 71
3
 72
8
 73
4
 74
0
 40
0
 40
0
 40
0
 40
0
 40
1
 40
1
 40
1
 40
1
 10
92.741125
 20
43.164549
 30
0.0
 10
92.683114
 20
43.862928
 30
0.0
 10
92.217622
 20
45.162667
 30
0.0
 10
90.219611
 20
45.162667
 30
0.0
  0
LWPOLYLINE
  5
256
100
AcDbEntity
  8
ink_ext_XXXXXX
 62
7
100
AcDbPolyline
 90
2
 70
1
 10
91.383389
 20
42.602248
 30
0.0
 10
92.488945
 20
42.844776
 30
0.0
  0
SPLINE
  5
257
100
AcDbEntity
  8
ink_ext_XXXXXX
 62
7
100
AcDbSpline
 70
8
 71
3
 72
8
 73
4
 74
0
 40
0
 40
0
 40
0
 40
0
 40
1
 40
1
 40
1
 40
1
 10
77.339983
 20
45.007615
 30
0.0
 10
77.165378
 20
45.007615
 30
0.0
 10
77.039243
 20
44.881461
 30
0.0
 10
77.039243
 20
44.706871
 30
0.0
  0
LWPOLYLINE
  5
258
100
AcDbEntity
  8
ink_ext_XXXXXX
 62
7
100
AcDbPolyline
 90
2
 70
1
 10
90.219611
 20
45.162667
 30
0.0
 10
90.219611
 20
45.162667
 30
0.0
  0
SPLINE
  5
259
100
AcDbEntity
  8
ink_ext_XXXXXX
 62
7
100
AcDbSpline
 70
8
 71
3
 72
8
 73
4
 74
0
 40
0
 40
0
 40
0
 40
0
 40
1
 40
1
 40
1
 40
1
 10
77.039243
 20
38.519390
 30
0.0
 10
77.039243
 20
38.344805
 30
0.0
 10
77.165378
 20
38.218670
 30
0.0
 10
77.339983
 20
38.218670
 30
0.0
  0
LWPOLYLINE
  5
25a
100
AcDbEntity
  8
ink_ext_XXXXXX
 62
7
100
AcDbPolyline
 90
2
 70
1
 10
77.039243
 20
44.706871
 30
0.0
 10
77.039243
 20
38.519390
 30
0.0
  0
SPLINE
  5
25b
100
AcDbEntity
  8
ink_ext_XXXXXX
 62
7
100
AcDbSpline
 70
8
 71
3
 72
8
 73
4
 74
0
 40
0
 40
0
 40
0
 40
0
 40
1
 40
1
 40
1
 40
1
 10
78.426233
 20
38.218670
 30
0.0
 10
78.600842
 20
38.218670
 30
0.0
 10
78.726977
 20
38.344805
 30
0.0
 10
78.726977
 20
38.519390
 30
0.0
  0
LWPOLYLINE
  5
25c
100
AcDbEntity
  8
ink_ext_XXXXXX
 62
7
100
AcDbPolyline
 90
2
 70
1
 10
77.339983
 20
38.218670
 30
0.0
 10
78.426233
 20
38.218670
 30
0.0
  0
SPLINE
  5
25d
100
AcDbEntity
  8
ink_ext_XXXXXX
 62
7
100
AcDbSpline
 70
8
 71
3
 72
8
 73
4
 74
0
 40
0
 40
0
 40
0
 40
0
 40
1
 40
1
 40
1
 40
1
 10
78.726977
 20
40.051479
 30
0.0
 10
78.726977
 20
40.226088
 30
0.0
 10
78.853107
 20
40.352223
 30
0.0
 10
79.027715
 20
40.352223
 30
0.0
  0
LWPOLYLINE
  5
25e
100
AcDbEntity
  8
ink_ext_XXXXXX
 62
7
100
AcDbPolyline
 90
2
 70
1
 10
78.726977
 20
38.519390
 30
0.0
 10
78.726977
 20
40.051479
 30
0.0
  0
SPLINE
  5
25f
100
AcDbEntity
  8
ink_ext_XXXXXX
 62
7
100
AcDbSpline
 70
8
 71
3
 72
8
 73
4
 74
0
 40
0
 40
0
 40
0
 40
0
 40
1
 40
1
 40
1
 40
1
 10
79.415358
 20
40.352223
 30
0.0
 10
79.444351
 20
40.352223
 30
0.0
 10
79.473714
 20
40.332957
 30
0.0
 10
79.492884
 20
40.303950
 30
0.0
  0
LWPOLYLINE
  5
260
100
AcDbEntity
  8
ink_ext_XXXXXX
 62
7
100
AcDbPolyline
 90
2
 70
1
 10
79.027715
 20
40.352223
 30
0.0
 10
79.415358
 20
40.352223
 30
0.0
  0
SPLINE
  5
261
100
AcDbEntity
  8
ink_ext_XXXXXX
 62
7
100
AcDbSpline
 70
8
 71
3
 72
8
 73
4
 74
0
 40
0
 40
0
 40
0
 40
0
 40
1
 40
1
 40
1
 40
1
 10
80.501604
 20
38.354674
 30
0.0
 10
80.540464
 20
38.267088
 30
0.0
 10
80.627663
 20
38.218670
 30
0.0
 10
80.724533
 20
38.218670
 30
0.0
  0
LWPOLYLINE
  5
262
100
AcDbEntity
  8
ink_ext_XXXXXX
 62
7
100
AcDbPolyline
 90
2
 70
1
 10
79.492884
 20
40.303950
 30
0.0
 10
80.501604
 20
38.354674
 30
0.0
  0
SPLINE
  5
263
100
AcDbEntity
  8
ink_ext_XXXXXX
 62
7
100
AcDbSpline
 70
8
 71
3
 72
8
 73
4
 74
0
 40
0
 40
0
 40
0
 40
0
 40
1
 40
1
 40
1
 40
1
 10
81.830091
 20
38.218670
 30
0.0
 10
82.130903
 20
38.218670
 30
0.0
 10
82.286175
 20
38.490019
 30
0.0
 10
82.150427
 20
38.742326
 30
0.0
  0
LWPOLYLINE
  5
264
100
AcDbEntity
  8
ink_ext_XXXXXX
 62
7
100
AcDbPolyline
 90
2
 70
1
 10
80.724533
 20
38.218670
 30
0.0
 10
81.830091
 20
38.218670
 30
0.0
  0
SPLINE
  5
265
100
AcDbEntity
  8
ink_ext_XXXXXX
 62
7
100
AcDbSpline
 70
8
 71
3
 72
8
 73
4
 74
0
 40
0
 40
0
 40
0
 40
0
 40
1
 40
1
 40
1
 40
1
 10
81.122114
 20
40.652966
 30
0.0
 10
81.102962
 20
40.701403
 30
0.0
 10
81.112790
 20
40.749785
 30
0.0
 10
81.151650
 20
40.778775
 30
0.0
  0
SPLINE
  5
266
100
AcDbEntity
  8
ink_ext_XXXXXX
 62
7
100
AcDbSpline
 70
8
 71
3
 72
8
 73
4
 74
0
 40
0
 40
0
 40
0
 40
0
 40
1
 40
1
 40
1
 40
1
 10
81.151650
 20
40.778775
 30
0.0
 10
81.665588
 20
41.147402
 30
0.0
 10
81.888595
 20
41.777788
 30
0.0
 10
81.888595
 20
42.679783
 30
0.0
  0
SPLINE
  5
267
100
AcDbEntity
  8
ink_ext_XXXXXX
 62
7
100
AcDbSpline
 70
8
 71
3
 72
8
 73
4
 74
0
 40
0
 40
0
 40
0
 40
0
 40
1
 40
1
 40
1
 40
1
 10
81.888595
 20
42.679783
 30
0.0
 10
81.888595
 20
44.270578
 30
0.0
 10
81.190196
 20
45.007615
 30
0.0
 10
79.463918
 20
45.007615
 30
0.0
  0
LWPOLYLINE
  5
268
100
AcDbEntity
  8
ink_ext_XXXXXX
 62
7
100
AcDbPolyline
 90
2
 70
1
 10
82.150427
 20
38.742326
 30
0.0
 10
81.122114
 20
40.652966
 30
0.0
  0
SPLINE
  5
269
100
AcDbEntity
  8
ink_ext_XXXXXX
 62
7
100
AcDbSpline
 70
8
 71
3
 72
8
 73
4
 74
0
 40
0
 40
0
 40
0
 40
0
 40
1
 40
1
 40
1
 40
1
 10
83.081335
 20
45.007615
 30
0.0
 10
82.897163
 20
45.007615
 30
0.0
 10
82.790533
 20
44.910287
 30
0.0
 10
82.790533
 20
44.716522
 30
0.0
  0
LWPOLYLINE
  5
26a
100
AcDbEntity
  8
ink_ext_XXXXXX
 62
7
100
AcDbPolyline
 90
3
 70
1
 10
79.463918
 20
45.007615
 30
0.0
 10
77.339983
 20
45.007615
 30
0.0
 10
77.339983
 20
45.007615
 30
0.0
  0
SPLINE
  5
26b
100
AcDbEntity
  8
ink_ext_XXXXXX
 62
7
100
AcDbSpline
 70
8
 71
3
 72
8
 73
4
 74
0
 40
0
 40
0
 40
0
 40
0
 40
1
 40
1
 40
1
 40
1
 10
82.790533
 20
38.509721
 30
0.0
 10
82.790533
 20
38.325285
 30
0.0
 10
82.897163
 20
38.218670
 30
0.0
 10
83.081335
 20
38.218670
 30
0.0
  0
LWPOLYLINE
  5
26c
100
AcDbEntity
  8
ink_ext_XXXXXX
 62
7
100
AcDbPolyline
 90
2
 70
1
 10
82.790533
 20
44.716522
 30
0.0
 10
82.790533
 20
38.509721
 30
0.0
  0
SPLINE
  5
26d
100
AcDbEntity
  8
ink_ext_XXXXXX
 62
7
100
AcDbSpline
 70
8
 71
3
 72
8
 73
4
 74
0
 40
0
 40
0
 40
0
 40
0
 40
1
 40
1
 40
1
 40
1
 10
87.154833
 20
38.218670
 30
0.0
 10
87.348852
 20
38.218670
 30
0.0
 10
87.445634
 20
38.315688
 30
0.0
 10
87.445634
 20
38.509721
 30
0.0
  0
LWPOLYLINE
  5
26e
100
AcDbEntity
  8
ink_ext_XXXXXX
 62
7
100
AcDbPolyline
 90
2
 70
1
 10
83.081335
 20
38.218670
 30
0.0
 10
87.154833
 20
38.218670
 30
0.0
  0
SPLINE
  5
26f
100
AcDbEntity
  8
ink_ext_XXXXXX
 62
7
100
AcDbSpline
 70
8
 71
3
 72
8
 73
4
 74
0
 40
0
 40
0
 40
0
 40
0
 40
1
 40
1
 40
1
 40
1
 10
87.445634
 20
39.595974
 30
0.0
 10
87.445634
 20
39.789721
 30
0.0
 10
87.348852
 20
39.886776
 30
0.0
 10
87.154833
 20
39.886776
 30
0.0
  0
LWPOLYLINE
  5
270
100
AcDbEntity
  8
ink_ext_XXXXXX
 62
7
100
AcDbPolyline
 90
2
 70
1
 10
87.445634
 20
38.509721
 30
0.0
 10
87.445634
 20
39.595974
 30
0.0
  0
SPLINE
  5
271
100
AcDbEntity
  8
ink_ext_XXXXXX
 62
7
100
AcDbSpline
 70
8
 71
3
 72
8
 73
4
 74
0
 40
0
 40
0
 40
0
 40
0
 40
1
 40
1
 40
1
 40
1
 10
84.807971
 20
39.886776
 30
0.0
 10
84.623519
 20
39.886776
 30
0.0
 10
84.517169
 20
39.993392
 30
0.0
 10
84.517169
 20
40.177578
 30
0.0
  0
LWPOLYLINE
  5
272
100
AcDbEntity
  8
ink_ext_XXXXXX
 62
7
100
AcDbPolyline
 90
2
 70
1
 10
87.154833
 20
39.886776
 30
0.0
 10
84.807971
 20
39.886776
 30
0.0
  0
SPLINE
  5
273
100
AcDbEntity
  8
ink_ext_XXXXXX
 62
7
100
AcDbSpline
 70
8
 71
3
 72
8
 73
4
 74
0
 40
0
 40
0
 40
0
 40
0
 40
1
 40
1
 40
1
 40
1
 10
84.517169
 20
40.487973
 30
0.0
 10
84.517169
 20
40.681701
 30
0.0
 10
84.623519
 20
40.778775
 30
0.0
 10
84.807971
 20
40.778775
 30
0.0
  0
LWPOLYLINE
  5
274
100
AcDbEntity
  8
ink_ext_XXXXXX
 62
7
100
AcDbPolyline
 90
2
 70
1
 10
84.517169
 20
40.177578
 30
0.0
 10
84.517169
 20
40.487973
 30
0.0
  0
SPLINE
  5
275
100
AcDbEntity
  8
ink_ext_XXXXXX
 62
7
100
AcDbSpline
 70
8
 71
3
 72
8
 73
4
 74
0
 40
0
 40
0
 40
0
 40
0
 40
1
 40
1
 40
1
 40
1
 10
86.311109
 20
40.778775
 30
0.0
 10
86.504869
 20
40.778775
 30
0.0
 10
86.602195
 20
40.885699
 30
0.0
 10
86.602195
 20
41.069849
 30
0.0
  0
LWPOLYLINE
  5
276
100
AcDbEntity
  8
ink_ext_XXXXXX
 62
7
100
AcDbPolyline
 90
2
 70
1
 10
84.807971
 20
40.778775
 30
0.0
 10
86.311109
 20
40.778775
 30
0.0
  0
SPLINE
  5
277
100
AcDbEntity
  8
ink_ext_XXXXXX
 62
7
100
AcDbSpline
 70
8
 71
3
 72
8
 73
4
 74
0
 40
0
 40
0
 40
0
 40
0
 40
1
 40
1
 40
1
 40
1
 10
86.602195
 20
42.156103
 30
0.0
 10
86.602195
 20
42.349850
 30
0.0
 10
86.504869
 20
42.447196
 30
0.0
 10
86.311109
 20
42.447196
 30
0.0
  0
LWPOLYLINE
  5
278
100
AcDbEntity
  8
ink_ext_XXXXXX
 62
7
100
AcDbPolyline
 90
2
 70
1
 10
86.602195
 20
41.069849
 30
0.0
 10
86.602195
 20
42.156103
 30
0.0
  0
SPLINE
  5
279
100
AcDbEntity
  8
ink_ext_XXXXXX
 62
7
100
AcDbSpline
 70
8
 71
3
 72
8
 73
4
 74
0
 40
0
 40
0
 40
0
 40
0
 40
1
 40
1
 40
1
 40
1
 10
84.807971
 20
42.447196
 30
0.0
 10
84.623519
 20
42.447196
 30
0.0
 10
84.517169
 20
42.553811
 30
0.0
 10
84.517169
 20
42.737997
 30
0.0
  0
LWPOLYLINE
  5
27a
100
AcDbEntity
  8
ink_ext_XXXXXX
 62
7
100
AcDbPolyline
 90
2
 70
1
 10
86.311109
 20
42.447196
 30
0.0
 10
84.807971
 20
42.447196
 30
0.0
  0
SPLINE
  5
27b
100
AcDbEntity
  8
ink_ext_XXXXXX
 62
7
100
AcDbSpline
 70
8
 71
3
 72
8
 73
4
 74
0
 40
0
 40
0
 40
0
 40
0
 40
1
 40
1
 40
1
 40
1
 10
84.517169
 20
43.048392
 30
0.0
 10
84.517169
 20
43.242430
 30
0.0
 10
84.623519
 20
43.339194
 30
0.0
 10
84.807971
 20
43.339194
 30
0.0
  0
LWPOLYLINE
  5
27c
100
AcDbEntity
  8
ink_ext_XXXXXX
 62
7
100
AcDbPolyline
 90
2
 70
1
 10
84.517169
 20
42.737997
 30
0.0
 10
84.517169
 20
43.048392
 30
0.0
  0
SPLINE
  5
27d
100
AcDbEntity
  8
ink_ext_XXXXXX
 62
7
100
AcDbSpline
 70
8
 71
3
 72
8
 73
4
 74
0
 40
0
 40
0
 40
0
 40
0
 40
1
 40
1
 40
1
 40
1
 10
87.154833
 20
43.339194
 30
0.0
 10
87.348852
 20
43.339194
 30
0.0
 10
87.445634
 20
43.446136
 30
0.0
 10
87.445634
 20
43.630287
 30
0.0
  0
LWPOLYLINE
  5
27e
100
AcDbEntity
  8
ink_ext_XXXXXX
 62
7
100
AcDbPolyline
 90
2
 70
1
 10
84.807971
 20
43.339194
 30
0.0
 10
87.154833
 20
43.339194
 30
0.0
  0
SPLINE
  5
27f
100
AcDbEntity
  8
ink_ext_XXXXXX
 62
7
100
AcDbSpline
 70
8
 71
3
 72
8
 73
4
 74
0
 40
0
 40
0
 40
0
 40
0
 40
1
 40
1
 40
1
 40
1
 10
87.445634
 20
44.716522
 30
0.0
 10
87.445634
 20
44.910287
 30
0.0
 10
87.348852
 20
45.007615
 30
0.0
 10
87.154833
 20
45.007615
 30
0.0
  0
LWPOLYLINE
  5
280
100
AcDbEntity
  8
ink_ext_XXXXXX
 62
7
100
AcDbPolyline
 90
2
 70
1
 10
87.445634
 20
43.630287
 30
0.0
 10
87.445634
 20
44.716522
 30
0.0
  0
SPLINE
  5
281
100
AcDbEntity
  8
ink_ext_XXXXXX
 62
7
100
AcDbSpline
 70
8
 71
3
 72
8
 73
4
 74
0
 40
0
 40
0
 40
0
 40
0
 40
1
 40
1
 40
1
 40
1
 10
68.310361
 20
43.358787
 30
0.0
 10
68.950446
 20
43.358787
 30
0.0
 10
69.018339
 20
43.125673
 30
0.0
 10
69.018339
 20
42.660462
 30
0.0
  0
LWPOLYLINE
  5
282
100
AcDbEntity
  8
ink_ext_XXXXXX
 62
7
100
AcDbPolyline
 90
3
 70
1
 10
87.154833
 20
45.007615
 30
0.0
 10
83.081335
 20
45.007615
 30
0.0
 10
83.081335
 20
45.007615
 30
0.0
  0
SPLINE
  5
283
100
AcDbEntity
  8
ink_ext_XXXXXX
 62
7
100
AcDbSpline
 70
8
 71
3
 72
8
 73
4
 74
0
 40
0
 40
0
 40
0
 40
0
 40
1
 40
1
 40
1
 40
1
 10
69.018339
 20
41.613140
 30
0.0
 10
69.018339
 20
41.419375
 30
0.0
 10
68.921575
 20
41.322265
 30
0.0
 10
68.727538
 20
41.312669
 30
0.0
  0
LWPOLYLINE
  5
284
100
AcDbEntity
  8
ink_ext_XXXXXX
 62
7
100
AcDbPolyline
 90
2
 70
1
 10
69.018339
 20
42.660462
 30
0.0
 10
69.018339
 20
41.613140
 30
0.0
  0
SPLINE
  5
285
100
AcDbEntity
  8
ink_ext_XXXXXX
 62
7
100
AcDbSpline
 70
8
 71
3
 72
8
 73
4
 74
0
 40
0
 40
0
 40
0
 40
0
 40
1
 40
1
 40
1
 40
1
 10
67.893752
 20
41.312669
 30
0.0
 10
67.709300
 20
41.312669
 30
0.0
 10
67.602383
 20
41.419302
 30
0.0
 10
67.602383
 20
41.603470
 30
0.0
  0
LWPOLYLINE
  5
286
100
AcDbEntity
  8
ink_ext_XXXXXX
 62
7
100
AcDbPolyline
 90
2
 70
1
 10
68.727538
 20
41.312669
 30
0.0
 10
67.893752
 20
41.312669
 30
0.0
  0
SPLINE
  5
287
100
AcDbEntity
  8
ink_ext_XXXXXX
 62
7
100
AcDbSpline
 70
8
 71
3
 72
8
 73
4
 74
0
 40
0
 40
0
 40
0
 40
0
 40
1
 40
1
 40
1
 40
1
 10
67.602383
 20
42.660462
 30
0.0
 10
67.602383
 20
43.125673
 30
0.0
 10
67.670536
 20
43.358787
 30
0.0
 10
68.310361
 20
43.358787
 30
0.0
  0
LWPOLYLINE
  5
288
100
AcDbEntity
  8
ink_ext_XXXXXX
 62
7
100
AcDbPolyline
 90
2
 70
1
 10
67.602383
 20
41.603470
 30
0.0
 10
67.602383
 20
42.660462
 30
0.0
  0
LWPOLYLINE
  5
289
100
AcDbEntity
  8
ink_ext_XXXXXX
 62
7
100
AcDbPolyline
 90
2
 70
1
 10
68.310361
 20
43.358787
 30
0.0
 10
68.310361
 20
43.358787
 30
0.0
  0
SPLINE
  5
28a
100
AcDbEntity
  8
ink_ext_XXXXXX
 62
7
100
AcDbSpline
 70
8
 71
3
 72
8
 73
4
 74
0
 40
0
 40
0
 40
0
 40
0
 40
1
 40
1
 40
1
 40
1
 10
79.522136
 20
43.339176
 30
0.0
 10
79.987652
 20
43.339176
 30
0.0
 10
80.220173
 20
43.281288
 30
0.0
 10
80.220173
 20
42.679764
 30
0.0
  0
SPLINE
  5
28b
100
AcDbEntity
  8
ink_ext_XXXXXX
 62
7
100
AcDbSpline
 70
8
 71
3
 72
8
 73
4
 74
0
 40
0
 40
0
 40
0
 40
0
 40
1
 40
1
 40
1
 40
1
 10
80.220173
 20
42.679764
 30
0.0
 10
80.220173
 20
42.078532
 30
0.0
 10
79.987652
 20
42.020062
 30
0.0
 10
79.522136
 20
42.020062
 30
0.0
  0
LWPOLYLINE
  5
28c
100
AcDbEntity
  8
ink_ext_XXXXXX
 62
7
100
AcDbPolyline
 90
2
 70
1
 10
79.027715
 20
43.339176
 30
0.0
 10
79.522136
 20
43.339176
 30
0.0
  0
SPLINE
  5
28d
100
AcDbEntity
  8
ink_ext_XXXXXX
 62
7
100
AcDbSpline
 70
8
 71
3
 72
8
 73
4
 74
0
 40
0
 40
0
 40
0
 40
0
 40
1
 40
1
 40
1
 40
1
 10
79.027715
 20
42.020062
 30
0.0
 10
78.853107
 20
42.020062
 30
0.0
 10
78.726977
 20
42.146761
 30
0.0
 10
78.726977
 20
42.321097
 30
0.0
  0
LWPOLYLINE
  5
28e
100
AcDbEntity
  8
ink_ext_XXXXXX
 62
7
100
AcDbPolyline
 90
2
 70
1
 10
79.522136
 20
42.020062
 30
0.0
 10
79.027715
 20
42.020062
 30
0.0
  0
SPLINE
  5
28f
100
AcDbEntity
  8
ink_ext_XXXXXX
 62
7
100
AcDbSpline
 70
8
 71
3
 72
8
 73
4
 74
0
 40
0
 40
0
 40
0
 40
0
 40
1
 40
1
 40
1
 40
1
 10
78.726977
 20
43.038723
 30
0.0
 10
78.726977
 20
43.213313
 30
0.0
 10
78.853107
 20
43.339176
 30
0.0
 10
79.027715
 20
43.339176
 30
0.0
  0
LWPOLYLINE
  5
290
100
AcDbEntity
  8
ink_ext_XXXXXX
 62
7
100
AcDbPolyline
 90
2
 70
1
 10
78.726977
 20
42.321097
 30
0.0
 10
78.726977
 20
43.038723
 30
0.0
  0
LWPOLYLINE
  5
291
100
AcDbEntity
  8
ink_ext_XXXXXX
 62
7
100
AcDbPolyline
 90
2
 70
1
 10
79.027715
 20
43.339176
 30
0.0
 10
79.027715
 20
43.339176
 30
0.0
  0
ENDSEC
  0
SECTION
  2
OBJECTS
  0
DICTIONARY
  5
C
330
0
100
AcDbDictionary
  3
ACAD_GROUP
350
D
  3
ACAD_MLINESTYLE
350
17
  0
DICTIONARY
  5
D
330
C
100
AcDbDictionary
  0
DICTIONARY
  5
1A
330
C
100
AcDbDictionary
  0
DICTIONARY
  5
17
330
C
100
AcDbDictionary
  3
STANDARD
350
18
  0
DICTIONARY
  5
19
330
C
100
AcDbDictionary
  0
ENDSEC
  0
EOF
